<?xml version="1.0" encoding="UTF-8" standalone="no"?>
<svg
   width="301.57101"
   height="301.57391"
   overflow="hidden"
   version="1.1"
   id="svg4"
   sodipodi:docname="ss_icon.svg"
   inkscape:version="1.3.2 (091e20e, 2023-11-25, custom)"
   xmlns:inkscape="http://www.inkscape.org/namespaces/inkscape"
   xmlns:sodipodi="http://sodipodi.sourceforge.net/DTD/sodipodi-0.dtd"
   xmlns="http://www.w3.org/2000/svg"
   xmlns:svg="http://www.w3.org/2000/svg">
  <defs
     id="defs4" />
  <sodipodi:namedview
     id="namedview4"
     pagecolor="#505050"
     bordercolor="#ffffff"
     borderopacity="1"
     inkscape:showpageshadow="0"
     inkscape:pageopacity="0"
     inkscape:pagecheckerboard="1"
     inkscape:deskcolor="#505050"
     inkscape:zoom="1.4461424"
     inkscape:cx="186.70361"
     inkscape:cy="225.08157"
     inkscape:window-width="3840"
     inkscape:window-height="2071"
     inkscape:window-x="-9"
     inkscape:window-y="10"
     inkscape:window-maximized="1"
     inkscape:current-layer="g4" />
  <g
     transform="translate(-1361.0995,-416.24338)"
     id="g4">
    <g
       id="g3">
      <g
         id="g2">
        <g
           id="g1">
          <path
             d="m 1404.3,626.717 -2.46,3.65 c -11.68,18.451 -16.83,39.964 -15.47,61.324 l 0.06,0.79 0.79,0.07 c 21.37,1.349 42.88,-3.793 61.33,-15.475 l 3.65,-2.454 -1.81,2.554 c -2.88,3.873 -6.08,7.582 -9.59,11.092 -21.4,21.398 -50.15,31.138 -78.63,29.339 l -0.79,-0.07 -0.07,-0.791 c -1.8,-28.481 7.94,-57.232 29.34,-78.63 3.51,-3.51 7.22,-6.708 11.09,-9.59 z m 191.12,-143.219 c -13.85,-13.849 -36.3,-13.849 -50.15,0 -13.85,13.849 -13.85,36.303 0,50.152 13.85,13.849 36.3,13.849 50.15,0 13.85,-13.849 13.85,-36.303 0,-50.152 z m 66.87,-66.869 0.13,2.013 c 2.94,68.032 -20,137.184 -68.76,191.441 l -3.64,3.838 5.4,70.183 -142.1,25.076 38.23,-38.231 -7.59,-4.792 c -13.75,-9.298 -26.82,-20.034 -39,-32.204 -12.17,-12.173 -22.9,-25.241 -32.2,-38.997 l -4.79,-7.594 -38.23,38.232 25.07,-142.096 70.19,5.397 3.83,-3.638 c 54.26,-48.759 123.41,-71.704 191.45,-68.763 z"
             fill="#ffffff"
             fill-rule="evenodd"
             id="path1" />
        </g>
      </g>
    </g>
  </g>
</svg>
