<svg width="322" height="191" xmlns="http://www.w3.org/2000/svg" overflow="hidden">
  <path fill="#FFF" d="M961 530h322v189H961z" transform="translate(-961 -529)"/>
  <path d="M990 573.532a5.53 5.53 0 0 1 5.532-5.532h110.938c3.05 0 5.53 2.477 5.53 5.532v45.936a5.534 5.534 0 0 1-5.53 5.532H995.532a5.53 5.53 0 0 1-5.532-5.532Z" fill="#D9D9D9" fill-rule="evenodd" transform="translate(-961 -529)"/>
  <path d="M999 586.5c0-5.247 4.25-9.5 9.5-9.5s9.5 4.253 9.5 9.5-4.25 9.5-9.5 9.5-9.5-4.253-9.5-9.5" fill="#404040" fill-rule="evenodd" transform="translate(-961 -529)"/>
  <path d="M999 610.5c0-2.485 2.01-4.5 4.5-4.5h48c2.49 0 4.5 2.015 4.5 4.5s-2.01 4.5-4.5 4.5h-48c-2.49 0-4.5-2.015-4.5-4.5m66 0c0-2.485 2.01-4.5 4.5-4.5h29c2.49 0 4.5 2.015 4.5 4.5s-2.01 4.5-4.5 4.5h-29c-2.49 0-4.5-2.015-4.5-4.5" fill="#ABABAB" fill-rule="evenodd" transform="translate(-961 -529)"/>
  <path d="M990 649.435a5.435 5.435 0 0 1 5.435-5.435h111.125c3.01 0 5.44 2.433 5.44 5.435v45.13a5.434 5.434 0 0 1-5.44 5.435H995.435a5.435 5.435 0 0 1-5.435-5.435Z" fill="#D9D9D9" fill-rule="evenodd" transform="translate(-961 -529)"/>
  <path d="M999 662.5c0-5.247 4.25-9.5 9.5-9.5s9.5 4.253 9.5 9.5-4.25 9.5-9.5 9.5-9.5-4.253-9.5-9.5" fill="#404040" fill-rule="evenodd" transform="translate(-961 -529)"/>
  <path d="M999 686c0-2.761 2.24-5 5-5h47a5.001 5.001 0 0 1 0 10h-47c-2.76 0-5-2.239-5-5m66 0c0-2.761 2.24-5 5-5h28a5.001 5.001 0 0 1 0 10h-28c-2.76 0-5-2.239-5-5" fill="#ABABAB" fill-rule="evenodd" transform="translate(-961 -529)"/>
  <path d="M1131 573.532a5.534 5.534 0 0 1 5.53-5.532h111.94c3.05 0 5.53 2.477 5.53 5.532v45.936a5.534 5.534 0 0 1-5.53 5.532h-111.94a5.534 5.534 0 0 1-5.53-5.532Z" fill="#D9D9D9" fill-rule="evenodd" transform="translate(-961 -529)"/>
  <path d="M1141 586.5c0-5.247 4.25-9.5 9.5-9.5s9.5 4.253 9.5 9.5-4.25 9.5-9.5 9.5-9.5-4.253-9.5-9.5" fill="#404040" fill-rule="evenodd" transform="translate(-961 -529)"/>
  <path d="M1141 610.5c0-2.485 2.01-4.5 4.5-4.5h47c2.49 0 4.5 2.015 4.5 4.5s-2.01 4.5-4.5 4.5h-47c-2.49 0-4.5-2.015-4.5-4.5m66 0c0-2.485 2.01-4.5 4.5-4.5h29c2.49 0 4.5 2.015 4.5 4.5s-2.01 4.5-4.5 4.5h-29c-2.49 0-4.5-2.015-4.5-4.5" fill="#ABABAB" fill-rule="evenodd" transform="translate(-961 -529)"/>
  <path d="M1131 648.532a5.534 5.534 0 0 1 5.53-5.532h111.94c3.05 0 5.53 2.477 5.53 5.532v45.936a5.534 5.534 0 0 1-5.53 5.532h-111.94a5.534 5.534 0 0 1-5.53-5.532Z" fill="#D9D9D9" fill-rule="evenodd" transform="translate(-961 -529)"/>
  <path d="M1141 662.5c0-5.247 4.25-9.5 9.5-9.5s9.5 4.253 9.5 9.5-4.25 9.5-9.5 9.5-9.5-4.253-9.5-9.5" fill="#404040" fill-rule="evenodd" transform="translate(-961 -529)"/>
  <path d="M1141 686c0-2.761 2.24-5 5-5h46a5.001 5.001 0 0 1 0 10h-46c-2.76 0-5-2.239-5-5m66 0c0-2.761 2.24-5 5-5h28a5.001 5.001 0 0 1 0 10h-28c-2.76 0-5-2.239-5-5" fill="#ABABAB" fill-rule="evenodd" transform="translate(-961 -529)"/>
  <path d="M1089 553.5c0-2.485 2.01-4.5 4.5-4.5h57c2.49 0 4.5 2.015 4.5 4.5s-2.01 4.5-4.5 4.5h-57c-2.49 0-4.5-2.015-4.5-4.5" fill="#404040" fill-rule="evenodd" transform="translate(-961 -529)"/>
  <path d="M990 554a2 2 0 0 1 2-2h90c1.1 0 2 .895 2 2s-.9 2-2 2h-90a2 2 0 0 1-2-2m170 0c0-1.105.9-2 2-2h90c1.1 0 2 .895 2 2s-.9 2-2 2h-90c-1.1 0-2-.895-2-2" fill="#D9D9D9" fill-rule="evenodd" transform="translate(-961 -529)"/>
</svg>
