<svg width="322" height="191" xmlns="http://www.w3.org/2000/svg" overflow="hidden">
  <path fill="#FFF" d="M961 530h322v189H961z" transform="translate(-961 -529)"/>
  <path d="M1150 582c0-2.761 2.24-5 5-5h19a5.001 5.001 0 0 1 0 10h-19c-2.76 0-5-2.239-5-5m-85 0c0-2.761 2.24-5 5-5h66a5.001 5.001 0 0 1 0 10h-66c-2.76 0-5-2.239-5-5m-75 16.764a2.765 2.765 0 0 1 2.764-2.764h258.476c1.52 0 2.76 1.238 2.76 2.764v41.472a2.765 2.765 0 0 1-2.76 2.764H992.764a2.765 2.765 0 0 1-2.764-2.764Z" fill="#BFBFBF" fill-rule="evenodd" transform="translate(-961 -529)"/>
  <path d="M1018 558.5c0-5.247 4.25-9.5 9.5-9.5h113c5.25 0 9.5 4.253 9.5 9.5s-4.25 9.5-9.5 9.5h-113c-5.25 0-9.5-4.253-9.5-9.5m142 0c0-5.247 4.25-9.5 9.5-9.5h47c5.25 0 9.5 4.253 9.5 9.5s-4.25 9.5-9.5 9.5h-47c-5.25 0-9.5-4.253-9.5-9.5" fill="#404040" fill-rule="evenodd" transform="translate(-961 -529)"/>
  <path d="M990 655.764a2.765 2.765 0 0 1 2.764-2.764h116.476c1.52 0 2.76 1.238 2.76 2.764v41.472a2.765 2.765 0 0 1-2.76 2.764H992.764a2.765 2.765 0 0 1-2.764-2.764Zm141 0a2.764 2.764 0 0 1 2.76-2.764h117.48c1.52 0 2.76 1.237 2.76 2.764v41.472a2.764 2.764 0 0 1-2.76 2.764h-117.48a2.764 2.764 0 0 1-2.76-2.764Z" fill="#D9D9D9" fill-rule="evenodd" transform="translate(-961 -529)"/>
</svg>
