<svg width="322" height="191" xmlns="http://www.w3.org/2000/svg"
    xmlns:xlink="http://www.w3.org/1999/xlink" overflow="hidden">
    <g transform="translate(-961 -529)">
        <rect x="961" y="530" width="322" height="189" fill="#FFFFFF" />
        <path
            d="M990 572.5C990 570.015 992.015 568 994.5 568L1079.5 568C1081.99 568 1084 570.015 1084 572.5L1084 572.5C1084 574.985 1081.99 577 1079.5 577L994.5 577C992.015 577 990 574.985 990 572.5Z"
            fill="#404040" fill-rule="evenodd" />
        <path
            d="M990 591.411C990 588.975 991.975 587 994.411 587L1060.59 587C1063.03 587 1065 588.975 1065 591.411L1065 676.589C1065 679.025 1063.03 681 1060.59 681L994.411 681C991.975 681 990 679.025 990 676.589Z"
            fill="#BFBFBF" fill-rule="evenodd" />
        <path
            d="M999 667C999 664.239 1001.24 662 1004 662L1051 662C1053.76 662 1056 664.239 1056 667L1056 667C1056 669.761 1053.76 672 1051 672L1004 672C1001.24 672 999 669.761 999 667Z"
            fill="#FFFFFF" fill-rule="evenodd" />
        <path
            d="M1084 591.47C1084 589.001 1086 587 1088.47 587L1155.53 587C1158 587 1160 589.001 1160 591.47L1160 676.53C1160 678.999 1158 681 1155.53 681L1088.47 681C1086 681 1084 678.999 1084 676.53Z"
            fill="#BFBFBF" fill-rule="evenodd" />
        <path
            d="M1094 667C1094 664.239 1096.24 662 1099 662L1145 662C1147.76 662 1150 664.239 1150 667L1150 667C1150 669.761 1147.76 672 1145 672L1099 672C1096.24 672 1094 669.761 1094 667Z"
            fill="#FFFFFF" fill-rule="evenodd" />
        <path
            d="M1179 591.411C1179 588.975 1180.97 587 1183.41 587L1249.59 587C1252.03 587 1254 588.975 1254 591.411L1254 676.589C1254 679.025 1252.03 681 1249.59 681L1183.41 681C1180.97 681 1179 679.025 1179 676.589Z"
            fill="#BFBFBF" fill-rule="evenodd" />
        <path
            d="M1188 667C1188 664.239 1190.24 662 1193 662L1240 662C1242.76 662 1245 664.239 1245 667L1245 667C1245 669.761 1242.76 672 1240 672L1193 672C1190.24 672 1188 669.761 1188 667Z"
            fill="#FFFFFF" fill-rule="evenodd" />
    </g>
</svg>