<svg width="322" height="191" xmlns="http://www.w3.org/2000/svg"
    xmlns:xlink="http://www.w3.org/1999/xlink" overflow="hidden">
    <g transform="translate(-961 -529)">
        <rect x="961" y="530" width="322" height="189" fill="#FFFFFF" />
        <path
            d="M990 572.5C990 570.015 992.015 568 994.5 568L1079.5 568C1081.99 568 1084 570.015 1084 572.5L1084 572.5C1084 574.985 1081.99 577 1079.5 577L994.5 577C992.015 577 990 574.985 990 572.5Z"
            fill="#404040" fill-rule="evenodd" />
        <path
            d="M990 591.411C990 588.975 991.975 587 994.411 587L1060.59 587C1063.03 587 1065 588.975 1065 591.411L1065 657.589C1065 660.025 1063.03 662 1060.59 662L994.411 662C991.975 662 990 660.025 990 657.589Z"
            fill="#D9D9D9" fill-rule="evenodd" />
        <path
            d="M1046 676.5C1046 674.015 1048.01 672 1050.5 672L1060.5 672C1062.99 672 1065 674.015 1065 676.5L1065 676.5C1065 678.985 1062.99 681 1060.5 681L1050.5 681C1048.01 681 1046 678.985 1046 676.5Z"
            fill="#BFBFBF" fill-rule="evenodd" />
        <path
            d="M990 676.5C990 674.015 992.015 672 994.5 672L1032.5 672C1034.99 672 1037 674.015 1037 676.5L1037 676.5C1037 678.985 1034.99 681 1032.5 681L994.5 681C992.015 681 990 678.985 990 676.5Z"
            fill="#BFBFBF" fill-rule="evenodd" />
        <path
            d="M1084 591.411C1084 588.975 1085.97 587 1088.41 587L1155.59 587C1158.03 587 1160 588.975 1160 591.411L1160 657.589C1160 660.025 1158.03 662 1155.59 662L1088.41 662C1085.97 662 1084 660.025 1084 657.589Z"
            fill="#D9D9D9" fill-rule="evenodd" />
        <path
            d="M1141 676.5C1141 674.015 1143.01 672 1145.5 672L1155.5 672C1157.99 672 1160 674.015 1160 676.5L1160 676.5C1160 678.985 1157.99 681 1155.5 681L1145.5 681C1143.01 681 1141 678.985 1141 676.5Z"
            fill="#BFBFBF" fill-rule="evenodd" />
        <path
            d="M1084 676.5C1084 674.015 1086.01 672 1088.5 672L1126.5 672C1128.99 672 1131 674.015 1131 676.5L1131 676.5C1131 678.985 1128.99 681 1126.5 681L1088.5 681C1086.01 681 1084 678.985 1084 676.5Z"
            fill="#BFBFBF" fill-rule="evenodd" />
        <path
            d="M1179 591.411C1179 588.975 1180.97 587 1183.41 587L1249.59 587C1252.03 587 1254 588.975 1254 591.411L1254 657.589C1254 660.025 1252.03 662 1249.59 662L1183.41 662C1180.97 662 1179 660.025 1179 657.589Z"
            fill="#D9D9D9" fill-rule="evenodd" />
        <path
            d="M1179 676.5C1179 674.015 1181.01 672 1183.5 672L1192.5 672C1194.99 672 1197 674.015 1197 676.5L1197 676.5C1197 678.985 1194.99 681 1192.5 681L1183.5 681C1181.01 681 1179 678.985 1179 676.5Z"
            fill="#BFBFBF" fill-rule="evenodd" />
        <path
            d="M1207 676.5C1207 674.015 1209.01 672 1211.5 672L1249.5 672C1251.99 672 1254 674.015 1254 676.5L1254 676.5C1254 678.985 1251.99 681 1249.5 681L1211.5 681C1209.01 681 1207 678.985 1207 676.5Z"
            fill="#BFBFBF" fill-rule="evenodd" />
    </g>
</svg>