<svg width="322" height="191" xmlns="http://www.w3.org/2000/svg"
    xmlns:xlink="http://www.w3.org/1999/xlink" overflow="hidden">
    <g transform="translate(-961 -529)">
        <rect x="961" y="530" width="322" height="189" fill="#FFFFFF" />
        <path
            d="M990 567.5C990 562.253 994.253 558 999.5 558L1102.5 558C1107.75 558 1112 562.253 1112 567.5L1112 567.5C1112 572.747 1107.75 577 1102.5 577L999.5 577C994.253 577 990 572.747 990 567.5Z"
            fill="#404040" fill-rule="evenodd" />
        <path
            d="M1179 563C1179 560.239 1181.24 558 1184 558L1249 558C1251.76 558 1254 560.239 1254 563L1254 563C1254 565.761 1251.76 568 1249 568L1184 568C1181.24 568 1179 565.761 1179 563Z"
            fill="#BFBFBF" fill-rule="evenodd" />
        <path
            d="M990 591.195C990 588.878 991.878 587 994.195 587L1107.8 587C1110.12 587 1112 588.878 1112 591.195L1112 686.805C1112 689.122 1110.12 691 1107.8 691L994.195 691C991.878 691 990 689.122 990 686.805Z"
            fill="#D9D9D9" fill-rule="evenodd" />
        <path
            d="M1131 589.764C1131 588.237 1132.24 587 1133.76 587L1251.24 587C1252.76 587 1254 588.237 1254 589.764L1254 631.236C1254 632.763 1252.76 634 1251.24 634L1133.76 634C1132.24 634 1131 632.763 1131 631.236Z"
            fill="#D9D9D9" fill-rule="evenodd" />
        <path
            d="M1131 645.823C1131 644.264 1132.26 643 1133.82 643L1251.18 643C1252.74 643 1254 644.264 1254 645.823L1254 688.177C1254 689.736 1252.74 691 1251.18 691L1133.82 691C1132.26 691 1131 689.736 1131 688.177Z"
            fill="#D9D9D9" fill-rule="evenodd" />
        <g>
            <g>
                <g>
                    <path
                        d="M76.375 64.2333 62.9702 42.8679C62.7303 42.4763 62.3033 42.2387 61.8442 42.2412 61.383 42.2411 60.954 42.4777 60.7083 42.8679L56.7917 49.1542 65.1929 62.745C65.9039 63.8201 66.0567 65.1708 65.6042 66.3777L75.1021 66.3777C75.8798 66.4166 76.5419 65.8175 76.5806 65.0398 76.5948 64.7564 76.5231 64.4754 76.375 64.2333Z"
                        fill="#FFFFFF" transform="matrix(1 0 0 1.01064 1004 591)" />
                    <path
                        d="M61.7854 64.3606 40.4885 29.7079C40.2153 29.3549 39.7891 29.1546 39.3429 29.1694L39.1667 29.1694 38.9904 29.1694C38.5442 29.1546 38.1181 29.3549 37.8448 29.7079L16.5479 64.3606C16.2462 64.7827 16.2047 65.3377 16.4402 65.8 16.6778 66.2189 17.1486 66.4485 17.625 66.3777L60.7083 66.3777C61.1847 66.4485 61.6556 66.2189 61.8931 65.8 62.1286 65.3377 62.0871 64.7827 61.7854 64.3606ZM42.7308 45.9425 39.3429 48.9583 35.955 45.9425 30.3542 49.3304 39.1667 35.0444 47.7442 48.9583Z"
                        fill="#FFFFFF" transform="matrix(1 0 0 1.01064 1004 591)" />
                    <path
                        d="M29.375 31.3333C29.375 32.9557 28.0598 34.2708 26.4375 34.2708 24.8152 34.2708 23.5 32.9557 23.5 31.3333 23.5 29.711 24.8152 28.3958 26.4375 28.3958 28.0598 28.3958 29.375 29.711 29.375 31.3333Z"
                        fill="#FFFFFF" transform="matrix(1 0 0 1.01064 1004 591)" />
                    <path
                        d="M13.7083 72.4583 13.7083 23.5 80.2917 23.5 80.2917 72.4583ZM86.1667 78.3333 86.1667 17.625 7.83333 17.625 7.83333 78.3333Z"
                        fill="#FFFFFF" transform="matrix(1 0 0 1.01064 1004 591)" />
                </g>
            </g>
        </g>
    </g>
</svg>