<svg width="322" height="191" xmlns="http://www.w3.org/2000/svg" xmlns:xlink="http://www.w3.org/1999/xlink" overflow="hidden"><g transform="translate(-961 -548)"><rect x="961" y="549" width="322" height="189" fill="#FFFFFF"/><path d="M990 574.091C990 570.727 992.727 568 996.091 568L1247.91 568C1251.27 568 1254 570.727 1254 574.091L1254 712.909C1254 716.273 1251.27 719 1247.91 719L996.091 719C992.727 719 990 716.273 990 712.909Z" fill="#D9D9D9" fill-rule="evenodd"/><path d="M1009 610.5C1009 608.015 1011.01 606 1013.5 606L1032.5 606C1034.99 606 1037 608.015 1037 610.5L1037 610.5C1037 612.985 1034.99 615 1032.5 615L1013.5 615C1011.01 615 1009 612.985 1009 610.5Z" fill="#FFFFFF" fill-rule="evenodd"/><path d="M1009 586.5C1009 581.253 1013.25 577 1018.5 577L1112.5 577C1117.75 577 1122 581.253 1122 586.5L1122 586.5C1122 591.747 1117.75 596 1112.5 596L1018.5 596C1013.25 596 1009 591.747 1009 586.5Z" fill="#404040" fill-rule="evenodd"/><path d="M1046 610.5C1046 608.015 1048.01 606 1050.5 606L1145.5 606C1147.99 606 1150 608.015 1150 610.5L1150 610.5C1150 612.985 1147.99 615 1145.5 615L1050.5 615C1048.01 615 1046 612.985 1046 610.5Z" fill="#FFFFFF" fill-rule="evenodd"/><path d="M1244.74 664.333 1227.8 637.779C1227.5 637.292 1226.96 636.997 1226.38 637 1225.8 637 1225.26 637.294 1224.95 637.779L1220 645.592 1230.61 662.483C1231.51 663.819 1231.7 665.498 1231.13 666.998L1243.13 666.998C1244.11 667.046 1244.95 666.302 1245 665.335 1245.02 664.983 1244.93 664.633 1244.74 664.333Z" fill="#A6A6A6" fill-rule="evenodd"/><path d="M1226.67 664.492 1199.68 621.667C1199.33 621.23 1198.79 620.983 1198.22 621.001L1198 621.001 1197.78 621.001C1197.21 620.983 1196.67 621.23 1196.32 621.667L1169.33 664.492C1168.95 665.013 1168.89 665.699 1169.19 666.27 1169.49 666.788 1170.09 667.072 1170.69 666.984L1225.31 666.984C1225.91 667.072 1226.51 666.788 1226.81 666.27 1227.11 665.699 1227.05 665.013 1226.67 664.492ZM1202.52 641.73 1198.22 645.457 1193.93 641.73 1186.83 645.917 1198 628.261 1208.87 645.457Z" fill="#A6A6A6" fill-rule="evenodd"/><path d="M1186 623.5C1186 625.433 1184.21 627 1182 627 1179.79 627 1178 625.433 1178 623.5 1178 621.567 1179.79 620 1182 620 1184.21 620 1186 621.567 1186 623.5Z" fill="#A6A6A6" fill-rule="evenodd"/><path d="M1009 634C1009 629.029 1013.03 625 1018 625L1047 625C1051.97 625 1056 629.029 1056 634L1056 634C1056 638.971 1051.97 643 1047 643L1018 643C1013.03 643 1009 638.971 1009 634Z" fill="#ABABAB" fill-rule="evenodd"/><path d="M1009 662.5C1009 657.253 1013.25 653 1018.5 653L1046.5 653C1051.75 653 1056 657.253 1056 662.5L1056 662.5C1056 667.747 1051.75 672 1046.5 672L1018.5 672C1013.25 672 1009 667.747 1009 662.5Z" fill="#ABABAB" fill-rule="evenodd"/><path d="M1065 634C1065 629.029 1069.03 625 1074 625L1103 625C1107.97 625 1112 629.029 1112 634L1112 634C1112 638.971 1107.97 643 1103 643L1074 643C1069.03 643 1065 638.971 1065 634Z" fill="#ABABAB" fill-rule="evenodd"/><path d="M1065 662.5C1065 657.253 1069.25 653 1074.5 653L1102.5 653C1107.75 653 1112 657.253 1112 662.5L1112 662.5C1112 667.747 1107.75 672 1102.5 672L1074.5 672C1069.25 672 1065 667.747 1065 662.5Z" fill="#ABABAB" fill-rule="evenodd"/><path d="M1009.5 694.667C1009.5 692.918 1010.92 691.5 1012.67 691.5L1062.33 691.5C1064.08 691.5 1065.5 692.918 1065.5 694.667L1065.5 707.333C1065.5 709.082 1064.08 710.5 1062.33 710.5L1012.67 710.5C1010.92 710.5 1009.5 709.082 1009.5 707.333Z" stroke="#404040" stroke-width="5.33333" stroke-miterlimit="8" fill="#404040" fill-rule="evenodd"/><path d="M1075.5 694.667C1075.5 692.918 1076.92 691.5 1078.67 691.5L1128.33 691.5C1130.08 691.5 1131.5 692.918 1131.5 694.667L1131.5 707.333C1131.5 709.082 1130.08 710.5 1128.33 710.5L1078.67 710.5C1076.92 710.5 1075.5 709.082 1075.5 707.333Z" stroke="#404040" stroke-width="5.33333" stroke-miterlimit="8" fill="none" fill-rule="evenodd"/></g></svg>