<svg width="322" height="191" xmlns="http://www.w3.org/2000/svg"
    xmlns:xlink="http://www.w3.org/1999/xlink" overflow="hidden">
    <g transform="translate(-961 -529)">
        <rect x="961" y="530" width="322" height="189" fill="#FFFFFF" />
        <path
            d="M990 572.559C990 570.041 992.041 568 994.559 568L1249.44 568C1251.96 568 1254 570.041 1254 572.559L1254 676.441C1254 678.959 1251.96 681 1249.44 681L994.559 681C992.041 681 990 678.959 990 676.441Z"
            fill="#D9D9D9" fill-rule="evenodd" />
        <path
            d="M1009 610.5C1009 608.015 1011.01 606 1013.5 606L1079.5 606C1081.99 606 1084 608.015 1084 610.5L1084 610.5C1084 612.985 1081.99 615 1079.5 615L1013.5 615C1011.01 615 1009 612.985 1009 610.5Z"
            fill="#FFFFFF" fill-rule="evenodd" />
        <path
            d="M1009 586.5C1009 581.253 1013.25 577 1018.5 577L1121.5 577C1126.75 577 1131 581.253 1131 586.5L1131 586.5C1131 591.747 1126.75 596 1121.5 596L1018.5 596C1013.25 596 1009 591.747 1009 586.5Z"
            fill="#404040" fill-rule="evenodd" />
        <path
            d="M1009 656.167C1009 654.418 1010.42 653 1012.17 653L1061.83 653C1063.58 653 1065 654.418 1065 656.167L1065 668.833C1065 670.582 1063.58 672 1061.83 672L1012.17 672C1010.42 672 1009 670.582 1009 668.833Z"
            fill="#404040" fill-rule="evenodd" />
        <path
            d="M1094 610.5C1094 608.015 1096.01 606 1098.5 606L1230.5 606C1232.99 606 1235 608.015 1235 610.5L1235 610.5C1235 612.985 1232.99 615 1230.5 615L1098.5 615C1096.01 615 1094 612.985 1094 610.5Z"
            fill="#FFFFFF" fill-rule="evenodd" />
    </g>
</svg>