<svg width="322" height="191" xmlns="http://www.w3.org/2000/svg" xmlns:xlink="http://www.w3.org/1999/xlink" overflow="hidden"><g transform="translate(-961 -548)"><rect x="961" y="549" width="322" height="189" fill="#FFFFFF"/><path d="M990 574.091C990 570.727 992.727 568 996.091 568L1247.91 568C1251.27 568 1254 570.727 1254 574.091L1254 712.909C1254 716.273 1251.27 719 1247.91 719L996.091 719C992.727 719 990 716.273 990 712.909Z" fill="#D9D9D9" fill-rule="evenodd"/><path d="M1065 586.5C1065 581.253 1069.25 577 1074.5 577L1169.5 577C1174.75 577 1179 581.253 1179 586.5L1179 586.5C1179 591.747 1174.75 596 1169.5 596L1074.5 596C1069.25 596 1065 591.747 1065 586.5Z" fill="#404040" fill-rule="evenodd"/><path d="M1046 610.5C1046 608.015 1048.01 606 1050.5 606L1079.5 606C1081.99 606 1084 608.015 1084 610.5L1084 610.5C1084 612.985 1081.99 615 1079.5 615L1050.5 615C1048.01 615 1046 612.985 1046 610.5Z" fill="#FFFFFF" fill-rule="evenodd"/><path d="M1094 610.5C1094 608.015 1096.01 606 1098.5 606L1192.5 606C1194.99 606 1197 608.015 1197 610.5L1197 610.5C1197 612.985 1194.99 615 1192.5 615L1098.5 615C1096.01 615 1094 612.985 1094 610.5Z" fill="#FFFFFF" fill-rule="evenodd"/><path d="M1009 629.999C1009 627.238 1011.24 625 1014 625L1107 625C1109.76 625 1112 627.238 1112 629.999L1112 705.001C1112 707.762 1109.76 710 1107 710L1014 710C1011.24 710 1009 707.762 1009 705.001Z" fill="#FFFFFF" fill-rule="evenodd"/><path d="M1131 629.999C1131 627.238 1133.24 625 1136 625L1230 625C1232.76 625 1235 627.238 1235 629.999L1235 705.001C1235 707.762 1232.76 710 1230 710L1136 710C1133.24 710 1131 707.762 1131 705.001Z" fill="#404040" fill-rule="evenodd"/><path d="M1141.5 684.667C1141.5 682.918 1142.92 681.5 1144.67 681.5L1223.33 681.5C1225.08 681.5 1226.5 682.918 1226.5 684.667L1226.5 697.333C1226.5 699.082 1225.08 700.5 1223.33 700.5L1144.67 700.5C1142.92 700.5 1141.5 699.082 1141.5 697.333Z" stroke="#FFFFFF" stroke-width="5.33333" stroke-miterlimit="8" fill="#FFFFFF" fill-rule="evenodd"/><path d="M1018.5 684.667C1018.5 682.918 1019.92 681.5 1021.67 681.5L1100.33 681.5C1102.08 681.5 1103.5 682.918 1103.5 684.667L1103.5 697.333C1103.5 699.082 1102.08 700.5 1100.33 700.5L1021.67 700.5C1019.92 700.5 1018.5 699.082 1018.5 697.333Z" stroke="#404040" stroke-width="5.33333" stroke-miterlimit="8" fill="none" fill-rule="evenodd"/></g></svg>