<svg width="322" height="191" xmlns="http://www.w3.org/2000/svg" xmlns:xlink="http://www.w3.org/1999/xlink" overflow="hidden"><g transform="translate(-961 -548)"><rect x="961" y="549" width="322" height="189" fill="#FFFFFF"/><path d="M990 591.559C990 589.041 992.041 587 994.559 587L1249.44 587C1251.96 587 1254 589.041 1254 591.559L1254 695.441C1254 697.959 1251.96 700 1249.44 700L994.559 700C992.041 700 990 697.959 990 695.441Z" fill="#D9D9D9" fill-rule="evenodd"/><path d="M1065 615.5C1065 610.253 1069.25 606 1074.5 606L1169.5 606C1174.75 606 1179 610.253 1179 615.5L1179 615.5C1179 620.747 1174.75 625 1169.5 625L1074.5 625C1069.25 625 1065 620.747 1065 615.5Z" fill="#404040" fill-rule="evenodd"/><path d="M1188.5 665.667C1188.5 663.918 1189.92 662.5 1191.67 662.5L1232.33 662.5C1234.08 662.5 1235.5 663.918 1235.5 665.667L1235.5 678.333C1235.5 680.082 1234.08 681.5 1232.33 681.5L1191.67 681.5C1189.92 681.5 1188.5 680.082 1188.5 678.333Z" stroke="#404040" stroke-width="5.33333" stroke-miterlimit="8" fill="#404040" fill-rule="evenodd"/><path d="M1046 638.5C1046 636.015 1048.01 634 1050.5 634L1079.5 634C1081.99 634 1084 636.015 1084 638.5L1084 638.5C1084 640.985 1081.99 643 1079.5 643L1050.5 643C1048.01 643 1046 640.985 1046 638.5Z" fill="#FFFFFF" fill-rule="evenodd"/><path d="M1094 638.5C1094 636.015 1096.01 634 1098.5 634L1192.5 634C1194.99 634 1197 636.015 1197 638.5L1197 638.5C1197 640.985 1194.99 643 1192.5 643L1098.5 643C1096.01 643 1094 640.985 1094 638.5Z" fill="#FFFFFF" fill-rule="evenodd"/><path d="M1009.5 665.667C1009.5 663.918 1010.92 662.5 1012.67 662.5L1176.33 662.5C1178.08 662.5 1179.5 663.918 1179.5 665.667L1179.5 678.333C1179.5 680.082 1178.08 681.5 1176.33 681.5L1012.67 681.5C1010.92 681.5 1009.5 680.082 1009.5 678.333Z" stroke="#404040" stroke-width="5.33333" stroke-miterlimit="8" fill="none" fill-rule="evenodd"/></g></svg>