<svg width="322" height="191" xmlns="http://www.w3.org/2000/svg" overflow="hidden">
  <path fill="#FFF" d="M961 530h322v189H961z" transform="translate(-961 -529)"/>
  <path d="M990 572.559a4.56 4.56 0 0 1 4.559-4.559h254.881c2.52 0 4.56 2.041 4.56 4.559v103.882a4.56 4.56 0 0 1-4.56 4.559H994.559a4.56 4.56 0 0 1-4.559-4.559Z" fill="#D9D9D9" fill-rule="evenodd" transform="translate(-961 -529)"/>
  <path d="M1009 620c0-2.761 2.24-5 5-5h18a5.001 5.001 0 0 1 0 10h-18c-2.76 0-5-2.239-5-5" fill="#FFF" fill-rule="evenodd" transform="translate(-961 -529)"/>
  <path d="M1009 596.5c0-5.247 4.25-9.5 9.5-9.5h94c5.25 0 9.5 4.253 9.5 9.5s-4.25 9.5-9.5 9.5h-94c-5.25 0-9.5-4.253-9.5-9.5" fill="#404040" fill-rule="evenodd" transform="translate(-961 -529)"/>
  <path d="M1009.5 646.667a3.17 3.17 0 0 1 3.17-3.167h40.66c1.75 0 3.17 1.418 3.17 3.167v12.666a3.17 3.17 0 0 1-3.17 3.167h-40.66a3.17 3.17 0 0 1-3.17-3.167Z" stroke="#404040" stroke-width="5.333" stroke-miterlimit="8" fill="#404040" fill-rule="evenodd" transform="translate(-961 -529)"/>
  <path d="M1046 620c0-2.761 2.24-5 5-5h94a5 5 0 0 1 0 10h-94c-2.76 0-5-2.239-5-5" fill="#FFF" fill-rule="evenodd" transform="translate(-961 -529)"/>
  <path d="M1065.5 646.667a3.17 3.17 0 0 1 3.17-3.167h40.66c1.75 0 3.17 1.418 3.17 3.167v12.666a3.17 3.17 0 0 1-3.17 3.167h-40.66a3.17 3.17 0 0 1-3.17-3.167Z" stroke="#404040" stroke-width="5.333" stroke-miterlimit="8" fill="none" transform="translate(-961 -529)"/>
  <path d="M1191.86 583.932c1.48-4.087 6-6.194 10.09-4.707l29.6 10.773a7.873 7.873 0 0 1 4.7 10.092l-23.7 65.112c-1.48 4.087-6 6.194-10.09 4.706l-29.6-10.772a7.874 7.874 0 0 1-4.7-10.092Z" fill="#404040" fill-rule="evenodd" transform="translate(-961 -529)"/>
  <path d="M1186.45 654.028a4.733 4.733 0 0 1 6.06-2.824 4.717 4.717 0 0 1 2.82 6.055 4.72 4.72 0 0 1-6.05 2.824 4.73 4.73 0 0 1-2.83-6.055" fill="#FFF" fill-rule="evenodd" transform="translate(-961 -529)"/>
</svg>
