<svg width="322" height="190" xmlns="http://www.w3.org/2000/svg" overflow="hidden">
  <path fill="#FFF" d="M961 529h322v189H961z" transform="translate(-961 -529)"/>
  <path d="M990 571.599a4.6 4.6 0 0 1 4.599-4.599H1249.4a4.6 4.6 0 0 1 4.6 4.599v104.802a4.6 4.6 0 0 1-4.6 4.599H994.599a4.6 4.6 0 0 1-4.599-4.599Z" fill="#D9D9D9" fill-rule="evenodd" transform="translate(-961 -529)"/>
  <path d="M1009 619c0-2.761 2.24-5 5-5h18a5.001 5.001 0 0 1 0 10h-18c-2.76 0-5-2.239-5-5" fill="#FFF" fill-rule="evenodd" transform="translate(-961 -529)"/>
  <path d="M1009 595.5c0-5.247 4.25-9.5 9.5-9.5h94c5.25 0 9.5 4.253 9.5 9.5s-4.25 9.5-9.5 9.5h-94c-5.25 0-9.5-4.253-9.5-9.5" fill="#404040" fill-rule="evenodd" transform="translate(-961 -529)"/>
  <path d="M1009.5 646.667a3.17 3.17 0 0 1 3.17-3.167h40.66c1.75 0 3.17 1.418 3.17 3.167v12.666a3.17 3.17 0 0 1-3.17 3.167h-40.66a3.17 3.17 0 0 1-3.17-3.167Z" stroke="#404040" stroke-width="5.333" stroke-miterlimit="8" fill="#404040" fill-rule="evenodd" transform="translate(-961 -529)"/>
  <path d="M1046 619c0-2.761 2.24-5 5-5h94a5 5 0 0 1 0 10h-94c-2.76 0-5-2.239-5-5" fill="#FFF" fill-rule="evenodd" transform="translate(-961 -529)"/>
  <path d="m1244.74 668.333-16.94-26.554c-.3-.487-.84-.782-1.42-.779-.58 0-1.12.294-1.43.779l-4.95 7.813 10.61 16.891a4.93 4.93 0 0 1 .52 4.515h12c.98.048 1.82-.696 1.87-1.663.02-.352-.07-.702-.26-1.002m-19.06.104-26.53-43.756a1.72 1.72 0 0 0-1.43-.68h-.44a1.72 1.72 0 0 0-1.43.68l-26.53 43.756a1.8 1.8 0 0 0-.13 1.818c.29.528.88.818 1.47.729h53.68c.59.089 1.18-.201 1.47-.729.29-.584.24-1.285-.13-1.818m-23.74-23.257-4.22 3.809-4.22-3.809-6.98 4.278 10.98-18.039 10.69 17.57ZM1186 627a4 4 0 1 1-8 0 4 4 0 0 1 8 0" fill="#A6A6A6" fill-rule="evenodd" transform="translate(-961 -529)"/>
</svg>
