<svg width="322" height="191" xmlns="http://www.w3.org/2000/svg" overflow="hidden">
  <path fill="#FFF" d="M961 531h322v189H961z" transform="translate(-961 -530)"/>
  <path d="M1056 573c0-2.761 2.24-5 5-5h28a5.001 5.001 0 0 1 0 10h-28c-2.76 0-5-2.239-5-5m-66 0a5 5 0 0 1 5-5h46a5.001 5.001 0 0 1 0 10h-46a5 5 0 0 1-5-5" fill="#BFBFBF" fill-rule="evenodd" transform="translate(-961 -530)"/>
  <path d="M990 554.5a4.5 4.5 0 0 1 4.5-4.5h76c2.49 0 4.5 2.015 4.5 4.5s-2.01 4.5-4.5 4.5h-76a4.5 4.5 0 0 1-4.5-4.5" fill="#404040" fill-rule="evenodd" transform="translate(-961 -530)"/>
  <path d="M1103 573c0-2.761 2.24-5 5-5h37a5.001 5.001 0 0 1 0 10h-37c-2.76 0-5-2.239-5-5m-113 19a5 5 0 0 1 5-5h84a5.001 5.001 0 0 1 0 10h-84a5 5 0 0 1-5-5" fill="#BFBFBF" fill-rule="evenodd" transform="translate(-961 -530)"/>
  <path d="M990 609.167a3.167 3.167 0 0 1 3.167-3.167h49.663c1.75 0 3.17 1.418 3.17 3.167v12.666a3.17 3.17 0 0 1-3.17 3.167h-49.663a3.167 3.167 0 0 1-3.167-3.167Z" fill="#404040" fill-rule="evenodd" transform="translate(-961 -530)"/>
  <path d="M1179 658c0-2.761 2.24-5 5-5h8a5.001 5.001 0 0 1 0 10h-8c-2.76 0-5-2.239-5-5m-85 0c0-2.761 2.24-5 5-5h65a5.001 5.001 0 0 1 0 10h-65c-2.76 0-5-2.239-5-5" fill="#BFBFBF" fill-rule="evenodd" transform="translate(-961 -530)"/>
  <path d="M1094 639.5c0-2.485 2.01-4.5 4.5-4.5h38c2.49 0 4.5 2.015 4.5 4.5s-2.01 4.5-4.5 4.5h-38c-2.49 0-4.5-2.015-4.5-4.5" fill="#404040" fill-rule="evenodd" transform="translate(-961 -530)"/>
  <path d="M1207 658c0-2.761 2.24-5 5-5h37a5.001 5.001 0 0 1 0 10h-37c-2.76 0-5-2.239-5-5m-113 19c0-2.761 2.24-5 5-5h37a5.001 5.001 0 0 1 0 10h-37c-2.76 0-5-2.239-5-5" fill="#BFBFBF" fill-rule="evenodd" transform="translate(-961 -530)"/>
  <path d="M1094 694.167a3.17 3.17 0 0 1 3.17-3.167h49.66c1.75 0 3.17 1.418 3.17 3.167v12.666a3.17 3.17 0 0 1-3.17 3.167h-49.66a3.17 3.17 0 0 1-3.17-3.167Z" fill="#2564EB" fill-rule="evenodd" transform="translate(-961 -530)"/>
  <path d="m1253.74 622.333-16.94-26.554c-.3-.487-.84-.782-1.42-.779-.58 0-1.12.294-1.43.779l-4.95 7.813 10.61 16.891a4.93 4.93 0 0 1 .52 4.515h12c.98.048 1.82-.696 1.87-1.663.02-.352-.07-.702-.26-1.002m-18.06.104-26.53-43.756a1.72 1.72 0 0 0-1.43-.68h-.44a1.72 1.72 0 0 0-1.43.68l-26.53 43.756a1.8 1.8 0 0 0-.13 1.818c.29.528.88.818 1.47.729h53.68c.59.089 1.18-.201 1.47-.729.29-.584.24-1.285-.13-1.818m-23.74-23.257-4.22 3.809-4.22-3.809-6.98 4.278 10.98-18.039 10.69 17.57ZM1195 581c0 2.209-1.57 4-3.5 4s-3.5-1.791-3.5-4 1.57-4 3.5-4 3.5 1.791 3.5 4m-130.26 127.244-16.94-27.439c-.3-.503-.84-.808-1.42-.805-.58 0-1.12.304-1.43.805l-4.95 8.073 10.61 17.454a5.24 5.24 0 0 1 .52 4.666h12c.98.05 1.82-.72 1.87-1.719.02-.363-.07-.724-.26-1.035m-18.06.193-26.53-43.756a1.72 1.72 0 0 0-1.43-.68h-.44a1.72 1.72 0 0 0-1.43.68l-26.527 43.756a1.77 1.77 0 0 0-.134 1.818c.296.528.882.818 1.476.729h53.675c.59.089 1.18-.201 1.47-.729.29-.584.24-1.285-.13-1.818m-23.74-23.257-4.22 3.809-4.22-3.809-6.98 4.278 10.98-18.039 10.69 17.57ZM1006 666.5c0 1.933-1.57 3.5-3.5 3.5s-3.5-1.567-3.5-3.5 1.57-3.5 3.5-3.5 3.5 1.567 3.5 3.5" fill="#404040" fill-rule="evenodd" transform="translate(-961 -530)"/>
</svg>
