<svg width="323" height="191" xmlns="http://www.w3.org/2000/svg" overflow="hidden">
  <path fill="#FFF" d="M959 531h321v189H959z" transform="translate(-958 -530)"/>
  <path d="M1015 549.5c0-5.247 4.25-9.5 9.5-9.5h123c5.25 0 9.5 4.253 9.5 9.5s-4.25 9.5-9.5 9.5h-123c-5.25 0-9.5-4.253-9.5-9.5" fill="#404040" fill-rule="evenodd" transform="translate(-958 -530)"/>
  <path d="M1015 573.5c0-2.485 2.01-4.5 4.5-4.5h58c2.49 0 4.5 2.015 4.5 4.5s-2.01 4.5-4.5 4.5h-58c-2.49 0-4.5-2.015-4.5-4.5m76 0c0-2.485 2.01-4.5 4.5-4.5h123c2.49 0 4.5 2.015 4.5 4.5s-2.01 4.5-4.5 4.5h-123c-2.49 0-4.5-2.015-4.5-4.5" fill="#BFBFBF" fill-rule="evenodd" transform="translate(-958 -530)"/>
  <path d="M987 593.032a5.03 5.03 0 0 1 5.032-5.032h254.938a5.03 5.03 0 0 1 5.03 5.032v27.936a5.03 5.03 0 0 1-5.03 5.032H992.032a5.03 5.03 0 0 1-5.032-5.032Z" fill="#D9D9D9" fill-rule="evenodd" transform="translate(-958 -530)"/>
  <path d="M1223 600.167a3.17 3.17 0 0 1 3.17-3.167h12.66c1.75 0 3.17 1.418 3.17 3.167v12.666a3.17 3.17 0 0 1-3.17 3.167h-12.66a3.17 3.17 0 0 1-3.17-3.167Z" fill="#2564EB" fill-rule="evenodd" transform="translate(-958 -530)"/>
  <path d="M997 606.5a4.5 4.5 0 0 1 4.5-4.5h123c2.49 0 4.5 2.015 4.5 4.5s-2.01 4.5-4.5 4.5h-123a4.5 4.5 0 0 1-4.5-4.5" fill="#404040" fill-rule="evenodd" transform="translate(-958 -530)"/>
  <path d="m1237 604-4.5 5-4.5-5Z" fill="#FFF" fill-rule="evenodd" transform="translate(-958 -530)"/>
  <path d="M987 640.771a5.77 5.77 0 0 1 5.771-5.771h253.459c3.19 0 5.77 2.584 5.77 5.771v64.458a5.77 5.77 0 0 1-5.77 5.771H992.771a5.77 5.77 0 0 1-5.771-5.771Z" fill="#D9D9D9" fill-rule="evenodd" transform="translate(-958 -530)"/>
  <path d="M1223 647.167a3.17 3.17 0 0 1 3.17-3.167h12.66c1.75 0 3.17 1.418 3.17 3.167v12.666a3.17 3.17 0 0 1-3.17 3.167h-12.66a3.17 3.17 0 0 1-3.17-3.167Z" fill="#2564EB" fill-rule="evenodd" transform="translate(-958 -530)"/>
  <path d="M997 654a5 5 0 0 1 5-5h122a5.001 5.001 0 0 1 0 10h-122a5 5 0 0 1-5-5" fill="#404040" fill-rule="evenodd" transform="translate(-958 -530)"/>
  <path d="m1228 656 4.5-5 4.5 5Z" fill="#FFF" fill-rule="evenodd" transform="translate(-958 -530)"/>
  <path d="M997 677.5a4.5 4.5 0 0 1 4.5-4.5h66c2.49 0 4.5 2.015 4.5 4.5s-2.01 4.5-4.5 4.5h-66a4.5 4.5 0 0 1-4.5-4.5m85 0c0-2.485 2.01-4.5 4.5-4.5h151c2.49 0 4.5 2.015 4.5 4.5s-2.01 4.5-4.5 4.5h-151c-2.49 0-4.5-2.015-4.5-4.5m-48 19c0-2.485 2.01-4.5 4.5-4.5h86c2.49 0 4.5 2.015 4.5 4.5s-2.01 4.5-4.5 4.5h-86c-2.49 0-4.5-2.015-4.5-4.5m-37 0a4.5 4.5 0 0 1 4.5-4.5h19c2.49 0 4.5 2.015 4.5 4.5s-2.01 4.5-4.5 4.5h-19a4.5 4.5 0 0 1-4.5-4.5" fill="#404040" fill-rule="evenodd" transform="translate(-958 -530)"/>
</svg>
