<svg width="322" height="191" xmlns="http://www.w3.org/2000/svg" overflow="hidden">
  <path fill="#FFF" d="M961 530h322v189H961z" transform="translate(-961 -529)"/>
  <path d="M990 602.704a6.705 6.705 0 0 1 6.704-6.704H1247.3c3.7 0 6.7 3.002 6.7 6.704v100.592c0 3.702-3 6.704-6.7 6.704H996.704a6.705 6.705 0 0 1-6.704-6.704Z" fill="#BFBFBF" fill-rule="evenodd" transform="translate(-961 -529)"/>
  <path d="M1018 582c0-2.761 2.24-5 5-5h66a5.001 5.001 0 0 1 0 10h-66c-2.76 0-5-2.239-5-5m57-23.5c0-5.247 4.25-9.5 9.5-9.5h75c5.25 0 9.5 4.253 9.5 9.5s-4.25 9.5-9.5 9.5h-75c-5.25 0-9.5-4.253-9.5-9.5M990 582a5 5 0 0 1 5-5h9a5.001 5.001 0 0 1 0 10h-9a5 5 0 0 1-5-5" fill="#404040" fill-rule="evenodd" transform="translate(-961 -529)"/>
  <path d="M1235 582c0-2.761 2.24-5 5-5h9a5.001 5.001 0 0 1 0 10h-9c-2.76 0-5-2.239-5-5" fill="#BFBFBF" fill-rule="evenodd" transform="translate(-961 -529)"/>
  <path d="m1178.6 686.91-25.74-40.716a2.52 2.52 0 0 0-2.16-1.194c-.88 0-1.71.451-2.18 1.194l-7.52 11.98 16.13 25.9a7.6 7.6 0 0 1 .79 6.923h18.24a2.706 2.706 0 0 0 2.84-2.55c.02-.54-.11-1.076-.4-1.537m-28.09.273-40.03-65.169a2.6 2.6 0 0 0-2.15-1.013h-.66a2.6 2.6 0 0 0-2.15 1.013l-40.03 65.169a2.62 2.62 0 0 0-.21 2.707 2.2 2.2 0 0 0 2.23 1.086h80.98c.89.133 1.78-.299 2.23-1.086.44-.87.36-1.913-.21-2.707m-35.81-34.638-6.37 5.672-6.37-5.672-10.52 6.372L1108 632.05l16.12 26.167ZM1090 624.5c0 3.038-2.46 5.5-5.5 5.5s-5.5-2.462-5.5-5.5 2.46-5.5 5.5-5.5 5.5 2.462 5.5 5.5" fill="#FFF" fill-rule="evenodd" transform="translate(-961 -529)"/>
  <path d="M1150 582c0-2.761 2.24-5 5-5h66a5.001 5.001 0 0 1 0 10h-66c-2.76 0-5-2.239-5-5" fill="#BFBFBF" fill-rule="evenodd" transform="translate(-961 -529)"/>
</svg>
