<svg width="322" height="191" xmlns="http://www.w3.org/2000/svg" xmlns:xlink="http://www.w3.org/1999/xlink" overflow="hidden"><g transform="translate(-961 -548)"><rect x="961" y="549" width="322" height="189" fill="#FFFFFF"/><path d="M990 573.325C990 570.384 992.384 568 995.325 568L1116.68 568C1119.62 568 1122 570.384 1122 573.325L1122 713.675C1122 716.616 1119.62 719 1116.68 719L995.325 719C992.384 719 990 716.616 990 713.675Z" fill="#D9D9D9" fill-rule="evenodd"/><path d="M1131 605.5C1131 600.253 1135.25 596 1140.5 596L1225.5 596C1230.75 596 1235 600.253 1235 605.5L1235 605.5C1235 610.747 1230.75 615 1225.5 615L1140.5 615C1135.25 615 1131 610.747 1131 605.5Z" fill="#404040" fill-rule="evenodd"/><path d="M1131 678.381C1131 674.857 1133.86 672 1137.38 672L1247.62 672C1251.14 672 1254 674.857 1254 678.381L1254 703.619C1254 707.143 1251.14 710 1247.62 710L1137.38 710C1133.86 710 1131 707.143 1131 703.619Z" fill="#D9D9D9" fill-rule="evenodd"/><path d="M1131 631.213C1131 627.782 1133.78 625 1137.21 625L1247.79 625C1251.22 625 1254 627.782 1254 631.213L1254 655.787C1254 659.218 1251.22 662 1247.79 662L1137.21 662C1133.78 662 1131 659.218 1131 655.787Z" fill="#ABABAB" fill-rule="evenodd"/><path d="M1131 582C1131 579.239 1133.24 577 1136 577L1164 577C1166.76 577 1169 579.239 1169 582L1169 582C1169 584.761 1166.76 587 1164 587L1136 587C1133.24 587 1131 584.761 1131 582Z" fill="#ABABAB" fill-rule="evenodd"/><path d="M1102.68 669.621 1081.68 635.987C1081.3 635.37 1080.63 634.996 1079.91 635 1079.19 635 1078.52 635.372 1078.14 635.987L1072 645.883 1085.16 667.278C1086.27 668.971 1086.51 671.097 1085.8 672.997L1100.68 672.997C1101.9 673.058 1102.94 672.115 1103 670.891 1103.02 670.445 1102.91 670.002 1102.68 669.621Z" fill="#A6A6A6" fill-rule="evenodd"/><path d="M1079.6 669.837 1046.55 615.84C1046.13 615.29 1045.47 614.978 1044.77 615.001L1044.5 615.001 1044.23 615.001C1043.53 614.978 1042.87 615.29 1042.45 615.84L1009.4 669.837C1008.93 670.495 1008.87 671.36 1009.24 672.08 1009.6 672.733 1010.33 673.091 1011.07 672.98L1077.93 672.98C1078.67 673.091 1079.4 672.733 1079.77 672.08 1080.13 671.36 1080.07 670.495 1079.6 669.837ZM1050.03 641.138 1044.77 645.837 1039.52 641.138 1030.83 646.417 1044.5 624.156 1057.81 645.837Z" fill="#A6A6A6" fill-rule="evenodd"/><path d="M1029 618.5C1029 620.985 1026.99 623 1024.5 623 1022.01 623 1020 620.985 1020 618.5 1020 616.015 1022.01 614 1024.5 614 1026.99 614 1029 616.015 1029 618.5Z" fill="#A6A6A6" fill-rule="evenodd"/></g></svg>