<svg width="322" height="191" xmlns="http://www.w3.org/2000/svg" overflow="hidden">
  <path fill="#FFF" d="M961 530h322v189H961z" transform="translate(-961 -529)"/>
  <path d="M990 558.5a9.5 9.5 0 0 1 9.5-9.5h75c5.25 0 9.5 4.253 9.5 9.5s-4.25 9.5-9.5 9.5h-75a9.5 9.5 0 0 1-9.5-9.5" fill="#404040" fill-rule="evenodd" transform="translate(-961 -529)"/>
  <path d="M1075 582c0-2.761 2.24-5 5-5h9a5.001 5.001 0 0 1 0 10h-9c-2.76 0-5-2.239-5-5m-85 0a5 5 0 0 1 5-5h65a5.001 5.001 0 0 1 0 10h-65a5 5 0 0 1-5-5" fill="#BFBFBF" fill-rule="evenodd" transform="translate(-961 -529)"/>
  <path d="M1018.48 606h75.04c5.24 0 9.48 4.243 9.48 9.477V719h-94V615.477a9.476 9.476 0 0 1 9.48-9.477" fill="#D9D9D9" fill-rule="evenodd" transform="translate(-961 -529)"/>
  <path d="M1042 620c0-2.761 2.24-5 5-5h18a5.001 5.001 0 0 1 0 10h-18c-2.76 0-5-2.239-5-5" fill="#FFF" fill-rule="evenodd" transform="translate(-961 -529)"/>
  <path d="M1131 624.5c0-5.247 4.25-9.5 9.5-9.5s9.5 4.253 9.5 9.5-4.25 9.5-9.5 9.5-9.5-4.253-9.5-9.5" fill="#2564EB" fill-rule="evenodd" transform="translate(-961 -529)"/>
  <path d="M1131 643.5c0-2.485 2.01-4.5 4.5-4.5h39c2.49 0 4.5 2.015 4.5 4.5s-2.01 4.5-4.5 4.5h-39c-2.49 0-4.5-2.015-4.5-4.5" fill="#404040" fill-rule="evenodd" transform="translate(-961 -529)"/>
  <path d="M1131 657.5c0-2.485 2.01-4.5 4.5-4.5h86c2.49 0 4.5 2.015 4.5 4.5s-2.01 4.5-4.5 4.5h-86c-2.49 0-4.5-2.015-4.5-4.5" fill="#D9D9D9" fill-rule="evenodd" transform="translate(-961 -529)"/>
  <path d="M1122.5 613.795c0-4.029 3.27-7.295 7.29-7.295h98.42c4.02 0 7.29 3.266 7.29 7.295v51.41c0 4.029-3.27 7.295-7.29 7.295h-98.42c-4.02 0-7.29-3.266-7.29-7.295Z" stroke="#2564EB" stroke-width="5.333" stroke-miterlimit="8" fill="none" transform="translate(-961 -529)"/>
  <path d="M1103 582c0-2.761 2.24-5 5-5h66a5.001 5.001 0 0 1 0 10h-66c-2.76 0-5-2.239-5-5" fill="#BFBFBF" fill-rule="evenodd" transform="translate(-961 -529)"/>
</svg>
