<svg width="322" height="191" xmlns="http://www.w3.org/2000/svg" overflow="hidden">
  <path fill="#FFF" d="M961 531h322v189H961z" transform="translate(-961 -530)"/>
  <path d="M1076.49 588h91.02c6.34 0 11.49 5.146 11.49 11.493V720h-114V599.493c0-6.347 5.15-11.493 11.49-11.493" fill="#D9D9D9" fill-rule="evenodd" transform="translate(-961 -530)"/>
  <path d="M990 559.5a9.5 9.5 0 0 1 9.5-9.5h75c5.25 0 9.5 4.253 9.5 9.5s-4.25 9.5-9.5 9.5h-75a9.5 9.5 0 0 1-9.5-9.5" fill="#404040" fill-rule="evenodd" transform="translate(-961 -530)"/>
  <path d="M1235 558c0-2.761 2.24-5 5-5h9a5.001 5.001 0 0 1 0 10h-9c-2.76 0-5-2.239-5-5m-85 0c0-2.761 2.24-5 5-5h66a5.001 5.001 0 0 1 0 10h-66c-2.76 0-5-2.239-5-5" fill="#BFBFBF" fill-rule="evenodd" transform="translate(-961 -530)"/>
  <path d="M1108 602c0-2.761 2.24-5 5-5h18a5.001 5.001 0 0 1 0 10h-18c-2.76 0-5-2.239-5-5" fill="#FFF" fill-rule="evenodd" transform="translate(-961 -530)"/>
  <path d="M1037 625.5c0-5.247 4.25-9.5 9.5-9.5s9.5 4.253 9.5 9.5-4.25 9.5-9.5 9.5-9.5-4.253-9.5-9.5" fill="#2564EB" fill-rule="evenodd" transform="translate(-961 -530)"/>
  <path d="M999 621c0-2.761 2.24-5 5-5h18a5.001 5.001 0 0 1 0 10h-18c-2.76 0-5-2.239-5-5" fill="#404040" fill-rule="evenodd" transform="translate(-961 -530)"/>
  <path d="M990 635a5 5 0 0 1 5-5h27a5.001 5.001 0 0 1 0 10h-27a5 5 0 0 1-5-5" fill="#D9D9D9" fill-rule="evenodd" transform="translate(-961 -530)"/>
  <path d="M1037 682.5c0-5.247 4.25-9.5 9.5-9.5s9.5 4.253 9.5 9.5-4.25 9.5-9.5 9.5-9.5-4.253-9.5-9.5" fill="#2564EB" fill-rule="evenodd" transform="translate(-961 -530)"/>
  <path d="M999 677.5c0-2.485 2.01-4.5 4.5-4.5h19c2.49 0 4.5 2.015 4.5 4.5s-2.01 4.5-4.5 4.5h-19c-2.49 0-4.5-2.015-4.5-4.5" fill="#404040" fill-rule="evenodd" transform="translate(-961 -530)"/>
  <path d="M990 691.5a4.5 4.5 0 0 1 4.5-4.5h28c2.49 0 4.5 2.015 4.5 4.5s-2.01 4.5-4.5 4.5h-28a4.5 4.5 0 0 1-4.5-4.5" fill="#D9D9D9" fill-rule="evenodd" transform="translate(-961 -530)"/>
  <path d="M1188 625.5c0-5.247 4.25-9.5 9.5-9.5s9.5 4.253 9.5 9.5-4.25 9.5-9.5 9.5-9.5-4.253-9.5-9.5" fill="#2564EB" fill-rule="evenodd" transform="translate(-961 -530)"/>
  <path d="M1216 621c0-2.761 2.24-5 5-5h19a5.001 5.001 0 0 1 0 10h-19c-2.76 0-5-2.239-5-5" fill="#404040" fill-rule="evenodd" transform="translate(-961 -530)"/>
  <path d="M1216 635c0-2.761 2.24-5 5-5h28a5.001 5.001 0 0 1 0 10h-28c-2.76 0-5-2.239-5-5" fill="#D9D9D9" fill-rule="evenodd" transform="translate(-961 -530)"/>
  <path d="M1188 682.5c0-5.247 4.25-9.5 9.5-9.5s9.5 4.253 9.5 9.5-4.25 9.5-9.5 9.5-9.5-4.253-9.5-9.5" fill="#2564EB" fill-rule="evenodd" transform="translate(-961 -530)"/>
  <path d="M1216 677.5c0-2.485 2.01-4.5 4.5-4.5h20c2.49 0 4.5 2.015 4.5 4.5s-2.01 4.5-4.5 4.5h-20c-2.49 0-4.5-2.015-4.5-4.5" fill="#404040" fill-rule="evenodd" transform="translate(-961 -530)"/>
  <path d="M1216 691.5c0-2.485 2.01-4.5 4.5-4.5h29c2.49 0 4.5 2.015 4.5 4.5s-2.01 4.5-4.5 4.5h-29c-2.49 0-4.5-2.015-4.5-4.5" fill="#D9D9D9" fill-rule="evenodd" transform="translate(-961 -530)"/>
</svg>
