<svg width="322" height="191" xmlns="http://www.w3.org/2000/svg"
    xmlns:xlink="http://www.w3.org/1999/xlink" overflow="hidden">
    <g transform="translate(-961 -529)">
        <rect x="961" y="530" width="322" height="189" fill="#FFFFFF" />
        <path
            d="M990 624.5C990 619.253 994.253 615 999.5 615L999.5 615C1004.75 615 1009 619.253 1009 624.5L1009 624.5C1009 629.747 1004.75 634 999.5 634L999.5 634C994.253 634 990 629.747 990 624.5Z"
            fill="#BFBFBF" fill-rule="evenodd" />
        <path
            d="M1018 624.5C1018 619.253 1022.25 615 1027.5 615L1027.5 615C1032.75 615 1037 619.253 1037 624.5L1037 624.5C1037 629.747 1032.75 634 1027.5 634L1027.5 634C1022.25 634 1018 629.747 1018 624.5Z"
            fill="#BFBFBF" fill-rule="evenodd" />
        <path
            d="M1046 624.5C1046 619.253 1050.25 615 1055.5 615L1055.5 615C1060.75 615 1065 619.253 1065 624.5L1065 624.5C1065 629.747 1060.75 634 1055.5 634L1055.5 634C1050.25 634 1046 629.747 1046 624.5Z"
            fill="#BFBFBF" fill-rule="evenodd" />
        <path
            d="M1141 624.5C1141 622.015 1143.01 620 1145.5 620L1249.5 620C1251.99 620 1254 622.015 1254 624.5L1254 624.5C1254 626.985 1251.99 629 1249.5 629L1145.5 629C1143.01 629 1141 626.985 1141 624.5Z"
            fill="#404040" fill-rule="evenodd" />
        <path
            d="M1075 624.5C1075 619.253 1079.25 615 1084.5 615L1084.5 615C1089.75 615 1094 619.253 1094 624.5L1094 624.5C1094 629.747 1089.75 634 1084.5 634L1084.5 634C1079.25 634 1075 629.747 1075 624.5Z"
            fill="#BFBFBF" fill-rule="evenodd" />
    </g>
</svg>