<svg width="322" height="191" xmlns="http://www.w3.org/2000/svg" overflow="hidden">
  <path fill="#FFF" d="M961 530h322v189H961z" transform="translate(-961 -529)"/>
  <path d="M990 662.5a9.5 9.5 0 0 1 9.5-9.5c5.25 0 9.5 4.253 9.5 9.5s-4.25 9.5-9.5 9.5a9.5 9.5 0 0 1-9.5-9.5m28 0c0-5.247 4.25-9.5 9.5-9.5s9.5 4.253 9.5 9.5-4.25 9.5-9.5 9.5-9.5-4.253-9.5-9.5m28 0c0-5.247 4.25-9.5 9.5-9.5s9.5 4.253 9.5 9.5-4.25 9.5-9.5 9.5-9.5-4.253-9.5-9.5" fill="#BFBFBF" fill-rule="evenodd" transform="translate(-961 -529)"/>
  <path d="M1141 662.5c0-2.485 2.01-4.5 4.5-4.5h104c2.49 0 4.5 2.015 4.5 4.5s-2.01 4.5-4.5 4.5h-104c-2.49 0-4.5-2.015-4.5-4.5" fill="#404040" fill-rule="evenodd" transform="translate(-961 -529)"/>
  <path d="M1075 662.5c0-5.247 4.25-9.5 9.5-9.5s9.5 4.253 9.5 9.5-4.25 9.5-9.5 9.5-9.5-4.253-9.5-9.5" fill="#BFBFBF" fill-rule="evenodd" transform="translate(-961 -529)"/>
  <path d="M990 586.5a9.5 9.5 0 0 1 9.5-9.5h37c5.25 0 9.5 4.253 9.5 9.5s-4.25 9.5-9.5 9.5h-37a9.5 9.5 0 0 1-9.5-9.5" fill="#404040" fill-rule="evenodd" transform="translate(-961 -529)"/>
  <path d="M990 610.5a4.5 4.5 0 0 1 4.5-4.5h66c2.49 0 4.5 2.015 4.5 4.5s-2.01 4.5-4.5 4.5h-66a4.5 4.5 0 0 1-4.5-4.5" fill="#ABABAB" fill-rule="evenodd" transform="translate(-961 -529)"/>
  <path d="M1084 582c0-2.761 2.24-5 5-5h66a5.001 5.001 0 0 1 0 10h-66c-2.76 0-5-2.239-5-5" fill="#404040" fill-rule="evenodd" transform="translate(-961 -529)"/>
  <path d="M1084 601c0-2.761 2.24-5 5-5h56a5.001 5.001 0 0 1 0 10h-56c-2.76 0-5-2.239-5-5m0 19c0-2.761 2.24-5 5-5h47a5.001 5.001 0 0 1 0 10h-47c-2.76 0-5-2.239-5-5" fill="#ABABAB" fill-rule="evenodd" transform="translate(-961 -529)"/>
  <path d="M1179 582c0-2.761 2.24-5 5-5h37a5.001 5.001 0 0 1 0 10h-37c-2.76 0-5-2.239-5-5" fill="#404040" fill-rule="evenodd" transform="translate(-961 -529)"/>
  <path d="M1179 601c0-2.761 2.24-5 5-5h18a5.001 5.001 0 0 1 0 10h-18c-2.76 0-5-2.239-5-5m0 19c0-2.761 2.24-5 5-5h46a5.001 5.001 0 0 1 0 10h-46c-2.76 0-5-2.239-5-5" fill="#ABABAB" fill-rule="evenodd" transform="translate(-961 -529)"/>
  <path d="M1235 582c0-2.761 2.24-5 5-5h9a5.001 5.001 0 0 1 0 10h-9c-2.76 0-5-2.239-5-5" fill="#404040" fill-rule="evenodd" transform="translate(-961 -529)"/>
</svg>
