<svg width="322" height="191" xmlns="http://www.w3.org/2000/svg" overflow="hidden">
  <path fill="#FFF" d="M961 530h322v189H961z" transform="translate(-961 -529)"/>
  <path d="M971 546.822a7.82 7.82 0 0 1 7.822-7.822h286.358a7.82 7.82 0 0 1 7.82 7.822v117.356a7.82 7.82 0 0 1-7.82 7.822H978.822a7.82 7.82 0 0 1-7.822-7.822Z" fill="#BFBFBF" fill-rule="evenodd" transform="translate(-961 -529)"/>
  <path d="M1084 591.5c0-2.485 2.01-4.5 4.5-4.5h67c2.49 0 4.5 2.015 4.5 4.5s-2.01 4.5-4.5 4.5h-67c-2.49 0-4.5-2.015-4.5-4.5m-9-24c0-5.247 4.25-9.5 9.5-9.5h75c5.25 0 9.5 4.253 9.5 9.5s-4.25 9.5-9.5 9.5h-75c-5.25 0-9.5-4.253-9.5-9.5m-19 24c0-2.485 2.01-4.5 4.5-4.5h10c2.49 0 4.5 2.015 4.5 4.5s-2.01 4.5-4.5 4.5h-10c-2.49 0-4.5-2.015-4.5-4.5m113 0c0-2.485 2.01-4.5 4.5-4.5h10c2.49 0 4.5 2.015 4.5 4.5s-2.01 4.5-4.5 4.5h-10c-2.49 0-4.5-2.015-4.5-4.5m-75 19c0-2.485 2.01-4.5 4.5-4.5h47c2.49 0 4.5 2.015 4.5 4.5s-2.01 4.5-4.5 4.5h-47c-2.49 0-4.5-2.015-4.5-4.5m-48 0c0-2.485 2.01-4.5 4.5-4.5h29c2.49 0 4.5 2.015 4.5 4.5s-2.01 4.5-4.5 4.5h-29c-2.49 0-4.5-2.015-4.5-4.5m114 0c0-2.485 2.01-4.5 4.5-4.5h28c2.49 0 4.5 2.015 4.5 4.5s-2.01 4.5-4.5 4.5h-28c-2.49 0-4.5-2.015-4.5-4.5" fill="#404040" fill-rule="evenodd" transform="translate(-961 -529)"/>
  <path d="M1094 637.167a3.17 3.17 0 0 1 3.17-3.167h49.66c1.75 0 3.17 1.418 3.17 3.167v12.666a3.17 3.17 0 0 1-3.17 3.167h-49.66a3.17 3.17 0 0 1-3.17-3.167Z" fill="#2564EB" fill-rule="evenodd" transform="translate(-961 -529)"/>
</svg>
