<svg width="322" height="191" xmlns="http://www.w3.org/2000/svg" xmlns:xlink="http://www.w3.org/1999/xlink" overflow="hidden"><g transform="translate(-961 -548)"><rect x="961" y="549" width="322" height="189" fill="#FFFFFF"/><path d="M1131 584.876C1131 580.526 1134.53 577 1138.88 577L1180.12 577C1184.47 577 1188 580.526 1188 584.876L1188 626.124C1188 630.474 1184.47 634 1180.12 634L1138.88 634C1134.53 634 1131 630.474 1131 626.124Z" fill="#D9D9D9" fill-rule="evenodd"/><path d="M990 605.5C990 600.253 994.253 596 999.5 596L1084.5 596C1089.75 596 1094 600.253 1094 605.5L1094 605.5C1094 610.747 1089.75 615 1084.5 615L999.5 615C994.253 615 990 610.747 990 605.5Z" fill="#404040" fill-rule="evenodd"/><path d="M990 629.5C990 627.015 992.015 625 994.5 625L1107.5 625C1109.99 625 1112 627.015 1112 629.5L1112 629.5C1112 631.985 1109.99 634 1107.5 634L994.5 634C992.015 634 990 631.985 990 629.5Z" fill="#ABABAB" fill-rule="evenodd"/><path d="M990 648C990 645.239 992.239 643 995 643L1041 643C1043.76 643 1046 645.239 1046 648L1046 648C1046 650.761 1043.76 653 1041 653L995 653C992.239 653 990 650.761 990 648Z" fill="#ABABAB" fill-rule="evenodd"/><path d="M990 675.167C990 673.418 991.418 672 993.167 672L1033.83 672C1035.58 672 1037 673.418 1037 675.167L1037 687.833C1037 689.582 1035.58 691 1033.83 691L993.167 691C991.418 691 990 689.582 990 687.833Z" fill="#404040" fill-rule="evenodd"/><path d="M1197 594.738C1197 590.464 1200.46 587 1204.74 587L1246.26 587C1250.54 587 1254 590.464 1254 594.738L1254 635.262C1254 639.536 1250.54 643 1246.26 643L1204.74 643C1200.46 643 1197 639.536 1197 635.262Z" fill="#D9D9D9" fill-rule="evenodd"/><path d="M1197 660.876C1197 656.526 1200.53 653 1204.88 653L1246.12 653C1250.47 653 1254 656.526 1254 660.876L1254 702.124C1254 706.474 1250.47 710 1246.12 710L1204.88 710C1200.53 710 1197 706.474 1197 702.124Z" fill="#D9D9D9" fill-rule="evenodd"/><path d="M1131 650.876C1131 646.526 1134.53 643 1138.88 643L1180.12 643C1184.47 643 1188 646.526 1188 650.876L1188 692.124C1188 696.474 1184.47 700 1180.12 700L1138.88 700C1134.53 700 1131 696.474 1131 692.124Z" fill="#D9D9D9" fill-rule="evenodd"/></g></svg>