<svg width="322" height="191" xmlns="http://www.w3.org/2000/svg" overflow="hidden">
  <path fill="#FFF" d="M961 530h322v189H961z" transform="translate(-961 -529)"/>
  <path d="M971 545.704a6.705 6.705 0 0 1 6.704-6.704H1266.3c3.7 0 6.7 3.002 6.7 6.704v100.592c0 3.702-3 6.704-6.7 6.704H977.704a6.705 6.705 0 0 1-6.704-6.704Z" fill="#BFBFBF" fill-rule="evenodd" transform="translate(-961 -529)"/>
  <path d="M1027 620.587c0-3.086 2.5-5.587 5.59-5.587h177.82c3.09 0 5.59 2.501 5.59 5.587v83.826c0 3.086-2.5 5.587-5.59 5.587h-177.82a5.587 5.587 0 0 1-5.59-5.587Zm57-29.087c0-2.485 2.01-4.5 4.5-4.5h67c2.49 0 4.5 2.015 4.5 4.5s-2.01 4.5-4.5 4.5h-67c-2.49 0-4.5-2.015-4.5-4.5m-9-24c0-5.247 4.25-9.5 9.5-9.5h75c5.25 0 9.5 4.253 9.5 9.5s-4.25 9.5-9.5 9.5h-75c-5.25 0-9.5-4.253-9.5-9.5m-19 24c0-2.485 2.01-4.5 4.5-4.5h10c2.49 0 4.5 2.015 4.5 4.5s-2.01 4.5-4.5 4.5h-10c-2.49 0-4.5-2.015-4.5-4.5m113 0c0-2.485 2.01-4.5 4.5-4.5h10c2.49 0 4.5 2.015 4.5 4.5s-2.01 4.5-4.5 4.5h-10c-2.49 0-4.5-2.015-4.5-4.5" fill="#404040" fill-rule="evenodd" transform="translate(-961 -529)"/>
  <path d="m1166.69 687.799-20.32-31.864a2.02 2.02 0 0 0-1.71-.935c-.7 0-1.35.353-1.72.935l-5.94 9.375 12.74 20.27a5.96 5.96 0 0 1 .62 5.417h14.4c1.18.058 2.18-.835 2.24-1.995.02-.423-.09-.842-.31-1.203m-22.08.147-31.65-52.135a2.04 2.04 0 0 0-1.7-.81h-.52c-.67-.022-1.3.279-1.7.81l-31.65 52.135a2.11 2.11 0 0 0-.16 2.166c.35.63 1.05.975 1.76.869h64.02c.71.106 1.41-.239 1.76-.869a2.11 2.11 0 0 0-.16-2.166m-28.31-27.71-5.04 4.538-5.03-4.538-8.33 5.097 13.1-21.493 12.75 20.934ZM1096 638.5c0 2.485-1.79 4.5-4 4.5s-4-2.015-4-4.5 1.79-4.5 4-4.5 4 2.015 4 4.5" fill="#FFF" fill-rule="evenodd" transform="translate(-961 -529)"/>
</svg>
