<svg width="322" height="191" xmlns="http://www.w3.org/2000/svg" xmlns:xlink="http://www.w3.org/1999/xlink" overflow="hidden"><g transform="translate(-961 -548)"><rect x="961" y="549" width="322" height="189" fill="#404040"/><path d="M1122 582.325C1122 579.384 1124.38 577 1127.32 577L1248.68 577C1251.62 577 1254 579.384 1254 582.325L1254 704.675C1254 707.616 1251.62 710 1248.68 710L1127.32 710C1124.38 710 1122 707.616 1122 704.675Z" fill="#D9D9D9" fill-rule="evenodd"/><path d="M1234.68 669.621 1213.68 635.987C1213.3 635.37 1212.63 634.996 1211.91 635 1211.19 635 1210.52 635.372 1210.14 635.987L1204 645.883 1217.16 667.278C1218.27 668.971 1218.51 671.097 1217.8 672.997L1232.68 672.997C1233.9 673.058 1234.94 672.115 1235 670.891 1235.02 670.445 1234.91 670.002 1234.68 669.621Z" fill="#A6A6A6" fill-rule="evenodd"/><path d="M1211.6 669.837 1178.55 615.84C1178.13 615.29 1177.47 614.978 1176.77 615.001L1176.5 615.001 1176.23 615.001C1175.53 614.978 1174.87 615.29 1174.45 615.84L1141.4 669.837C1140.93 670.495 1140.87 671.36 1141.23 672.08 1141.6 672.733 1142.33 673.091 1143.07 672.98L1209.93 672.98C1210.67 673.091 1211.4 672.733 1211.77 672.08 1212.13 671.36 1212.07 670.495 1211.6 669.837ZM1182.03 641.138 1176.77 645.837 1171.52 641.138 1162.83 646.417 1176.5 624.156 1189.81 645.837Z" fill="#A6A6A6" fill-rule="evenodd"/><path d="M1161 618.5C1161 620.985 1158.99 623 1156.5 623 1154.01 623 1152 620.985 1152 618.5 1152 616.015 1154.01 614 1156.5 614 1158.99 614 1161 616.015 1161 618.5Z" fill="#A6A6A6" fill-rule="evenodd"/><path d="M990 605.5C990 600.253 994.253 596 999.5 596L1084.5 596C1089.75 596 1094 600.253 1094 605.5L1094 605.5C1094 610.747 1089.75 615 1084.5 615L999.5 615C994.253 615 990 610.747 990 605.5Z" fill="#FFFFFF" fill-rule="evenodd"/><path d="M990 629.5C990 627.015 992.015 625 994.5 625L1107.5 625C1109.99 625 1112 627.015 1112 629.5L1112 629.5C1112 631.985 1109.99 634 1107.5 634L994.5 634C992.015 634 990 631.985 990 629.5Z" fill="#ABABAB" fill-rule="evenodd"/><path d="M990 648C990 645.239 992.239 643 995 643L1041 643C1043.76 643 1046 645.239 1046 648L1046 648C1046 650.761 1043.76 653 1041 653L995 653C992.239 653 990 650.761 990 648Z" fill="#ABABAB" fill-rule="evenodd"/><path d="M990 675.167C990 673.418 991.418 672 993.167 672L1033.83 672C1035.58 672 1037 673.418 1037 675.167L1037 687.833C1037 689.582 1035.58 691 1033.83 691L993.167 691C991.418 691 990 689.582 990 687.833Z" fill="#FFFFFF" fill-rule="evenodd"/></g></svg>