<svg width="322" height="191" xmlns="http://www.w3.org/2000/svg" overflow="hidden">
  <path fill="#FFF" d="M961 530h322v189H961z" transform="translate(-961 -529)"/>
  <path d="M971 546.822a7.82 7.82 0 0 1 7.822-7.822h286.358a7.82 7.82 0 0 1 7.82 7.822v117.356a7.82 7.82 0 0 1-7.82 7.822H978.822a7.82 7.82 0 0 1-7.822-7.822Z" fill="#BFBFBF" fill-rule="evenodd" transform="translate(-961 -529)"/>
  <path d="M1037 591.5c0-2.485 2.01-4.5 4.5-4.5h66c2.49 0 4.5 2.015 4.5 4.5s-2.01 4.5-4.5 4.5h-66c-2.49 0-4.5-2.015-4.5-4.5m-28-24c0-5.247 4.25-9.5 9.5-9.5h75c5.25 0 9.5 4.253 9.5 9.5s-4.25 9.5-9.5 9.5h-75c-5.25 0-9.5-4.253-9.5-9.5m0 24c0-2.485 2.01-4.5 4.5-4.5h9c2.49 0 4.5 2.015 4.5 4.5s-2.01 4.5-4.5 4.5h-9c-2.49 0-4.5-2.015-4.5-4.5" fill="#404040" fill-rule="evenodd" transform="translate(-961 -529)"/>
  <path d="M1273 548.027v115.946a8.025 8.025 0 0 1-8.03 8.027H1122V540h142.97c4.44 0 8.03 3.594 8.03 8.027" fill="#7F7F7F" fill-rule="evenodd" transform="translate(-961 -529)"/>
  <path d="M1122 591.5c0-2.485 2.01-4.5 4.5-4.5h10c2.49 0 4.5 2.015 4.5 4.5s-2.01 4.5-4.5 4.5h-10c-2.49 0-4.5-2.015-4.5-4.5m-66 19c0-2.485 2.01-4.5 4.5-4.5h29c2.49 0 4.5 2.015 4.5 4.5s-2.01 4.5-4.5 4.5h-29c-2.49 0-4.5-2.015-4.5-4.5m-47 0c0-2.485 2.01-4.5 4.5-4.5h28c2.49 0 4.5 2.015 4.5 4.5s-2.01 4.5-4.5 4.5h-28c-2.49 0-4.5-2.015-4.5-4.5m94 0c0-2.485 2.01-4.5 4.5-4.5h29c2.49 0 4.5 2.015 4.5 4.5s-2.01 4.5-4.5 4.5h-29c-2.49 0-4.5-2.015-4.5-4.5" fill="#404040" fill-rule="evenodd" transform="translate(-961 -529)"/>
  <path d="M1009 637.167a3.17 3.17 0 0 1 3.17-3.167h49.66c1.75 0 3.17 1.418 3.17 3.167v12.666a3.17 3.17 0 0 1-3.17 3.167h-49.66a3.17 3.17 0 0 1-3.17-3.167Z" fill="#2564EB" fill-rule="evenodd" transform="translate(-961 -529)"/>
  <path d="m1244.68 633.621-21-33.634a2.08 2.08 0 0 0-3.54 0l-6.14 9.896 13.16 21.395a6.37 6.37 0 0 1 .64 5.719h14.88a2.215 2.215 0 0 0 2.32-2.106c.02-.446-.09-.889-.32-1.27m-23.09.216-33.51-53.997c-.43-.55-1.1-.862-1.8-.839h-.56c-.7-.023-1.37.289-1.8.839l-33.51 53.997a2.14 2.14 0 0 0-.17 2.243 1.83 1.83 0 0 0 1.86.9h67.8c.75.111 1.49-.247 1.86-.9.37-.72.31-1.585-.17-2.243m-29.98-28.699-5.33 4.699-5.33-4.699-8.82 5.279 13.87-22.261 13.5 21.681ZM1171 582c0 2.761-2.01 5-4.5 5s-4.5-2.239-4.5-5 2.01-5 4.5-5 4.5 2.239 4.5 5" fill="#FFF" fill-rule="evenodd" transform="translate(-961 -529)"/>
</svg>
