<svg width="322" height="191" xmlns="http://www.w3.org/2000/svg" overflow="hidden">
  <path fill="#FFF" d="M961 530h322v189H961z" transform="translate(-961 -529)"/>
  <path d="M971 549.056c0-5.554 4.502-10.056 10.056-10.056h281.884c5.56 0 10.06 4.502 10.06 10.056v150.888c0 5.554-4.5 10.056-10.06 10.056H981.056c-5.554 0-10.056-4.502-10.056-10.056Z" fill="#BFBFBF" fill-rule="evenodd" transform="translate(-961 -529)"/>
  <path d="M1084 591.5c0-2.485 2.01-4.5 4.5-4.5h67c2.49 0 4.5 2.015 4.5 4.5s-2.01 4.5-4.5 4.5h-67c-2.49 0-4.5-2.015-4.5-4.5m-9-24c0-5.247 4.25-9.5 9.5-9.5h75c5.25 0 9.5 4.253 9.5 9.5s-4.25 9.5-9.5 9.5h-75c-5.25 0-9.5-4.253-9.5-9.5m-19 24c0-2.485 2.01-4.5 4.5-4.5h10c2.49 0 4.5 2.015 4.5 4.5s-2.01 4.5-4.5 4.5h-10c-2.49 0-4.5-2.015-4.5-4.5m113 0c0-2.485 2.01-4.5 4.5-4.5h10c2.49 0 4.5 2.015 4.5 4.5s-2.01 4.5-4.5 4.5h-10c-2.49 0-4.5-2.015-4.5-4.5" fill="#404040" fill-rule="evenodd" transform="translate(-961 -529)"/>
  <path d="M1056 675.167a3.17 3.17 0 0 1 3.17-3.167h49.66c1.75 0 3.17 1.418 3.17 3.167v12.666a3.17 3.17 0 0 1-3.17 3.167h-49.66a3.17 3.17 0 0 1-3.17-3.167Z" fill="#2564EB" fill-rule="evenodd" transform="translate(-961 -529)"/>
  <path d="M1131 675.167a3.17 3.17 0 0 1 3.17-3.167h50.66c1.75 0 3.17 1.418 3.17 3.167v12.666a3.17 3.17 0 0 1-3.17 3.167h-50.66a3.17 3.17 0 0 1-3.17-3.167Z" fill="#FFF" fill-rule="evenodd" transform="translate(-961 -529)"/>
  <path d="m1166.69 658.799-20.32-31.864a2.02 2.02 0 0 0-1.71-.935c-.7 0-1.35.353-1.72.935l-5.94 9.375 12.74 20.27a5.96 5.96 0 0 1 .62 5.417h14.4c1.18.058 2.18-.835 2.24-1.995.02-.423-.09-.842-.31-1.203m-22.08.202-31.65-51.204a2.05 2.05 0 0 0-1.7-.796h-.52c-.67-.022-1.3.274-1.7.796l-31.65 51.204a2.04 2.04 0 0 0-.16 2.127c.35.619 1.05.958 1.76.853h64.02c.71.105 1.41-.234 1.76-.853.35-.683.29-1.503-.16-2.127m-28.31-27.215-5.04 4.456-5.03-4.456-8.33 5.006 13.1-21.11 12.75 20.56ZM1096 610a4 4 0 1 1-8 0 4 4 0 0 1 8 0" fill="#404040" fill-rule="evenodd" transform="translate(-961 -529)"/>
</svg>
