<svg width="322" height="191" xmlns="http://www.w3.org/2000/svg" xmlns:xlink="http://www.w3.org/1999/xlink" overflow="hidden"><g transform="translate(-961 -548)"><rect x="961" y="549" width="322" height="189" fill="#FFFFFF"/><path d="M980 566.813C980 564.707 981.707 563 983.813 563L1260.19 563C1262.29 563 1264 564.707 1264 566.813L1264 587.187C1264 589.293 1262.29 591 1260.19 591L983.813 591C981.707 591 980 589.293 980 587.187Z" fill="#F2F2F2" fill-rule="evenodd"/><path d="M1141 577.5C1141 575.015 1143.01 573 1145.5 573L1174.5 573C1176.99 573 1179 575.015 1179 577.5L1179 577.5C1179 579.985 1176.99 582 1174.5 582L1145.5 582C1143.01 582 1141 579.985 1141 577.5Z" fill="#404040" fill-rule="evenodd"/><path d="M1094 577.5C1094 575.015 1096.01 573 1098.5 573L1126.5 573C1128.99 573 1131 575.015 1131 577.5L1131 577.5C1131 579.985 1128.99 582 1126.5 582L1098.5 582C1096.01 582 1094 579.985 1094 577.5Z" fill="#404040" fill-rule="evenodd"/><path d="M990 577.5C990 572.253 994.253 568 999.5 568L1055.5 568C1060.75 568 1065 572.253 1065 577.5L1065 577.5C1065 582.747 1060.75 587 1055.5 587L999.5 587C994.253 587 990 582.747 990 577.5Z" fill="#2564EB" fill-rule="evenodd"/><path d="M1188.5 571.667C1188.5 569.918 1189.92 568.5 1191.67 568.5L1251.33 568.5C1253.08 568.5 1254.5 569.918 1254.5 571.667L1254.5 584.333C1254.5 586.082 1253.08 587.5 1251.33 587.5L1191.67 587.5C1189.92 587.5 1188.5 586.082 1188.5 584.333Z" stroke="#404040" stroke-width="5.33333" stroke-miterlimit="8" fill="none" fill-rule="evenodd"/></g></svg>