<svg width="322" height="191" xmlns="http://www.w3.org/2000/svg" xmlns:xlink="http://www.w3.org/1999/xlink" overflow="hidden"><g transform="translate(-961 -548)"><rect x="961" y="549" width="322" height="189" fill="#FFFFFF"/><path d="M980 566.813C980 564.707 981.707 563 983.813 563L1260.19 563C1262.29 563 1264 564.707 1264 566.813L1264 587.187C1264 589.293 1262.29 591 1260.19 591L983.813 591C981.707 591 980 589.293 980 587.187Z" fill="#F2F2F2" fill-rule="evenodd"/><path d="M1216 571.167C1216 569.418 1217.42 568 1219.17 568L1250.83 568C1252.58 568 1254 569.418 1254 571.167L1254 583.833C1254 585.582 1252.58 587 1250.83 587L1219.17 587C1217.42 587 1216 585.582 1216 583.833Z" fill="#404040" fill-rule="evenodd"/><path d="M1169 577.5C1169 575.015 1171.01 573 1173.5 573L1202.5 573C1204.99 573 1207 575.015 1207 577.5L1207 577.5C1207 579.985 1204.99 582 1202.5 582L1173.5 582C1171.01 582 1169 579.985 1169 577.5Z" fill="#404040" fill-rule="evenodd"/><path d="M1131 577.5C1131 575.015 1133.01 573 1135.5 573L1155.5 573C1157.99 573 1160 575.015 1160 577.5L1160 577.5C1160 579.985 1157.99 582 1155.5 582L1135.5 582C1133.01 582 1131 579.985 1131 577.5Z" fill="#404040" fill-rule="evenodd"/><path d="M990 577.5C990 572.253 994.253 568 999.5 568L1055.5 568C1060.75 568 1065 572.253 1065 577.5L1065 577.5C1065 582.747 1060.75 587 1055.5 587L999.5 587C994.253 587 990 582.747 990 577.5Z" fill="#2564EB" fill-rule="evenodd"/><path d="M1094 595.41C1094 590.766 1097.77 587 1102.41 587L1188.59 587C1193.23 587 1197 590.766 1197 595.41L1197 644.59C1197 649.234 1193.23 653 1188.59 653L1102.41 653C1097.77 653 1094 649.234 1094 644.59Z" fill="#ABABAB" fill-rule="evenodd"/><path d="M1103 600.382C1103 597.962 1104.96 596 1107.38 596L1136.62 596C1139.04 596 1141 597.962 1141 600.382L1141 610.618C1141 613.038 1139.04 615 1136.62 615L1107.38 615C1104.96 615 1103 613.038 1103 610.618Z" fill="#FFFFFF" fill-rule="evenodd"/><path d="M1150 600.382C1150 597.962 1151.96 596 1154.38 596L1183.62 596C1186.04 596 1188 597.962 1188 600.382L1188 610.618C1188 613.038 1186.04 615 1183.62 615L1154.38 615C1151.96 615 1150 613.038 1150 610.618Z" fill="#FFFFFF" fill-rule="evenodd"/><path d="M1103 629.151C1103 626.859 1104.86 625 1107.15 625L1136.85 625C1139.14 625 1141 626.859 1141 629.151L1141 638.849C1141 641.141 1139.14 643 1136.85 643L1107.15 643C1104.86 643 1103 641.141 1103 638.849Z" fill="#FFFFFF" fill-rule="evenodd"/><path d="M1150 629.151C1150 626.859 1151.86 625 1154.15 625L1183.85 625C1186.14 625 1188 626.859 1188 629.151L1188 638.849C1188 641.141 1186.14 643 1183.85 643L1154.15 643C1151.86 643 1150 641.141 1150 638.849Z" fill="#FFFFFF" fill-rule="evenodd"/></g></svg>