<svg width="323" height="190" xmlns="http://www.w3.org/2000/svg" overflow="hidden">
  <path fill="#FFF" d="M959 531h321v189H959z" transform="translate(-958 -531)"/>
  <path d="M978 551.536a6.536 6.536 0 0 1 6.536-6.536h269.924a6.54 6.54 0 0 1 6.54 6.536v34.928a6.54 6.54 0 0 1-6.54 6.536H984.536a6.536 6.536 0 0 1-6.536-6.536Z" fill="#F2F2F2" fill-rule="evenodd" transform="translate(-958 -531)"/>
  <path d="M1214 553.167a3.17 3.17 0 0 1 3.17-3.167h31.66c1.75 0 3.17 1.418 3.17 3.167v12.666a3.17 3.17 0 0 1-3.17 3.167h-31.66a3.17 3.17 0 0 1-3.17-3.167Zm-47 6.333c0-2.485 2.01-4.5 4.5-4.5h28c2.49 0 4.5 2.015 4.5 4.5s-2.01 4.5-4.5 4.5h-28c-2.49 0-4.5-2.015-4.5-4.5m-48 0c0-2.485 2.01-4.5 4.5-4.5h29c2.49 0 4.5 2.015 4.5 4.5s-2.01 4.5-4.5 4.5h-29c-2.49 0-4.5-2.015-4.5-4.5m-19 24c0-2.485 2.01-4.5 4.5-4.5h29c2.49 0 4.5 2.015 4.5 4.5s-2.01 4.5-4.5 4.5h-29c-2.49 0-4.5-2.015-4.5-4.5m-113 0a4.5 4.5 0 0 1 4.5-4.5h10c2.49 0 4.5 2.015 4.5 4.5s-2.01 4.5-4.5 4.5h-10a4.5 4.5 0 0 1-4.5-4.5m246 0c0-2.485 2.01-4.5 4.5-4.5h10c2.49 0 4.5 2.015 4.5 4.5s-2.01 4.5-4.5 4.5h-10c-2.49 0-4.5-2.015-4.5-4.5" fill="#404040" fill-rule="evenodd" transform="translate(-958 -531)"/>
  <path d="M987 559.5a9.5 9.5 0 0 1 9.5-9.5h57c5.25 0 9.5 4.253 9.5 9.5s-4.25 9.5-9.5 9.5h-57a9.5 9.5 0 0 1-9.5-9.5" fill="#2564EB" fill-rule="evenodd" transform="translate(-958 -531)"/>
</svg>
