<svg width="322" height="191" xmlns="http://www.w3.org/2000/svg" overflow="hidden">
  <path fill="#FFF" d="M961 531h322v189H961z" transform="translate(-961 -530)"/>
  <path d="M980 548.949a3.95 3.95 0 0 1 3.949-3.949h276.101a3.95 3.95 0 0 1 3.95 3.949v21.102a3.95 3.95 0 0 1-3.95 3.949H983.949a3.95 3.95 0 0 1-3.949-3.949Z" fill="#F2F2F2" fill-rule="evenodd" transform="translate(-961 -530)"/>
  <path d="M1216 553.167a3.17 3.17 0 0 1 3.17-3.167h31.66c1.75 0 3.17 1.418 3.17 3.167v12.666a3.17 3.17 0 0 1-3.17 3.167h-31.66a3.17 3.17 0 0 1-3.17-3.167Zm-47 6.333c0-2.485 2.01-4.5 4.5-4.5h29c2.49 0 4.5 2.015 4.5 4.5s-2.01 4.5-4.5 4.5h-29c-2.49 0-4.5-2.015-4.5-4.5m-47 0c0-2.485 2.01-4.5 4.5-4.5h29c2.49 0 4.5 2.015 4.5 4.5s-2.01 4.5-4.5 4.5h-29c-2.49 0-4.5-2.015-4.5-4.5" fill="#404040" fill-rule="evenodd" transform="translate(-961 -530)"/>
  <path d="M990 559.5a9.5 9.5 0 0 1 9.5-9.5h56c5.25 0 9.5 4.253 9.5 9.5s-4.25 9.5-9.5 9.5h-56a9.5 9.5 0 0 1-9.5-9.5" fill="#2564EB" fill-rule="evenodd" transform="translate(-961 -530)"/>
</svg>
