<svg width="323" height="191" xmlns="http://www.w3.org/2000/svg" overflow="hidden">
  <path fill="#FFF" d="M959 531h321v189H959z" transform="translate(-958 -530)"/>
  <path d="M978 551.4a6.4 6.4 0 0 1 6.4-6.4h270.2c3.53 0 6.4 2.865 6.4 6.4v34.2c0 3.535-2.87 6.4-6.4 6.4H984.4a6.4 6.4 0 0 1-6.4-6.4Z" fill="#F2F2F2" fill-rule="evenodd" transform="translate(-958 -530)"/>
  <path d="M1214 572.167a3.17 3.17 0 0 1 3.17-3.167h31.66c1.75 0 3.17 1.418 3.17 3.167v12.666a3.17 3.17 0 0 1-3.17 3.167h-31.66a3.17 3.17 0 0 1-3.17-3.167Zm-47 6.333c0-2.485 2.01-4.5 4.5-4.5h28c2.49 0 4.5 2.015 4.5 4.5s-2.01 4.5-4.5 4.5h-28c-2.49 0-4.5-2.015-4.5-4.5m-48 0c0-2.485 2.01-4.5 4.5-4.5h29c2.49 0 4.5 2.015 4.5 4.5s-2.01 4.5-4.5 4.5h-29c-2.49 0-4.5-2.015-4.5-4.5m-132-24a4.5 4.5 0 0 1 4.5-4.5h29c2.49 0 4.5 2.015 4.5 4.5s-2.01 4.5-4.5 4.5h-29a4.5 4.5 0 0 1-4.5-4.5m255 0c0-2.485 2.24-4.5 5-4.5s5 2.015 5 4.5-2.24 4.5-5 4.5-5-2.015-5-4.5m-208 0c0-2.485 2.01-4.5 4.5-4.5h29c2.49 0 4.5 2.015 4.5 4.5s-2.01 4.5-4.5 4.5h-29c-2.49 0-4.5-2.015-4.5-4.5m189 0c0-2.485 2.24-4.5 5-4.5s5 2.015 5 4.5-2.24 4.5-5 4.5-5-2.015-5-4.5m-19 0c0-2.485 2.24-4.5 5-4.5s5 2.015 5 4.5-2.24 4.5-5 4.5-5-2.015-5-4.5" fill="#404040" fill-rule="evenodd" transform="translate(-958 -530)"/>
  <path d="M987 578.5a9.5 9.5 0 0 1 9.5-9.5h57c5.25 0 9.5 4.253 9.5 9.5s-4.25 9.5-9.5 9.5h-57a9.5 9.5 0 0 1-9.5-9.5" fill="#2564EB" fill-rule="evenodd" transform="translate(-958 -530)"/>
</svg>
