<svg width="322" height="191" xmlns="http://www.w3.org/2000/svg" xmlns:xlink="http://www.w3.org/1999/xlink" overflow="hidden"><g transform="translate(-961 -548)"><rect x="961" y="549" width="322" height="189" fill="#FFFFFF"/><path d="M980 583.536C980 579.926 982.926 577 986.536 577L1257.46 577C1261.07 577 1264 579.926 1264 583.536L1264 618.464C1264 622.074 1261.07 625 1257.46 625L986.536 625C982.926 625 980 622.074 980 618.464Z" fill="#F2F2F2" fill-rule="evenodd"/><path d="M1216 585.167C1216 583.418 1217.42 582 1219.17 582L1250.83 582C1252.58 582 1254 583.418 1254 585.167L1254 597.833C1254 599.582 1252.58 601 1250.83 601L1219.17 601C1217.42 601 1216 599.582 1216 597.833Z" fill="#404040" fill-rule="evenodd"/><path d="M1169 591.5C1169 589.015 1171.01 587 1173.5 587L1202.5 587C1204.99 587 1207 589.015 1207 591.5L1207 591.5C1207 593.985 1204.99 596 1202.5 596L1173.5 596C1171.01 596 1169 593.985 1169 591.5Z" fill="#404040" fill-rule="evenodd"/><path d="M1122 591.5C1122 589.015 1124.01 587 1126.5 587L1155.5 587C1157.99 587 1160 589.015 1160 591.5L1160 591.5C1160 593.985 1157.99 596 1155.5 596L1126.5 596C1124.01 596 1122 593.985 1122 591.5Z" fill="#404040" fill-rule="evenodd"/><path d="M990 615C990 612.239 992.239 610 995 610L1004 610C1006.76 610 1009 612.239 1009 615L1009 615C1009 617.761 1006.76 620 1004 620L995 620C992.239 620 990 617.761 990 615Z" fill="#404040" fill-rule="evenodd"/><path d="M1235 615C1235 612.239 1237.24 610 1240 610L1249 610C1251.76 610 1254 612.239 1254 615L1254 615C1254 617.761 1251.76 620 1249 620L1240 620C1237.24 620 1235 617.761 1235 615Z" fill="#404040" fill-rule="evenodd"/><path d="M990 591.5C990 586.253 994.253 582 999.5 582L1055.5 582C1060.75 582 1065 586.253 1065 591.5L1065 591.5C1065 596.747 1060.75 601 1055.5 601L999.5 601C994.253 601 990 596.747 990 591.5Z" fill="#2564EB" fill-rule="evenodd"/><path d="M980 566.422C980 564.532 981.532 563 983.422 563L1260.58 563C1262.47 563 1264 564.532 1264 566.422L1264 569.578C1264 571.468 1262.47 573 1260.58 573L983.422 573C981.532 573 980 571.468 980 569.578Z" fill="#2564EB" fill-rule="evenodd"/></g></svg>