<svg width="322" height="191" xmlns="http://www.w3.org/2000/svg"
    xmlns:xlink="http://www.w3.org/1999/xlink" overflow="hidden">
    <g transform="translate(-961 -530)">
        <rect x="961" y="531" width="322" height="189" fill="#FFFFFF" />
        <path
            d="M990 568.5C990 563.253 994.253 559 999.5 559L1074.5 559C1079.75 559 1084 563.253 1084 568.5L1084 568.5C1084 573.747 1079.75 578 1074.5 578L999.5 578C994.253 578 990 573.747 990 568.5Z"
            fill="#404040" fill-rule="evenodd" />
        <path
            d="M1235 564C1235 561.239 1237.24 559 1240 559L1249 559C1251.76 559 1254 561.239 1254 564L1254 564C1254 566.761 1251.76 569 1249 569L1240 569C1237.24 569 1235 566.761 1235 564Z"
            fill="#BFBFBF" fill-rule="evenodd" />
        <path
            d="M1150 564C1150 561.239 1152.24 559 1155 559L1221 559C1223.76 559 1226 561.239 1226 564L1226 564C1226 566.761 1223.76 569 1221 569L1155 569C1152.24 569 1150 566.761 1150 564Z"
            fill="#BFBFBF" fill-rule="evenodd" />
        <path
            d="M990 601.411C990 598.975 991.975 597 994.411 597L1060.59 597C1063.03 597 1065 598.975 1065 601.411L1065 687.589C1065 690.025 1063.03 692 1060.59 692L994.411 692C991.975 692 990 690.025 990 687.589Z"
            fill="#BFBFBF" fill-rule="evenodd" />
        <path
            d="M1046 677.5C1046 675.015 1048.01 673 1050.5 673L1051.5 673C1053.99 673 1056 675.015 1056 677.5L1056 677.5C1056 679.985 1053.99 682 1051.5 682L1050.5 682C1048.01 682 1046 679.985 1046 677.5Z"
            fill="#FFFFFF" fill-rule="evenodd" />
        <path
            d="M999 677.5C999 675.015 1001.01 673 1003.5 673L1032.5 673C1034.99 673 1037 675.015 1037 677.5L1037 677.5C1037 679.985 1034.99 682 1032.5 682L1003.5 682C1001.01 682 999 679.985 999 677.5Z"
            fill="#FFFFFF" fill-rule="evenodd" />
        <path
            d="M1084 601.47C1084 599.001 1086 597 1088.47 597L1155.53 597C1158 597 1160 599.001 1160 601.47L1160 687.53C1160 689.999 1158 692 1155.53 692L1088.47 692C1086 692 1084 689.999 1084 687.53Z"
            fill="#BFBFBF" fill-rule="evenodd" />
        <path
            d="M1141 677.5C1141 675.015 1143.01 673 1145.5 673L1145.5 673C1147.99 673 1150 675.015 1150 677.5L1150 677.5C1150 679.985 1147.99 682 1145.5 682L1145.5 682C1143.01 682 1141 679.985 1141 677.5Z"
            fill="#FFFFFF" fill-rule="evenodd" />
        <path
            d="M1094 677.5C1094 675.015 1096.01 673 1098.5 673L1126.5 673C1128.99 673 1131 675.015 1131 677.5L1131 677.5C1131 679.985 1128.99 682 1126.5 682L1098.5 682C1096.01 682 1094 679.985 1094 677.5Z"
            fill="#FFFFFF" fill-rule="evenodd" />
        <path
            d="M1179 601.411C1179 598.975 1180.97 597 1183.41 597L1249.59 597C1252.03 597 1254 598.975 1254 601.411L1254 687.589C1254 690.025 1252.03 692 1249.59 692L1183.41 692C1180.97 692 1179 690.025 1179 687.589Z"
            fill="#BFBFBF" fill-rule="evenodd" />
        <path
            d="M1235 677.5C1235 675.015 1237.01 673 1239.5 673L1240.5 673C1242.99 673 1245 675.015 1245 677.5L1245 677.5C1245 679.985 1242.99 682 1240.5 682L1239.5 682C1237.01 682 1235 679.985 1235 677.5Z"
            fill="#FFFFFF" fill-rule="evenodd" />
        <path
            d="M1188 677.5C1188 675.015 1190.01 673 1192.5 673L1221.5 673C1223.99 673 1226 675.015 1226 677.5L1226 677.5C1226 679.985 1223.99 682 1221.5 682L1192.5 682C1190.01 682 1188 679.985 1188 677.5Z"
            fill="#FFFFFF" fill-rule="evenodd" />
    </g>
</svg>