<svg width="323" height="191" xmlns="http://www.w3.org/2000/svg" overflow="hidden">
  <path fill="#FFF" d="M959 531h321v189H959z" transform="translate(-958 -530)"/>
  <path d="M987 583a5 5 0 0 1 5-5h56a5.001 5.001 0 0 1 0 10h-56a5 5 0 0 1-5-5" fill="#404040" fill-rule="evenodd" transform="translate(-958 -530)"/>
  <path d="M987 607.117a4.117 4.117 0 0 1 4.117-4.117h67.763c2.28 0 4.12 1.843 4.12 4.117v61.766a4.115 4.115 0 0 1-4.12 4.117h-67.763a4.117 4.117 0 0 1-4.117-4.117Z" fill="#BFBFBF" fill-rule="evenodd" transform="translate(-958 -530)"/>
  <path d="M993 651a2 2 0 0 1 2-2h37c1.1 0 2 .895 2 2v8c0 1.105-.9 2-2 2h-37a2 2 0 0 1-2-2Z" fill="#FFF" fill-rule="evenodd" transform="translate(-958 -530)"/>
  <path d="M1039 651c0-1.105.9-2 2-2h14c1.1 0 2 .895 2 2v8c0 1.105-.9 2-2 2h-14c-1.1 0-2-.895-2-2Zm-46-39a3 3 0 0 1 3-3h58c1.66 0 3 1.343 3 3s-1.34 3-3 3h-58a3 3 0 0 1-3-3" fill="#404040" fill-rule="evenodd" transform="translate(-958 -530)"/>
  <path d="M1010 618.5c0-.828.67-1.5 1.5-1.5h26a1.5 1.5 0 1 1 0 3h-26a1.5 1.5 0 0 1-1.5-1.5m0 49.5c0-.552.45-1 1-1h27c.55 0 1 .448 1 1s-.45 1-1 1h-27c-.55 0-1-.448-1-1" fill="#FFF" fill-rule="evenodd" transform="translate(-958 -530)"/>
  <path d="M1063 583c0-2.761 2.24-5 5-5h18a5.001 5.001 0 0 1 0 10h-18c-2.76 0-5-2.239-5-5" fill="#404040" fill-rule="evenodd" transform="translate(-958 -530)"/>
  <path d="M1082 607.117a4.115 4.115 0 0 1 4.12-4.117h66.76c2.28 0 4.12 1.843 4.12 4.117v61.766a4.115 4.115 0 0 1-4.12 4.117h-66.76a4.115 4.115 0 0 1-4.12-4.117Z" fill="#BFBFBF" fill-rule="evenodd" transform="translate(-958 -530)"/>
  <path d="M1087 651c0-1.105.9-2 2-2h37c1.1 0 2 .895 2 2v8c0 1.105-.9 2-2 2h-37c-1.1 0-2-.895-2-2Z" fill="#FFF" fill-rule="evenodd" transform="translate(-958 -530)"/>
  <path d="M1134 651c0-1.105.9-2 2-2h13c1.1 0 2 .895 2 2v8c0 1.105-.9 2-2 2h-13c-1.1 0-2-.895-2-2Zm-47-39c0-1.657 1.34-3 3-3h58c1.66 0 3 1.343 3 3s-1.34 3-3 3h-58c-1.66 0-3-1.343-3-3" fill="#404040" fill-rule="evenodd" transform="translate(-958 -530)"/>
  <path d="M1105 618.5c0-.828.67-1.5 1.5-1.5h26a1.5 1.5 0 1 1 0 3h-26a1.5 1.5 0 0 1-1.5-1.5m0 49.5c0-.552.45-1 1-1h27c.55 0 1 .448 1 1s-.45 1-1 1h-27c-.55 0-1-.448-1-1" fill="#FFF" fill-rule="evenodd" transform="translate(-958 -530)"/>
  <path d="M1176 607.117a4.115 4.115 0 0 1 4.12-4.117h67.76c2.28 0 4.12 1.843 4.12 4.117v61.766a4.115 4.115 0 0 1-4.12 4.117h-67.76a4.115 4.115 0 0 1-4.12-4.117Z" fill="#BFBFBF" fill-rule="evenodd" transform="translate(-958 -530)"/>
  <path d="M1182 651c0-1.105.9-2 2-2h37c1.1 0 2 .895 2 2v8c0 1.105-.9 2-2 2h-37c-1.1 0-2-.895-2-2Z" fill="#FFF" fill-rule="evenodd" transform="translate(-958 -530)"/>
  <path d="M1228 651c0-1.105.9-2 2-2h14c1.1 0 2 .895 2 2v8c0 1.105-.9 2-2 2h-14c-1.1 0-2-.895-2-2Zm-46-39c0-1.657 1.34-3 3-3h58c1.66 0 3 1.343 3 3s-1.34 3-3 3h-58c-1.66 0-3-1.343-3-3" fill="#404040" fill-rule="evenodd" transform="translate(-958 -530)"/>
  <path d="M1199 618.5c0-.828.67-1.5 1.5-1.5h26a1.5 1.5 0 1 1 0 3h-26a1.5 1.5 0 0 1-1.5-1.5m0 49.5c0-.552.45-1 1-1h27c.55 0 1 .448 1 1s-.45 1-1 1h-27c-.55 0-1-.448-1-1" fill="#FFF" fill-rule="evenodd" transform="translate(-958 -530)"/>
</svg>
