<svg width="323" height="191" xmlns="http://www.w3.org/2000/svg" overflow="hidden">
  <path fill="#FFF" d="M959 531h321v189H959z" transform="translate(-958 -530)"/>
  <path d="M1091 629c0-1.657 1.34-3 3-3h51c1.66 0 3 1.343 3 3v12c0 1.657-1.34 3-3 3h-51c-1.66 0-3-1.343-3-3Zm66 0c0-1.657 1.34-3 3-3h41c1.66 0 3 1.343 3 3v12c0 1.657-1.34 3-3 3h-41c-1.66 0-3-1.343-3-3Zm-123 0c0-1.657 1.34-3 3-3h42c1.66 0 3 1.343 3 3v12c0 1.657-1.34 3-3 3h-42c-1.66 0-3-1.343-3-3Zm180 0c0-1.657 1.34-3 3-3h41c1.66 0 3 1.343 3 3v12c0 1.657-1.34 3-3 3h-41c-1.66 0-3-1.343-3-3Zm-236 0a3 3 0 0 1 3-3h41c1.66 0 3 1.343 3 3v12c0 1.657-1.34 3-3 3h-41a3 3 0 0 1-3-3Z" fill="#BFBFBF" fill-rule="evenodd" transform="translate(-958 -530)"/>
  <path d="M1086 611.5c0-2.485 2.01-4.5 4.5-4.5h57c2.49 0 4.5 2.015 4.5 4.5s-2.01 4.5-4.5 4.5h-57c-2.49 0-4.5-2.015-4.5-4.5" fill="#404040" fill-rule="evenodd" transform="translate(-958 -530)"/>
  <path d="M987 611a2 2 0 0 1 2-2h91c1.1 0 2 .895 2 2s-.9 2-2 2h-91a2 2 0 0 1-2-2m170 0c0-1.105.9-2 2-2h91c1.1 0 2 .895 2 2s-.9 2-2 2h-91c-1.1 0-2-.895-2-2" fill="#D9D9D9" fill-rule="evenodd" transform="translate(-958 -530)"/>
</svg>
