<svg width="323" height="191" xmlns="http://www.w3.org/2000/svg" overflow="hidden">
  <path fill="#FFF" d="M959 531h321v189H959z" transform="translate(-958 -530)"/>
  <path d="M987 549.5a9.5 9.5 0 0 1 9.5-9.5h76c5.25 0 9.5 4.253 9.5 9.5s-4.25 9.5-9.5 9.5h-76a9.5 9.5 0 0 1-9.5-9.5" fill="#404040" fill-rule="evenodd" transform="translate(-958 -530)"/>
  <path d="M1072 573.5c0-2.485 2.01-4.5 4.5-4.5h10c2.49 0 4.5 2.015 4.5 4.5s-2.01 4.5-4.5 4.5h-10c-2.49 0-4.5-2.015-4.5-4.5m-85 0a4.5 4.5 0 0 1 4.5-4.5h67c2.49 0 4.5 2.015 4.5 4.5s-2.01 4.5-4.5 4.5h-67a4.5 4.5 0 0 1-4.5-4.5m113 0c0-2.485 2.01-4.5 4.5-4.5h67c2.49 0 4.5 2.015 4.5 4.5s-2.01 4.5-4.5 4.5h-67c-2.49 0-4.5-2.015-4.5-4.5" fill="#BFBFBF" fill-rule="evenodd" transform="translate(-958 -530)"/>
  <path d="M987 602.171a5.17 5.17 0 0 1 5.171-5.171h48.659c2.85 0 5.17 2.315 5.17 5.171v103.658a5.174 5.174 0 0 1-5.17 5.171h-48.659a5.17 5.17 0 0 1-5.171-5.171Z" fill="#D9D9D9" fill-rule="evenodd" transform="translate(-958 -530)"/>
  <path d="M1008 603c0-1.657 1.34-3 3-3h11c1.66 0 3 1.343 3 3s-1.34 3-3 3h-11c-1.66 0-3-1.343-3-3" fill="#FFF" fill-rule="evenodd" transform="translate(-958 -530)"/>
  <path d="M1056 602.083a5.085 5.085 0 0 1 5.08-5.083h47.84c2.8 0 5.08 2.276 5.08 5.083v103.834a5.085 5.085 0 0 1-5.08 5.083h-47.84c-2.8 0-5.08-2.276-5.08-5.083Z" fill="#D9D9D9" fill-rule="evenodd" transform="translate(-958 -530)"/>
  <path d="M1076 603c0-1.657 1.34-3 3-3h12c1.66 0 3 1.343 3 3s-1.34 3-3 3h-12c-1.66 0-3-1.343-3-3" fill="#FFF" fill-rule="evenodd" transform="translate(-958 -530)"/>
  <path d="M1124 602.171a5.174 5.174 0 0 1 5.17-5.171h48.66c2.85 0 5.17 2.315 5.17 5.171v103.658a5.174 5.174 0 0 1-5.17 5.171h-48.66a5.174 5.174 0 0 1-5.17-5.171Z" fill="#D9D9D9" fill-rule="evenodd" transform="translate(-958 -530)"/>
  <path d="M1145 603c0-1.657 1.34-3 3-3h11c1.66 0 3 1.343 3 3s-1.34 3-3 3h-11c-1.66 0-3-1.343-3-3" fill="#FFF" fill-rule="evenodd" transform="translate(-958 -530)"/>
  <path d="M1193 602.171a5.174 5.174 0 0 1 5.17-5.171h48.66c2.85 0 5.17 2.315 5.17 5.171v103.658a5.174 5.174 0 0 1-5.17 5.171h-48.66a5.174 5.174 0 0 1-5.17-5.171Z" fill="#D9D9D9" fill-rule="evenodd" transform="translate(-958 -530)"/>
  <path d="M1213 603c0-1.657 1.34-3 3-3h12c1.66 0 3 1.343 3 3s-1.34 3-3 3h-12c-1.66 0-3-1.343-3-3" fill="#FFF" fill-rule="evenodd" transform="translate(-958 -530)"/>
</svg>
