<svg width="322" height="191" xmlns="http://www.w3.org/2000/svg" overflow="hidden">
  <path fill="#FFF" d="M961 530h322v189H961z" transform="translate(-961 -529)"/>
  <path d="m1079.69 696.799-20.32-31.864a2.02 2.02 0 0 0-1.71-.935c-.7 0-1.35.353-1.72.935l-5.94 9.375 12.74 20.27a5.96 5.96 0 0 1 .62 5.417h14.4c1.18.058 2.18-.835 2.24-1.995.02-.423-.09-.842-.31-1.203m-22.08.202-31.65-51.204a2.05 2.05 0 0 0-1.7-.796h-.52c-.67-.022-1.3.274-1.7.796l-31.655 51.204a2.05 2.05 0 0 0-.16 2.127 1.73 1.73 0 0 0 1.761.853h64.024c.71.105 1.41-.234 1.76-.853.35-.683.29-1.503-.16-2.127m-28.31-27.215-5.04 4.456-5.03-4.456-8.33 5.006 13.1-21.11 12.75 20.56ZM1009 647.5c0 2.485-2.01 4.5-4.5 4.5s-4.5-2.015-4.5-4.5 2.01-4.5 4.5-4.5 4.5 2.015 4.5 4.5" fill="#404040" fill-rule="evenodd" transform="translate(-961 -529)"/>
  <path d="M1179 667c0-2.761 2.24-5 5-5h8a5.001 5.001 0 0 1 0 10h-8c-2.76 0-5-2.239-5-5m-85 0c0-2.761 2.24-5 5-5h65a5.001 5.001 0 0 1 0 10h-65c-2.76 0-5-2.239-5-5" fill="#BFBFBF" fill-rule="evenodd" transform="translate(-961 -529)"/>
  <path d="M1094 648c0-2.761 2.24-5 5-5h37a5.001 5.001 0 0 1 0 10h-37c-2.76 0-5-2.239-5-5" fill="#404040" fill-rule="evenodd" transform="translate(-961 -529)"/>
  <path d="M1207 667c0-2.761 2.24-5 5-5h37a5.001 5.001 0 0 1 0 10h-37c-2.76 0-5-2.239-5-5m-113 19c0-2.761 2.24-5 5-5h37a5.001 5.001 0 0 1 0 10h-37c-2.76 0-5-2.239-5-5" fill="#BFBFBF" fill-rule="evenodd" transform="translate(-961 -529)"/>
  <path d="m1253.7 630.799-19.65-31.864a1.9 1.9 0 0 0-1.65-.935c-.67 0-1.3.353-1.66.935l-5.74 9.375 12.31 20.27a6.08 6.08 0 0 1 .6 5.417h13.92c1.14.058 2.11-.835 2.17-1.995.02-.423-.09-.842-.3-1.203m-22.09.147-31.65-52.135a2.04 2.04 0 0 0-1.7-.81h-.52c-.67-.022-1.3.279-1.7.81l-31.65 52.135a2.11 2.11 0 0 0-.16 2.166c.35.63 1.05.975 1.76.869h64.02c.71.106 1.41-.239 1.76-.869a2.11 2.11 0 0 0-.16-2.166m-28.31-27.71-5.04 4.538-5.03-4.538-8.33 5.097 13.1-21.493 12.75 20.934ZM1184 581.5c0 2.485-2.01 4.5-4.5 4.5s-4.5-2.015-4.5-4.5 2.01-4.5 4.5-4.5 4.5 2.015 4.5 4.5" fill="#404040" fill-rule="evenodd" transform="translate(-961 -529)"/>
  <path d="M1075 601c0-2.761 2.24-5 5-5h9a5.001 5.001 0 0 1 0 10h-9c-2.76 0-5-2.239-5-5m-85 0a5 5 0 0 1 5-5h65a5.001 5.001 0 0 1 0 10h-65a5 5 0 0 1-5-5" fill="#BFBFBF" fill-rule="evenodd" transform="translate(-961 -529)"/>
  <path d="M990 582a5 5 0 0 1 5-5h37a5.001 5.001 0 0 1 0 10h-37a5 5 0 0 1-5-5" fill="#404040" fill-rule="evenodd" transform="translate(-961 -529)"/>
  <path d="M1103 601c0-2.761 2.24-5 5-5h37a5.001 5.001 0 0 1 0 10h-37c-2.76 0-5-2.239-5-5m-113 19a5 5 0 0 1 5-5h37a5.001 5.001 0 0 1 0 10h-37a5 5 0 0 1-5-5" fill="#BFBFBF" fill-rule="evenodd" transform="translate(-961 -529)"/>
  <path d="M1075 558.5c0-5.247 4.25-9.5 9.5-9.5h75c5.25 0 9.5 4.253 9.5 9.5s-4.25 9.5-9.5 9.5h-75c-5.25 0-9.5-4.253-9.5-9.5" fill="#404040" fill-rule="evenodd" transform="translate(-961 -529)"/>
</svg>
