<svg width="322" height="191" xmlns="http://www.w3.org/2000/svg" xmlns:xlink="http://www.w3.org/1999/xlink" overflow="hidden"><g transform="translate(-961 -548)"><rect x="961" y="549" width="322" height="189" fill="#FFFFFF"/><path d="M1150 601C1150 598.239 1152.24 596 1155 596L1164 596C1166.76 596 1169 598.239 1169 601L1169 601C1169 603.761 1166.76 606 1164 606L1155 606C1152.24 606 1150 603.761 1150 601Z" fill="#BFBFBF" fill-rule="evenodd"/><path d="M1075 601C1075 598.239 1077.24 596 1080 596L1136 596C1138.76 596 1141 598.239 1141 601L1141 601C1141 603.761 1138.76 606 1136 606L1080 606C1077.24 606 1075 603.761 1075 601Z" fill="#BFBFBF" fill-rule="evenodd"/><path d="M1018 577.5C1018 572.253 1022.25 568 1027.5 568L1140.5 568C1145.75 568 1150 572.253 1150 577.5L1150 577.5C1150 582.747 1145.75 587 1140.5 587L1027.5 587C1022.25 587 1018 582.747 1018 577.5Z" fill="#404040" fill-rule="evenodd"/><path d="M1160 577.5C1160 572.253 1164.25 568 1169.5 568L1216.5 568C1221.75 568 1226 572.253 1226 577.5L1226 577.5C1226 582.747 1221.75 587 1216.5 587L1169.5 587C1164.25 587 1160 582.747 1160 577.5Z" fill="#404040" fill-rule="evenodd"/><path d="M990 629.5C990 627.015 992.015 625 994.5 625L1060.5 625C1062.99 625 1065 627.015 1065 629.5L1065 629.5C1065 631.985 1062.99 634 1060.5 634L994.5 634C992.015 634 990 631.985 990 629.5Z" fill="#ABABAB" fill-rule="evenodd"/><path d="M990 648C990 645.239 992.239 643 995 643L1060 643C1062.76 643 1065 645.239 1065 648L1065 648C1065 650.761 1062.76 653 1060 653L995 653C992.239 653 990 650.761 990 648Z" fill="#D9D9D9" fill-rule="evenodd"/><path d="M990 667C990 664.239 992.239 662 995 662L1060 662C1062.76 662 1065 664.239 1065 667L1065 667C1065 669.761 1062.76 672 1060 672L995 672C992.239 672 990 669.761 990 667Z" fill="#ABABAB" fill-rule="evenodd"/><path d="M990 686C990 683.239 992.239 681 995 681L1060 681C1062.76 681 1065 683.239 1065 686L1065 686C1065 688.761 1062.76 691 1060 691L995 691C992.239 691 990 688.761 990 686Z" fill="#D9D9D9" fill-rule="evenodd"/><path d="M990 705C990 702.239 992.239 700 995 700L1060 700C1062.76 700 1065 702.239 1065 705L1065 705C1065 707.761 1062.76 710 1060 710L995 710C992.239 710 990 707.761 990 705Z" fill="#ABABAB" fill-rule="evenodd"/><path d="M1084 629.5C1084 627.015 1086.01 625 1088.5 625L1155.5 625C1157.99 625 1160 627.015 1160 629.5L1160 629.5C1160 631.985 1157.99 634 1155.5 634L1088.5 634C1086.01 634 1084 631.985 1084 629.5Z" fill="#ABABAB" fill-rule="evenodd"/><path d="M1084 648C1084 645.239 1086.24 643 1089 643L1155 643C1157.76 643 1160 645.239 1160 648L1160 648C1160 650.761 1157.76 653 1155 653L1089 653C1086.24 653 1084 650.761 1084 648Z" fill="#D9D9D9" fill-rule="evenodd"/><path d="M1084 667C1084 664.239 1086.24 662 1089 662L1155 662C1157.76 662 1160 664.239 1160 667L1160 667C1160 669.761 1157.76 672 1155 672L1089 672C1086.24 672 1084 669.761 1084 667Z" fill="#ABABAB" fill-rule="evenodd"/><path d="M1084 686C1084 683.239 1086.24 681 1089 681L1155 681C1157.76 681 1160 683.239 1160 686L1160 686C1160 688.761 1157.76 691 1155 691L1089 691C1086.24 691 1084 688.761 1084 686Z" fill="#D9D9D9" fill-rule="evenodd"/><path d="M1084 709.5C1084 704.253 1088.25 700 1093.5 700L1150.5 700C1155.75 700 1160 704.253 1160 709.5L1160 709.5C1160 714.747 1155.75 719 1150.5 719L1093.5 719C1088.25 719 1084 714.747 1084 709.5Z" fill="#2564EB" fill-rule="evenodd"/><path d="M1179 629.5C1179 627.015 1181.01 625 1183.5 625L1249.5 625C1251.99 625 1254 627.015 1254 629.5L1254 629.5C1254 631.985 1251.99 634 1249.5 634L1183.5 634C1181.01 634 1179 631.985 1179 629.5Z" fill="#ABABAB" fill-rule="evenodd"/><path d="M1179 648C1179 645.239 1181.24 643 1184 643L1249 643C1251.76 643 1254 645.239 1254 648L1254 648C1254 650.761 1251.76 653 1249 653L1184 653C1181.24 653 1179 650.761 1179 648Z" fill="#D9D9D9" fill-rule="evenodd"/><path d="M1179 667C1179 664.239 1181.24 662 1184 662L1249 662C1251.76 662 1254 664.239 1254 667L1254 667C1254 669.761 1251.76 672 1249 672L1184 672C1181.24 672 1179 669.761 1179 667Z" fill="#ABABAB" fill-rule="evenodd"/><path d="M1179 686C1179 683.239 1181.24 681 1184 681L1249 681C1251.76 681 1254 683.239 1254 686L1254 686C1254 688.761 1251.76 691 1249 691L1184 691C1181.24 691 1179 688.761 1179 686Z" fill="#D9D9D9" fill-rule="evenodd"/><path d="M1179 705C1179 702.239 1181.24 700 1184 700L1249 700C1251.76 700 1254 702.239 1254 705L1254 705C1254 707.761 1251.76 710 1249 710L1184 710C1181.24 710 1179 707.761 1179 705Z" fill="#ABABAB" fill-rule="evenodd"/></g></svg>