<svg width="322" height="191" xmlns="http://www.w3.org/2000/svg" xmlns:xlink="http://www.w3.org/1999/xlink" overflow="hidden"><g transform="translate(-961 -548)"><rect x="961" y="549" width="322" height="189" fill="#FFFFFF"/><path d="M1150 601C1150 598.239 1152.24 596 1155 596L1164 596C1166.76 596 1169 598.239 1169 601L1169 601C1169 603.761 1166.76 606 1164 606L1155 606C1152.24 606 1150 603.761 1150 601Z" fill="#BFBFBF" fill-rule="evenodd"/><path d="M1075 601C1075 598.239 1077.24 596 1080 596L1136 596C1138.76 596 1141 598.239 1141 601L1141 601C1141 603.761 1138.76 606 1136 606L1080 606C1077.24 606 1075 603.761 1075 601Z" fill="#BFBFBF" fill-rule="evenodd"/><path d="M990 629.411C990 626.975 991.975 625 994.411 625L1060.59 625C1063.03 625 1065 626.975 1065 629.411L1065 714.589C1065 717.025 1063.03 719 1060.59 719L994.411 719C991.975 719 990 717.025 990 714.589Z" fill="#D9D9D9" fill-rule="evenodd"/><path d="M1046 705C1046 702.239 1048.24 700 1051 700L1051 700C1053.76 700 1056 702.239 1056 705L1056 705C1056 707.761 1053.76 710 1051 710L1051 710C1048.24 710 1046 707.761 1046 705Z" fill="#FFFFFF" fill-rule="evenodd"/><path d="M999 705C999 702.239 1001.24 700 1004 700L1032 700C1034.76 700 1037 702.239 1037 705L1037 705C1037 707.761 1034.76 710 1032 710L1004 710C1001.24 710 999 707.761 999 705Z" fill="#FFFFFF" fill-rule="evenodd"/><path d="M1018 577.5C1018 572.253 1022.25 568 1027.5 568L1140.5 568C1145.75 568 1150 572.253 1150 577.5L1150 577.5C1150 582.747 1145.75 587 1140.5 587L1027.5 587C1022.25 587 1018 582.747 1018 577.5Z" fill="#404040" fill-rule="evenodd"/><path d="M1160 577.5C1160 572.253 1164.25 568 1169.5 568L1216.5 568C1221.75 568 1226 572.253 1226 577.5L1226 577.5C1226 582.747 1221.75 587 1216.5 587L1169.5 587C1164.25 587 1160 582.747 1160 577.5Z" fill="#404040" fill-rule="evenodd"/><path d="M999 686C999 683.239 1001.24 681 1004 681L1051 681C1053.76 681 1056 683.239 1056 686L1056 686C1056 688.761 1053.76 691 1051 691L1004 691C1001.24 691 999 688.761 999 686Z" fill="#FFFFFF" fill-rule="evenodd"/><path d="M1018 667C1018 664.239 1020.24 662 1023 662L1051 662C1053.76 662 1056 664.239 1056 667L1056 667C1056 669.761 1053.76 672 1051 672L1023 672C1020.24 672 1018 669.761 1018 667Z" fill="#FFFFFF" fill-rule="evenodd"/><path d="M999 667C999 664.239 1001.24 662 1004 662L1004 662C1006.76 662 1009 664.239 1009 667L1009 667C1009 669.761 1006.76 672 1004 672L1004 672C1001.24 672 999 669.761 999 667Z" fill="#FFFFFF" fill-rule="evenodd"/><path d="M1009 648C1009 645.239 1011.24 643 1014 643L1041 643C1043.76 643 1046 645.239 1046 648L1046 648C1046 650.761 1043.76 653 1041 653L1014 653C1011.24 653 1009 650.761 1009 648Z" fill="#404040" fill-rule="evenodd"/><path d="M1084.5 629.97C1084.5 627.501 1086.5 625.5 1088.97 625.5L1156.03 625.5C1158.5 625.5 1160.5 627.501 1160.5 629.97L1160.5 715.031C1160.5 717.499 1158.5 719.5 1156.03 719.5L1088.97 719.5C1086.5 719.5 1084.5 717.499 1084.5 715.031Z" stroke="#2564EB" stroke-width="5.33333" stroke-miterlimit="8" fill="#D9D9D9" fill-rule="evenodd"/><path d="M1141 704.5C1141 702.015 1143.01 700 1145.5 700L1145.5 700C1147.99 700 1150 702.015 1150 704.5L1150 705.5C1150 707.985 1147.99 710 1145.5 710L1145.5 710C1143.01 710 1141 707.985 1141 705.5Z" fill="#FFFFFF" fill-rule="evenodd"/><path d="M1094 705C1094 702.239 1096.24 700 1099 700L1126 700C1128.76 700 1131 702.239 1131 705L1131 705C1131 707.761 1128.76 710 1126 710L1099 710C1096.24 710 1094 707.761 1094 705Z" fill="#FFFFFF" fill-rule="evenodd"/><path d="M1094 686C1094 683.239 1096.24 681 1099 681L1145 681C1147.76 681 1150 683.239 1150 686L1150 686C1150 688.761 1147.76 691 1145 691L1099 691C1096.24 691 1094 688.761 1094 686Z" fill="#FFFFFF" fill-rule="evenodd"/><path d="M1112 667C1112 664.239 1114.24 662 1117 662L1145 662C1147.76 662 1150 664.239 1150 667L1150 667C1150 669.761 1147.76 672 1145 672L1117 672C1114.24 672 1112 669.761 1112 667Z" fill="#FFFFFF" fill-rule="evenodd"/><path d="M1094 666.5C1094 664.015 1096.01 662 1098.5 662L1098.5 662C1100.99 662 1103 664.015 1103 666.5L1103 667.5C1103 669.985 1100.99 672 1098.5 672L1098.5 672C1096.01 672 1094 669.985 1094 667.5Z" fill="#FFFFFF" fill-rule="evenodd"/><path d="M1103 648C1103 645.239 1105.24 643 1108 643L1136 643C1138.76 643 1141 645.239 1141 648L1141 648C1141 650.761 1138.76 653 1136 653L1108 653C1105.24 653 1103 650.761 1103 648Z" fill="#404040" fill-rule="evenodd"/><path d="M1179 629.411C1179 626.975 1180.97 625 1183.41 625L1249.59 625C1252.03 625 1254 626.975 1254 629.411L1254 714.589C1254 717.025 1252.03 719 1249.59 719L1183.41 719C1180.97 719 1179 717.025 1179 714.589Z" fill="#D9D9D9" fill-rule="evenodd"/><path d="M1235 705C1235 702.239 1237.24 700 1240 700L1240 700C1242.76 700 1245 702.239 1245 705L1245 705C1245 707.761 1242.76 710 1240 710L1240 710C1237.24 710 1235 707.761 1235 705Z" fill="#FFFFFF" fill-rule="evenodd"/><path d="M1188 705C1188 702.239 1190.24 700 1193 700L1221 700C1223.76 700 1226 702.239 1226 705L1226 705C1226 707.761 1223.76 710 1221 710L1193 710C1190.24 710 1188 707.761 1188 705Z" fill="#FFFFFF" fill-rule="evenodd"/><path d="M1188 686C1188 683.239 1190.24 681 1193 681L1240 681C1242.76 681 1245 683.239 1245 686L1245 686C1245 688.761 1242.76 691 1240 691L1193 691C1190.24 691 1188 688.761 1188 686Z" fill="#FFFFFF" fill-rule="evenodd"/><path d="M1207 667C1207 664.239 1209.24 662 1212 662L1240 662C1242.76 662 1245 664.239 1245 667L1245 667C1245 669.761 1242.76 672 1240 672L1212 672C1209.24 672 1207 669.761 1207 667Z" fill="#FFFFFF" fill-rule="evenodd"/><path d="M1188 666.5C1188 664.015 1190.01 662 1192.5 662L1192.5 662C1194.99 662 1197 664.015 1197 666.5L1197 667.5C1197 669.985 1194.99 672 1192.5 672L1192.5 672C1190.01 672 1188 669.985 1188 667.5Z" fill="#FFFFFF" fill-rule="evenodd"/><path d="M1197 648C1197 645.239 1199.24 643 1202 643L1230 643C1232.76 643 1235 645.239 1235 648L1235 648C1235 650.761 1232.76 653 1230 653L1202 653C1199.24 653 1197 650.761 1197 648Z" fill="#404040" fill-rule="evenodd"/><path d="M1094 624.5C1094 619.253 1098.25 615 1103.5 615L1140.5 615C1145.75 615 1150 619.253 1150 624.5L1150 624.5C1150 629.747 1145.75 634 1140.5 634L1103.5 634C1098.25 634 1094 629.747 1094 624.5Z" fill="#2564EB" fill-rule="evenodd"/></g></svg>