<svg width="322" height="191" xmlns="http://www.w3.org/2000/svg" xmlns:xlink="http://www.w3.org/1999/xlink" overflow="hidden"><g transform="translate(-961 -548)"><rect x="961" y="549" width="322" height="189" fill="#FFFFFF"/><path d="M1150 620C1150 617.239 1152.24 615 1155 615L1164 615C1166.76 615 1169 617.239 1169 620L1169 620C1169 622.761 1166.76 625 1164 625L1155 625C1152.24 625 1150 622.761 1150 620Z" fill="#BFBFBF" fill-rule="evenodd"/><path d="M1075 620C1075 617.239 1077.24 615 1080 615L1136 615C1138.76 615 1141 617.239 1141 620L1141 620C1141 622.761 1138.76 625 1136 625L1080 625C1077.24 625 1075 622.761 1075 620Z" fill="#BFBFBF" fill-rule="evenodd"/><path d="M1018 596.5C1018 591.253 1022.25 587 1027.5 587L1140.5 587C1145.75 587 1150 591.253 1150 596.5L1150 596.5C1150 601.747 1145.75 606 1140.5 606L1027.5 606C1022.25 606 1018 601.747 1018 596.5Z" fill="#404040" fill-rule="evenodd"/><path d="M1160 596C1160 591.029 1164.03 587 1169 587L1217 587C1221.97 587 1226 591.029 1226 596L1226 596C1226 600.971 1221.97 605 1217 605L1169 605C1164.03 605 1160 600.971 1160 596Z" fill="#404040" fill-rule="evenodd"/><path d="M990 642.021C990 640.353 991.353 639 993.021 639L1108.98 639C1110.65 639 1112 640.353 1112 642.021L1112 701.979C1112 703.647 1110.65 705 1108.98 705L993.021 705C991.353 705 990 703.647 990 701.979Z" fill="#D9D9D9" fill-rule="evenodd"/><path d="M994 648C994 645.239 996.239 643 999 643L1055 643C1057.76 643 1060 645.239 1060 648L1060 648C1060 650.761 1057.76 653 1055 653L999 653C996.239 653 994 650.761 994 648Z" fill="#C00000" fill-rule="evenodd"/><path d="M1004 667C1004 664.239 1006.24 662 1009 662L1103 662C1105.76 662 1108 664.239 1108 667L1108 667C1108 669.762 1105.76 672 1103 672L1009 672C1006.24 672 1004 669.761 1004 667Z" fill="#BFBFBF" fill-rule="evenodd"/><path d="M1004 681.5C1004 679.015 1006.01 677 1008.5 677L1103.5 677C1105.99 677 1108 679.015 1108 681.5L1108 681.5C1108 683.985 1105.99 686 1103.5 686L1008.5 686C1006.01 686 1004 683.985 1004 681.5Z" fill="#BFBFBF" fill-rule="evenodd"/><path d="M1004 695.5C1004 693.015 1006.01 691 1008.5 691L1103.5 691C1105.99 691 1108 693.015 1108 695.5L1108 695.5C1108 697.985 1105.99 700 1103.5 700L1008.5 700C1006.01 700 1004 697.985 1004 695.5Z" fill="#BFBFBF" fill-rule="evenodd"/><path d="M1131 642.021C1131 640.353 1132.35 639 1134.02 639L1250.98 639C1252.65 639 1254 640.353 1254 642.021L1254 701.979C1254 703.647 1252.65 705 1250.98 705L1134.02 705C1132.35 705 1131 703.647 1131 701.979Z" fill="#D9D9D9" fill-rule="evenodd"/><path d="M1136 648C1136 645.239 1138.24 643 1141 643L1197 643C1199.76 643 1202 645.239 1202 648L1202 648C1202 650.761 1199.76 653 1197 653L1141 653C1138.24 653 1136 650.761 1136 648Z" fill="#00B050" fill-rule="evenodd"/><path d="M1146 667C1146 664.239 1148.24 662 1151 662L1244 662C1246.76 662 1249 664.239 1249 667L1249 667C1249 669.761 1246.76 672 1244 672L1151 672C1148.24 672 1146 669.761 1146 667Z" fill="#BFBFBF" fill-rule="evenodd"/><path d="M1146 681.5C1146 679.015 1148.01 677 1150.5 677L1244.5 677C1246.99 677 1249 679.015 1249 681.5L1249 681.5C1249 683.985 1246.99 686 1244.5 686L1150.5 686C1148.01 686 1146 683.985 1146 681.5Z" fill="#BFBFBF" fill-rule="evenodd"/><path d="M1146 695.5C1146 693.015 1148.01 691 1150.5 691L1244.5 691C1246.99 691 1249 693.015 1249 695.5L1249 695.5C1249 697.985 1246.99 700 1244.5 700L1150.5 700C1148.01 700 1146 697.985 1146 695.5Z" fill="#BFBFBF" fill-rule="evenodd"/></g></svg>