<svg width="322" height="191" xmlns="http://www.w3.org/2000/svg" xmlns:xlink="http://www.w3.org/1999/xlink" overflow="hidden"><g transform="translate(-961 -548)"><rect x="961" y="549" width="322" height="189" fill="#FFFFFF"/><path d="M990 624.5C990 619.253 994.253 615 999.5 615L1084.5 615C1089.75 615 1094 619.253 1094 624.5L1094 624.5C1094 629.747 1089.75 634 1084.5 634L999.5 634C994.253 634 990 629.747 990 624.5Z" fill="#404040" fill-rule="evenodd"/><path d="M990 648C990 645.239 992.239 643 995 643L1107 643C1109.76 643 1112 645.239 1112 648L1112 648C1112 650.761 1109.76 653 1107 653L995 653C992.239 653 990 650.761 990 648Z" fill="#ABABAB" fill-rule="evenodd"/><path d="M990 667C990 664.239 992.239 662 995 662L1041 662C1043.76 662 1046 664.239 1046 667L1046 667C1046 669.761 1043.76 672 1041 672L995 672C992.239 672 990 669.761 990 667Z" fill="#ABABAB" fill-rule="evenodd"/><path d="M1131 655.876C1131 651.526 1134.53 648 1138.88 648L1246.12 648C1250.47 648 1254 651.526 1254 655.876L1254 697.124C1254 701.474 1250.47 705 1246.12 705L1138.88 705C1134.53 705 1131 701.474 1131 697.124Z" fill="#D9D9D9" fill-rule="evenodd"/><path d="M1222.79 692.866 1209.24 671.623C1209 671.234 1208.57 670.997 1208.11 671 1207.64 671 1207.21 671.235 1206.96 671.623L1203 677.873 1211.49 691.386C1212.21 692.455 1212.36 693.798 1211.91 694.998L1221.5 694.998C1222.29 695.037 1222.96 694.441 1223 693.668 1223.01 693.386 1222.94 693.107 1222.79 692.866Z" fill="#A6A6A6" fill-rule="evenodd"/><path d="M1207.75 692.982 1186.8 658.536C1186.53 658.185 1186.11 657.986 1185.67 658.001L1185.5 658.001 1185.33 658.001C1184.89 657.986 1184.47 658.185 1184.2 658.536L1163.25 692.982C1162.96 693.402 1162.92 693.954 1163.15 694.413 1163.38 694.83 1163.85 695.058 1164.31 694.987L1206.69 694.987C1207.15 695.058 1207.62 694.83 1207.85 694.413 1208.08 693.954 1208.04 693.402 1207.75 692.982ZM1189.01 674.674 1185.67 677.672 1182.34 674.674 1176.83 678.042 1185.5 663.841 1193.94 677.672Z" fill="#A6A6A6" fill-rule="evenodd"/><path d="M1176 660.5C1176 661.881 1174.66 663 1173 663 1171.34 663 1170 661.881 1170 660.5 1170 659.119 1171.34 658 1173 658 1174.66 658 1176 659.119 1176 660.5Z" fill="#A6A6A6" fill-rule="evenodd"/><path d="M1131 589.876C1131 585.526 1134.53 582 1138.88 582L1246.12 582C1250.47 582 1254 585.526 1254 589.876L1254 631.124C1254 635.474 1250.47 639 1246.12 639L1138.88 639C1134.53 639 1131 635.474 1131 631.124Z" fill="#D9D9D9" fill-rule="evenodd"/><path d="M1222.79 626.866 1209.24 605.623C1209 605.234 1208.57 604.997 1208.11 605 1207.64 605 1207.21 605.235 1206.96 605.623L1203 611.873 1211.49 625.386C1212.21 626.455 1212.36 627.798 1211.91 628.998L1221.5 628.998C1222.29 629.037 1222.96 628.441 1223 627.668 1223.01 627.386 1222.94 627.107 1222.79 626.866Z" fill="#A6A6A6" fill-rule="evenodd"/><path d="M1207.75 626.982 1186.8 592.536C1186.53 592.185 1186.11 591.986 1185.67 592.001L1185.5 592.001 1185.33 592.001C1184.89 591.986 1184.47 592.185 1184.2 592.536L1163.25 626.982C1162.96 627.402 1162.92 627.954 1163.15 628.413 1163.38 628.83 1163.85 629.058 1164.31 628.987L1206.69 628.987C1207.15 629.058 1207.62 628.83 1207.85 628.413 1208.08 627.954 1208.04 627.402 1207.75 626.982ZM1189.01 608.674 1185.67 611.672 1182.34 608.674 1176.83 612.042 1185.5 597.841 1193.94 611.672Z" fill="#A6A6A6" fill-rule="evenodd"/><path d="M1176 594C1176 595.657 1174.66 597 1173 597 1171.34 597 1170 595.657 1170 594 1170 592.343 1171.34 591 1173 591 1174.66 591 1176 592.343 1176 594Z" fill="#A6A6A6" fill-rule="evenodd"/></g></svg>