<svg width="322" height="191" xmlns="http://www.w3.org/2000/svg"
    xmlns:xlink="http://www.w3.org/1999/xlink" overflow="hidden">
    <g transform="translate(-961 -529)">
        <rect x="961" y="530" width="322" height="189" fill="#FFFFFF" />
        <path
            d="M990 590.881C990 588.738 991.738 587 993.881 587L1061.12 587C1063.26 587 1065 588.738 1065 590.881L1065 649.119C1065 651.262 1063.26 653 1061.12 653L993.881 653C991.738 653 990 651.262 990 649.119Z"
            fill="#BFBFBF" fill-rule="evenodd" />
        <path
            d="M990 558.5C990 553.253 994.253 549 999.5 549L1074.5 549C1079.75 549 1084 553.253 1084 558.5L1084 558.5C1084 563.747 1079.75 568 1074.5 568L999.5 568C994.253 568 990 563.747 990 558.5Z"
            fill="#404040" fill-rule="evenodd" />
        <path
            d="M1235 553.5C1235 551.015 1237.01 549 1239.5 549L1249.5 549C1251.99 549 1254 551.015 1254 553.5L1254 553.5C1254 555.985 1251.99 558 1249.5 558L1239.5 558C1237.01 558 1235 555.985 1235 553.5Z"
            fill="#BFBFBF" fill-rule="evenodd" />
        <path
            d="M1150 553.5C1150 551.015 1152.01 549 1154.5 549L1221.5 549C1223.99 549 1226 551.015 1226 553.5L1226 553.5C1226 555.985 1223.99 558 1221.5 558L1154.5 558C1152.01 558 1150 555.985 1150 553.5Z"
            fill="#BFBFBF" fill-rule="evenodd" />
        <path
            d="M1084 590.881C1084 588.738 1085.74 587 1087.88 587L1156.12 587C1158.26 587 1160 588.738 1160 590.881L1160 649.119C1160 651.262 1158.26 653 1156.12 653L1087.88 653C1085.74 653 1084 651.262 1084 649.119Z"
            fill="#BFBFBF" fill-rule="evenodd" />
        <path
            d="M1179 590.881C1179 588.738 1180.74 587 1182.88 587L1250.12 587C1252.26 587 1254 588.738 1254 590.881L1254 649.119C1254 651.262 1252.26 653 1250.12 653L1182.88 653C1180.74 653 1179 651.262 1179 649.119Z"
            fill="#BFBFBF" fill-rule="evenodd" />
        <path
            d="M993.822 662 1250.18 662C1252.29 662 1254 663.711 1254 665.822L1254 719 990 719 990 665.822C990 663.711 991.711 662 993.822 662Z"
            fill="#D9D9D9" fill-rule="evenodd" />
    </g>
</svg>