<svg width="322" height="191" xmlns="http://www.w3.org/2000/svg" xmlns:xlink="http://www.w3.org/1999/xlink" overflow="hidden"><g transform="translate(-961 -548)"><rect x="961" y="549" width="322" height="189" fill="#FFFFFF"/><path d="M990 645.609C990 644.168 991.168 643 992.609 643L1062.39 643C1063.83 643 1065 644.168 1065 645.609L1065 697.391C1065 698.832 1063.83 700 1062.39 700L992.609 700C991.168 700 990 698.832 990 697.391Z" fill="#D9D9D9" fill-rule="evenodd"/><path d="M994 676.5C994 674.015 996.015 672 998.5 672L1055.5 672C1057.99 672 1060 674.015 1060 676.5L1060 676.5C1060 678.985 1057.99 681 1055.5 681L998.5 681C996.015 681 994 678.985 994 676.5Z" fill="#404040" fill-rule="evenodd"/><path d="M994 690.5C994 688.015 996.015 686 998.5 686L1055.5 686C1057.99 686 1060 688.015 1060 690.5L1060 690.5C1060 692.985 1057.99 695 1055.5 695L998.5 695C996.015 695 994 692.985 994 690.5Z" fill="#BFBFBF" fill-rule="evenodd"/><path d="M994 657.5C994 652.253 998.253 648 1003.5 648 1008.75 648 1013 652.253 1013 657.5 1013 662.747 1008.75 667 1003.5 667 998.253 667 994 662.747 994 657.5Z" fill="#2564EB" fill-rule="evenodd"/><path d="M1084 645.609C1084 644.168 1085.17 643 1086.61 643L1157.39 643C1158.83 643 1160 644.168 1160 645.609L1160 697.391C1160 698.832 1158.83 700 1157.39 700L1086.61 700C1085.17 700 1084 698.832 1084 697.391Z" fill="#D9D9D9" fill-rule="evenodd"/><path d="M1089 676.5C1089 674.015 1091.01 672 1093.5 672L1150.5 672C1152.99 672 1155 674.015 1155 676.5L1155 676.5C1155 678.985 1152.99 681 1150.5 681L1093.5 681C1091.01 681 1089 678.985 1089 676.5Z" fill="#404040" fill-rule="evenodd"/><path d="M1089 690.5C1089 688.015 1091.01 686 1093.5 686L1150.5 686C1152.99 686 1155 688.015 1155 690.5L1155 690.5C1155 692.985 1152.99 695 1150.5 695L1093.5 695C1091.01 695 1089 692.985 1089 690.5Z" fill="#BFBFBF" fill-rule="evenodd"/><path d="M1089 657.5C1089 652.253 1093.25 648 1098.5 648 1103.75 648 1108 652.253 1108 657.5 1108 662.747 1103.75 667 1098.5 667 1093.25 667 1089 662.747 1089 657.5Z" fill="#2564EB" fill-rule="evenodd"/><path d="M1179 645.609C1179 644.168 1180.17 643 1181.61 643L1251.39 643C1252.83 643 1254 644.168 1254 645.609L1254 697.391C1254 698.832 1252.83 700 1251.39 700L1181.61 700C1180.17 700 1179 698.832 1179 697.391Z" fill="#D9D9D9" fill-rule="evenodd"/><path d="M1183 676.5C1183 674.015 1185.01 672 1187.5 672L1244.5 672C1246.99 672 1249 674.015 1249 676.5L1249 676.5C1249 678.985 1246.99 681 1244.5 681L1187.5 681C1185.01 681 1183 678.985 1183 676.5Z" fill="#404040" fill-rule="evenodd"/><path d="M1183 690.5C1183 688.015 1185.01 686 1187.5 686L1244.5 686C1246.99 686 1249 688.015 1249 690.5L1249 690.5C1249 692.985 1246.99 695 1244.5 695L1187.5 695C1185.01 695 1183 692.985 1183 690.5Z" fill="#BFBFBF" fill-rule="evenodd"/><path d="M1183 657.5C1183 652.253 1187.25 648 1192.5 648 1197.75 648 1202 652.253 1202 657.5 1202 662.747 1197.75 667 1192.5 667 1187.25 667 1183 662.747 1183 657.5Z" fill="#2564EB" fill-rule="evenodd"/><path d="M1150 620C1150 617.239 1152.24 615 1155 615L1164 615C1166.76 615 1169 617.239 1169 620L1169 620C1169 622.761 1166.76 625 1164 625L1155 625C1152.24 625 1150 622.761 1150 620Z" fill="#BFBFBF" fill-rule="evenodd"/><path d="M1075 620C1075 617.239 1077.24 615 1080 615L1136 615C1138.76 615 1141 617.239 1141 620L1141 620C1141 622.761 1138.76 625 1136 625L1080 625C1077.24 625 1075 622.761 1075 620Z" fill="#BFBFBF" fill-rule="evenodd"/><path d="M1018 596.5C1018 591.253 1022.25 587 1027.5 587L1140.5 587C1145.75 587 1150 591.253 1150 596.5L1150 596.5C1150 601.747 1145.75 606 1140.5 606L1027.5 606C1022.25 606 1018 601.747 1018 596.5Z" fill="#404040" fill-rule="evenodd"/><path d="M1160 596C1160 591.029 1164.03 587 1169 587L1217 587C1221.97 587 1226 591.029 1226 596L1226 596C1226 600.971 1221.97 605 1217 605L1169 605C1164.03 605 1160 600.971 1160 596Z" fill="#404040" fill-rule="evenodd"/></g></svg>