<svg width="322" height="191" xmlns="http://www.w3.org/2000/svg" xmlns:xlink="http://www.w3.org/1999/xlink" overflow="hidden"><g transform="translate(-961 -548)"><rect x="961" y="549" width="322" height="189" fill="#FFFFFF"/><path d="M1065 601C1065 598.239 1067.24 596 1070 596L1079 596C1081.76 596 1084 598.239 1084 601L1084 601C1084 603.761 1081.76 606 1079 606L1070 606C1067.24 606 1065 603.761 1065 601Z" fill="#BFBFBF" fill-rule="evenodd"/><path d="M990 601C990 598.239 992.239 596 995 596L1051 596C1053.76 596 1056 598.239 1056 601L1056 601C1056 603.761 1053.76 606 1051 606L995 606C992.239 606 990 603.761 990 601Z" fill="#BFBFBF" fill-rule="evenodd"/><path d="M990 630.732C990 627.566 992.566 625 995.732 625L1059.27 625C1062.43 625 1065 627.566 1065 630.732L1065 637.268C1065 640.434 1062.43 643 1059.27 643L995.732 643C992.566 643 990 640.434 990 637.268Z" fill="#2564EB" fill-rule="evenodd"/><path d="M990 577.5C990 572.253 994.253 568 999.5 568L1112.5 568C1117.75 568 1122 572.253 1122 577.5L1122 577.5C1122 582.747 1117.75 587 1112.5 587L999.5 587C994.253 587 990 582.747 990 577.5Z" fill="#404040" fill-rule="evenodd"/><path d="M1131 577.5C1131 572.253 1135.25 568 1140.5 568L1187.5 568C1192.75 568 1197 572.253 1197 577.5L1197 577.5C1197 582.747 1192.75 587 1187.5 587L1140.5 587C1135.25 587 1131 582.747 1131 577.5Z" fill="#404040" fill-rule="evenodd"/><path d="M1084 630.732C1084 627.566 1086.57 625 1089.73 625L1154.27 625C1157.43 625 1160 627.566 1160 630.732L1160 637.268C1160 640.434 1157.43 643 1154.27 643L1089.73 643C1086.57 643 1084 640.434 1084 637.268Z" fill="#D9D9D9" fill-rule="evenodd"/><path d="M1179 630.732C1179 627.566 1181.57 625 1184.73 625L1248.27 625C1251.43 625 1254 627.566 1254 630.732L1254 637.268C1254 640.434 1251.43 643 1248.27 643L1184.73 643C1181.57 643 1179 640.434 1179 637.268Z" fill="#D9D9D9" fill-rule="evenodd"/><path d="M990 658.053C990 655.262 992.262 653 995.053 653L1248.95 653C1251.74 653 1254 655.262 1254 658.053L1254 713.947C1254 716.738 1251.74 719 1248.95 719L995.053 719C992.262 719 990 716.738 990 713.947Z" fill="#D9D9D9" fill-rule="evenodd"/></g></svg>