<svg width="323" height="191" xmlns="http://www.w3.org/2000/svg" overflow="hidden">
  <path fill="#FFF" d="M959 531h321v189H959z" transform="translate(-958 -530)"/>
  <path d="M987 559.5a9.5 9.5 0 0 1 9.5-9.5h76c5.25 0 9.5 4.253 9.5 9.5s-4.25 9.5-9.5 9.5h-76a9.5 9.5 0 0 1-9.5-9.5" fill="#404040" fill-rule="evenodd" transform="translate(-958 -530)"/>
  <path d="M1233 554.5c0-2.485 2.01-4.5 4.5-4.5h10c2.49 0 4.5 2.015 4.5 4.5s-2.01 4.5-4.5 4.5h-10c-2.49 0-4.5-2.015-4.5-4.5m-246 40.146a6.645 6.645 0 0 1 6.646-6.646h109.704a6.65 6.65 0 0 1 6.65 6.646v99.708a6.65 6.65 0 0 1-6.65 6.646H993.646a6.645 6.645 0 0 1-6.646-6.646Z" fill="#BFBFBF" fill-rule="evenodd" transform="translate(-958 -530)"/>
  <path d="m1083.75 665.422-16.26-25.669a1.59 1.59 0 0 0-1.36-.753c-.56 0-1.08.284-1.38.753l-4.75 7.552 10.19 16.328a4.8 4.8 0 0 1 .5 4.365h11.51c.95.047 1.75-.673 1.8-1.607.02-.341-.07-.679-.25-.969m-17.07.124-26.06-41.894a1.72 1.72 0 0 0-1.4-.651h-.44a1.72 1.72 0 0 0-1.4.651l-26.06 41.894c-.37.51-.42 1.181-.13 1.74.29.507.86.784 1.45.699h52.72c.59.085 1.16-.192 1.45-.699.29-.559.24-1.23-.13-1.74m-23.32-22.267-4.14 3.646-4.15-3.646-6.86 4.096 10.79-17.271 10.5 16.821ZM1027 625.5c0 1.933-1.57 3.5-3.5 3.5s-3.5-1.567-3.5-3.5 1.57-3.5 3.5-3.5 3.5 1.567 3.5 3.5" fill="#FFF" fill-rule="evenodd" transform="translate(-958 -530)"/>
  <path d="M1148 554.5c0-2.485 2.01-4.5 4.5-4.5h66c2.49 0 4.5 2.015 4.5 4.5s-2.01 4.5-4.5 4.5h-66c-2.49 0-4.5-2.015-4.5-4.5m-19 40.146a6.65 6.65 0 0 1 6.65-6.646h109.7a6.65 6.65 0 0 1 6.65 6.646v99.708a6.65 6.65 0 0 1-6.65 6.646h-109.7a6.65 6.65 0 0 1-6.65-6.646Z" fill="#BFBFBF" fill-rule="evenodd" transform="translate(-958 -530)"/>
  <path d="m1225.75 665.422-16.26-25.669a1.59 1.59 0 0 0-1.36-.753c-.56 0-1.08.284-1.38.753l-4.75 7.552 10.19 16.328a4.8 4.8 0 0 1 .5 4.365h11.51c.95.047 1.75-.673 1.8-1.607.02-.341-.07-.679-.25-.969m-18.06.124-25.6-41.894a1.67 1.67 0 0 0-1.38-.651h-.42a1.67 1.67 0 0 0-1.38.651l-25.6 41.894c-.36.51-.41 1.181-.13 1.74.29.507.85.784 1.43.699h51.78c.58.085 1.14-.192 1.43-.699.28-.559.23-1.23-.13-1.74m-22.91-22.267-4.07 3.646-4.07-3.646-6.73 4.096 10.59-17.271 10.31 16.821ZM1169 625.5c0 1.933-1.57 3.5-3.5 3.5s-3.5-1.567-3.5-3.5 1.57-3.5 3.5-3.5 3.5 1.567 3.5 3.5" fill="#FFF" fill-rule="evenodd" transform="translate(-958 -530)"/>
</svg>
