<svg width="322" height="191" xmlns="http://www.w3.org/2000/svg" xmlns:xlink="http://www.w3.org/1999/xlink" overflow="hidden">
  <g transform="translate(-961 -529)">
    <rect x="961" y="530" width="322" height="189" fill="#FFFFFF"/>
    <path d="M1018 549C1018 544.029 1022.03 540 1027 540L1151 540C1155.97 540 1160 544.029 1160 549L1160 549C1160 553.971 1155.97 558 1151 558L1027 558C1022.03 558 1018 553.971 1018 549Z" fill="#404040" fill-rule="evenodd"/>
    <path d="M990 591.95C990 589.216 992.216 587 994.95 587L1107.05 587C1109.78 587 1112 589.216 1112 591.95L1112 705.05C1112 707.784 1109.78 710 1107.05 710L994.95 710C992.216 710 990 707.784 990 705.05Z" fill="#D9D9D9" fill-rule="evenodd"/>
    <path d="M1037 666.5C1037 664.015 1039.01 662 1041.5 662L1041.5 662C1043.99 662 1046 664.015 1046 666.5L1046 667.5C1046 669.985 1043.99 672 1041.5 672L1041.5 672C1039.01 672 1037 669.985 1037 667.5Z" fill="#FFFFFF" fill-rule="evenodd"/>
    <path d="M999 667C999 664.239 1001.24 662 1004 662L1022 662C1024.76 662 1027 664.239 1027 667L1027 667C1027 669.761 1024.76 672 1022 672L1004 672C1001.24 672 999 669.761 999 667Z" fill="#FFFFFF" fill-rule="evenodd"/>
    <path d="M1169 549C1169 544.029 1173.03 540 1178 540L1217 540C1221.97 540 1226 544.029 1226 549L1226 549C1226 553.971 1221.97 558 1217 558L1178 558C1173.03 558 1169 553.971 1169 549Z" fill="#404040" fill-rule="evenodd"/>
    <path d="M999 684.167C999 682.418 1000.42 681 1002.17 681L1052.83 681C1054.58 681 1056 682.418 1056 684.167L1056 696.833C1056 698.582 1054.58 700 1052.83 700L1002.17 700C1000.42 700 999 698.582 999 696.833Z" fill="#404040" fill-rule="evenodd"/>
    <path d="M1056 667C1056 664.239 1058.24 662 1061 662L1098 662C1100.76 662 1103 664.239 1103 667L1103 667C1103 669.761 1100.76 672 1098 672L1061 672C1058.24 672 1056 669.761 1056 667Z" fill="#FFFFFF" fill-rule="evenodd"/>
    <path d="M1131 591.99C1131 589.234 1133.23 587 1135.99 587L1249.01 587C1251.77 587 1254 589.234 1254 591.99L1254 705.01C1254 707.766 1251.77 710 1249.01 710L1135.99 710C1133.23 710 1131 707.766 1131 705.01Z" fill="#D9D9D9" fill-rule="evenodd"/>
    <path d="M1179 666.5C1179 664.015 1181.01 662 1183.5 662L1183.5 662C1185.99 662 1188 664.015 1188 666.5L1188 667.5C1188 669.985 1185.99 672 1183.5 672L1183.5 672C1181.01 672 1179 669.985 1179 667.5Z" fill="#FFFFFF" fill-rule="evenodd"/>
    <path d="M1141 667C1141 664.239 1143.24 662 1146 662L1164 662C1166.76 662 1169 664.239 1169 667L1169 667C1169 669.761 1166.76 672 1164 672L1146 672C1143.24 672 1141 669.761 1141 667Z" fill="#FFFFFF" fill-rule="evenodd"/>
    <path d="M1141 684.167C1141 682.418 1142.42 681 1144.17 681L1193.83 681C1195.58 681 1197 682.418 1197 684.167L1197 696.833C1197 698.582 1195.58 700 1193.83 700L1144.17 700C1142.42 700 1141 698.582 1141 696.833Z" fill="#404040" fill-rule="evenodd"/>
    <path d="M1197 667C1197 664.239 1199.24 662 1202 662L1240 662C1242.76 662 1245 664.239 1245 667L1245 667C1245 669.761 1242.76 672 1240 672L1202 672C1199.24 672 1197 669.761 1197 667Z" fill="#FFFFFF" fill-rule="evenodd"/>
    <path d="M1018 572.5C1018 570.015 1020.01 568 1022.5 568L1079.5 568C1081.99 568 1084 570.015 1084 572.5L1084 572.5C1084 574.985 1081.99 577 1079.5 577L1022.5 577C1020.01 577 1018 574.985 1018 572.5Z" fill="#BFBFBF" fill-rule="evenodd"/>
    <path d="M1094 572.5C1094 570.015 1096.01 568 1098.5 568L1221.5 568C1223.99 568 1226 570.015 1226 572.5L1226 572.5C1226 574.985 1223.99 577 1221.5 577L1098.5 577C1096.01 577 1094 574.985 1094 572.5Z" fill="#BFBFBF" fill-rule="evenodd"/>
  </g>
</svg>
