<svg width="322" height="191" xmlns="http://www.w3.org/2000/svg" overflow="hidden">
  <path fill="#FFF" d="M961 530h322v189H961z" transform="translate(-961 -529)"/>
  <path d="M971 546.234a7.234 7.234 0 0 1 7.234-7.234h287.536c3.99 0 7.23 3.239 7.23 7.234v108.532a7.234 7.234 0 0 1-7.23 7.234H978.234a7.234 7.234 0 0 1-7.234-7.234Z" fill="#2564EB" fill-rule="evenodd" transform="translate(-961 -529)"/>
  <path d="M990 591.5a4.5 4.5 0 0 1 4.5-4.5h66c2.49 0 4.5 2.015 4.5 4.5s-2.01 4.5-4.5 4.5h-66a4.5 4.5 0 0 1-4.5-4.5m0-24a9.5 9.5 0 0 1 9.5-9.5h75c5.25 0 9.5 4.253 9.5 9.5s-4.25 9.5-9.5 9.5h-75a9.5 9.5 0 0 1-9.5-9.5m85 24c0-2.485 2.01-4.5 4.5-4.5h10c2.49 0 4.5 2.015 4.5 4.5s-2.01 4.5-4.5 4.5h-10c-2.49 0-4.5-2.015-4.5-4.5" fill="#FFF" fill-rule="evenodd" transform="translate(-961 -529)"/>
  <path d="M990 609.882a3.88 3.88 0 0 1 3.882-3.882h143.238c2.14 0 3.88 1.738 3.88 3.882v58.236a3.883 3.883 0 0 1-3.88 3.882H993.882a3.88 3.88 0 0 1-3.882-3.882Z" fill="#ABABAB" fill-rule="evenodd" transform="translate(-961 -529)"/>
  <path d="m1048.46 620.385 34.08 18.115-34.08 18.115Z" fill="#FFF" transform="translate(-961 -529)"/>
  <path d="M1150 564.116a6.12 6.12 0 0 1 6.12-6.116h91.76c3.38 0 6.12 2.738 6.12 6.116v120.768a6.12 6.12 0 0 1-6.12 6.116h-91.76a6.12 6.12 0 0 1-6.12-6.116Z" fill="#ABABAB" fill-rule="evenodd" transform="translate(-961 -529)"/>
  <path d="M1160 665.167a3.17 3.17 0 0 1 3.17-3.167h78.66c1.75 0 3.17 1.418 3.17 3.167v12.666a3.17 3.17 0 0 1-3.17 3.167h-78.66a3.17 3.17 0 0 1-3.17-3.167ZM990 686a5 5 0 0 1 5-5h27a5.001 5.001 0 0 1 0 10h-27a5 5 0 0 1-5-5m47 0c0-2.761 2.24-5 5-5h65a5.001 5.001 0 0 1 0 10h-65c-2.76 0-5-2.239-5-5m-47 19a5 5 0 0 1 5-5h65a5.001 5.001 0 0 1 0 10h-65a5 5 0 0 1-5-5m85 0c0-2.761 2.24-5 5-5h9a5.001 5.001 0 0 1 0 10h-9c-2.76 0-5-2.239-5-5m28 0c0-2.761 2.24-5 5-5h28a5.001 5.001 0 0 1 0 10h-28c-2.76 0-5-2.239-5-5" fill="#404040" fill-rule="evenodd" transform="translate(-961 -529)"/>
</svg>
