<svg width="323" height="191" xmlns="http://www.w3.org/2000/svg" overflow="hidden">
  <path fill="#FFF" d="M959 530h321v189H959z" transform="translate(-958 -529)"/>
  <path d="M1072 558.5c0-5.247 4.25-9.5 9.5-9.5h76c5.25 0 9.5 4.253 9.5 9.5s-4.25 9.5-9.5 9.5h-76c-5.25 0-9.5-4.253-9.5-9.5" fill="#404040" fill-rule="evenodd" transform="translate(-958 -529)"/>
  <path d="M1110 582c0-2.761 2.24-5 5-5h9a5.001 5.001 0 0 1 0 10h-9c-2.76 0-5-2.239-5-5m-85 0c0-2.761 2.24-5 5-5h65a5.001 5.001 0 0 1 0 10h-65c-2.76 0-5-2.239-5-5m113 0c0-2.761 2.24-5 5-5h66a5.001 5.001 0 0 1 0 10h-66c-2.76 0-5-2.239-5-5" fill="#BFBFBF" fill-rule="evenodd" transform="translate(-958 -529)"/>
  <path d="M987 610.479a3.48 3.48 0 0 1 3.479-3.479h69.041c1.92 0 3.48 1.558 3.48 3.479v86.042a3.48 3.48 0 0 1-3.48 3.479h-69.041a3.48 3.48 0 0 1-3.479-3.479Z" fill="#D9D9D9" fill-rule="evenodd" transform="translate(-958 -529)"/>
  <path d="M1005 677c0-1.657 1.34-3 3-3h34c1.66 0 3 1.343 3 3s-1.34 3-3 3h-34c-1.66 0-3-1.343-3-3m-12 7.5a1.5 1.5 0 0 1 1.5-1.5h61a1.5 1.5 0 1 1 0 3h-61a1.5 1.5 0 0 1-1.5-1.5" fill="#404040" fill-rule="evenodd" transform="translate(-958 -529)"/>
  <path d="M1039 691.5c0-1.381 1.34-2.5 3-2.5s3 1.119 3 2.5-1.34 2.5-3 2.5-3-1.119-3-2.5m-34 0c0-.828.67-1.5 1.5-1.5h29a1.5 1.5 0 1 1 0 3h-29a1.5 1.5 0 0 1-1.5-1.5" fill="#2564EB" fill-rule="evenodd" transform="translate(-958 -529)"/>
  <path d="m1052.8 657.044-12.87-19.473a1.27 1.27 0 0 0-1.08-.571c-.44 0-.85.216-1.09.571l-3.76 5.73 8.07 12.387c.68.979.82 2.21.39 3.31h9.12c.75.036 1.38-.51 1.42-1.219.01-.258-.06-.514-.2-.735m-14.04.102-19.55-31.653a1.27 1.27 0 0 0-1.05-.492h-.32c-.41-.014-.8.169-1.05.492l-19.552 31.653a1.26 1.26 0 0 0-.099 1.315c.218.382.65.592 1.088.527h39.543c.44.065.87-.145 1.09-.527.22-.423.18-.93-.1-1.315m-17.49-16.824-3.11 2.755-3.11-2.755-5.14 3.095 8.09-13.05 7.87 12.71ZM1009 627.5a2.5 2.5 0 1 1-5 0 2.5 2.5 0 0 1 5 0" fill="#ABABAB" fill-rule="evenodd" transform="translate(-958 -529)"/>
  <path d="M1082 610.433a3.434 3.434 0 0 1 3.43-3.433h68.14c1.89 0 3.43 1.537 3.43 3.433v86.134a3.434 3.434 0 0 1-3.43 3.433h-68.14a3.434 3.434 0 0 1-3.43-3.433Z" fill="#D9D9D9" fill-rule="evenodd" transform="translate(-958 -529)"/>
  <path d="M1099 677c0-1.657 1.34-3 3-3h35c1.66 0 3 1.343 3 3s-1.34 3-3 3h-35c-1.66 0-3-1.343-3-3m-12 7.5c0-.828.67-1.5 1.5-1.5h61a1.5 1.5 0 1 1 0 3h-61a1.5 1.5 0 0 1-1.5-1.5" fill="#404040" fill-rule="evenodd" transform="translate(-958 -529)"/>
  <path d="M1134 691.5c0-1.381 1.34-2.5 3-2.5s3 1.119 3 2.5-1.34 2.5-3 2.5-3-1.119-3-2.5m-35 0c0-.828.67-1.5 1.5-1.5h30a1.5 1.5 0 1 1 0 3h-30a1.5 1.5 0 0 1-1.5-1.5" fill="#2564EB" fill-rule="evenodd" transform="translate(-958 -529)"/>
  <path d="m1146.81 657.044-12.19-19.473a1.2 1.2 0 0 0-1.02-.571c-.42 0-.81.216-1.04.571l-3.56 5.73 7.64 12.387c.65.979.79 2.21.38 3.31h8.63c.71.036 1.31-.51 1.35-1.219.01-.258-.05-.514-.19-.735m-13.05.102-19.55-31.653a1.27 1.27 0 0 0-1.05-.492h-.32c-.41-.014-.8.169-1.05.492l-19.55 31.653a1.25 1.25 0 0 0-.1 1.315c.22.382.65.592 1.09.527h39.54c.44.065.87-.145 1.09-.527.22-.423.18-.93-.1-1.315m-17.49-16.824-3.11 2.755-3.11-2.755-5.14 3.095 8.09-13.05 7.87 12.71ZM1104 627.5c0 1.381-1.34 2.5-3 2.5s-3-1.119-3-2.5 1.34-2.5 3-2.5 3 1.119 3 2.5" fill="#ABABAB" fill-rule="evenodd" transform="translate(-958 -529)"/>
  <path d="M1176 610.479a3.48 3.48 0 0 1 3.48-3.479h69.04c1.92 0 3.48 1.558 3.48 3.479v86.042a3.48 3.48 0 0 1-3.48 3.479h-69.04a3.48 3.48 0 0 1-3.48-3.479Z" fill="#D9D9D9" fill-rule="evenodd" transform="translate(-958 -529)"/>
  <path d="M1194 677c0-1.657 1.34-3 3-3h34c1.66 0 3 1.343 3 3s-1.34 3-3 3h-34c-1.66 0-3-1.343-3-3m-12 7.5c0-.828.67-1.5 1.5-1.5h61a1.5 1.5 0 1 1 0 3h-61a1.5 1.5 0 0 1-1.5-1.5" fill="#404040" fill-rule="evenodd" transform="translate(-958 -529)"/>
  <path d="M1228 691.5c0-1.381 1.34-2.5 3-2.5s3 1.119 3 2.5-1.34 2.5-3 2.5-3-1.119-3-2.5m-34 0c0-.828.67-1.5 1.5-1.5h29a1.5 1.5 0 1 1 0 3h-29a1.5 1.5 0 0 1-1.5-1.5" fill="#2564EB" fill-rule="evenodd" transform="translate(-958 -529)"/>
  <path d="m1241.8 657.044-12.87-19.473a1.27 1.27 0 0 0-1.08-.571c-.44 0-.85.216-1.09.571l-3.76 5.73 8.07 12.387c.68.979.82 2.21.39 3.31h9.12c.75.036 1.38-.51 1.42-1.219.01-.258-.06-.514-.2-.735m-14.04.102-19.55-31.653a1.27 1.27 0 0 0-1.05-.492h-.32c-.41-.014-.8.169-1.05.492l-19.55 31.653a1.25 1.25 0 0 0-.1 1.315c.22.382.65.592 1.09.527h39.54c.44.065.87-.145 1.09-.527.22-.423.18-.93-.1-1.315m-17.49-16.824-3.11 2.755-3.11-2.755-5.14 3.095 8.09-13.05 7.87 12.71ZM1198 627.5a2.5 2.5 0 1 1-5 0 2.5 2.5 0 0 1 5 0" fill="#ABABAB" fill-rule="evenodd" transform="translate(-958 -529)"/>
</svg>
