<svg width="322" height="191" xmlns="http://www.w3.org/2000/svg" overflow="hidden">
  <path fill="#FFF" d="M961 531h322v189H961z" transform="translate(-961 -530)"/>
  <path d="M990 583a5 5 0 0 1 5-5h65a5.001 5.001 0 0 1 0 10h-65a5 5 0 0 1-5-5m0-23.5a9.5 9.5 0 0 1 9.5-9.5h75c5.25 0 9.5 4.253 9.5 9.5s-4.25 9.5-9.5 9.5h-75a9.5 9.5 0 0 1-9.5-9.5m85 23.5c0-2.761 2.24-5 5-5h9a5.001 5.001 0 0 1 0 10h-9c-2.76 0-5-2.239-5-5m-85 17.882a3.88 3.88 0 0 1 3.882-3.882h143.238c2.14 0 3.88 1.738 3.88 3.882v58.236a3.883 3.883 0 0 1-3.88 3.882H993.882a3.88 3.88 0 0 1-3.882-3.882Z" fill="#404040" fill-rule="evenodd" transform="translate(-961 -530)"/>
  <path d="m1048.46 612.385 34.08 18.115-34.08 18.115Z" fill="#FFF" transform="translate(-961 -530)"/>
  <path d="M1150 556.116a6.12 6.12 0 0 1 6.12-6.116h91.76c3.38 0 6.12 2.738 6.12 6.116v119.768a6.12 6.12 0 0 1-6.12 6.116h-91.76a6.12 6.12 0 0 1-6.12-6.116Z" fill="#BFBFBF" fill-rule="evenodd" transform="translate(-961 -530)"/>
  <path d="M1160 657.167a3.17 3.17 0 0 1 3.17-3.167h78.66c1.75 0 3.17 1.418 3.17 3.167v12.666a3.17 3.17 0 0 1-3.17 3.167h-78.66a3.17 3.17 0 0 1-3.17-3.167Z" fill="#FFF" fill-rule="evenodd" transform="translate(-961 -530)"/>
  <path d="M990 677.5a4.5 4.5 0 0 1 4.5-4.5h28c2.49 0 4.5 2.015 4.5 4.5s-2.01 4.5-4.5 4.5h-28a4.5 4.5 0 0 1-4.5-4.5m47 0c0-2.485 2.01-4.5 4.5-4.5h66c2.49 0 4.5 2.015 4.5 4.5s-2.01 4.5-4.5 4.5h-66c-2.49 0-4.5-2.015-4.5-4.5m-47 19a4.5 4.5 0 0 1 4.5-4.5h66c2.49 0 4.5 2.015 4.5 4.5s-2.01 4.5-4.5 4.5h-66a4.5 4.5 0 0 1-4.5-4.5m85 0c0-2.485 2.01-4.5 4.5-4.5h10c2.49 0 4.5 2.015 4.5 4.5s-2.01 4.5-4.5 4.5h-10c-2.49 0-4.5-2.015-4.5-4.5m28 0c0-2.485 2.01-4.5 4.5-4.5h29c2.49 0 4.5 2.015 4.5 4.5s-2.01 4.5-4.5 4.5h-29c-2.49 0-4.5-2.015-4.5-4.5" fill="#404040" fill-rule="evenodd" transform="translate(-961 -530)"/>
  <path d="M1160 629c0-1.657 1.34-3 3-3h79c1.66 0 3 1.343 3 3v12c0 1.657-1.34 3-3 3h-79c-1.66 0-3-1.343-3-3Z" fill="#2564EB" fill-rule="evenodd" transform="translate(-961 -530)"/>
  <path d="M1160 568.5c0-5.247 4.25-9.5 9.5-9.5s9.5 4.253 9.5 9.5-4.25 9.5-9.5 9.5-9.5-4.253-9.5-9.5" fill="#404040" fill-rule="evenodd" transform="translate(-961 -530)"/>
</svg>
