<svg width="322" height="191" xmlns="http://www.w3.org/2000/svg" overflow="hidden">
  <path fill="#FFF" d="M961 531h322v189H961z" transform="translate(-961 -530)"/>
  <path d="M990 549.5a9.5 9.5 0 0 1 9.5-9.5h75c5.25 0 9.5 4.253 9.5 9.5s-4.25 9.5-9.5 9.5h-75a9.5 9.5 0 0 1-9.5-9.5" fill="#404040" fill-rule="evenodd" transform="translate(-961 -530)"/>
  <path d="M1075 573.5c0-2.485 2.01-4.5 4.5-4.5h10c2.49 0 4.5 2.015 4.5 4.5s-2.01 4.5-4.5 4.5h-10c-2.49 0-4.5-2.015-4.5-4.5m-85 0a4.5 4.5 0 0 1 4.5-4.5h66c2.49 0 4.5 2.015 4.5 4.5s-2.01 4.5-4.5 4.5h-66a4.5 4.5 0 0 1-4.5-4.5m113 0c0-2.485 2.01-4.5 4.5-4.5h67c2.49 0 4.5 2.015 4.5 4.5s-2.01 4.5-4.5 4.5h-67c-2.49 0-4.5-2.015-4.5-4.5" fill="#BFBFBF" fill-rule="evenodd" transform="translate(-961 -530)"/>
  <path d="M990 593.585a5.586 5.586 0 0 1 5.585-5.585h110.825c3.09 0 5.59 2.501 5.59 5.585v111.83c0 3.084-2.5 5.585-5.59 5.585H995.585a5.586 5.586 0 0 1-5.585-5.585Z" fill="#D9D9D9" fill-rule="evenodd" transform="translate(-961 -530)"/>
  <path d="M1018 602c0-2.761 2.24-5 5-5h56a5.001 5.001 0 0 1 0 10h-56c-2.76 0-5-2.239-5-5m-19 12.5a2.5 2.5 0 0 1 2.5-2.5h99a2.5 2.5 0 0 1 0 5h-99a2.5 2.5 0 0 1-2.5-2.5" fill="#404040" fill-rule="evenodd" transform="translate(-961 -530)"/>
  <path d="M1075 625.5c0-2.485 2.01-4.5 4.5-4.5s4.5 2.015 4.5 4.5-2.01 4.5-4.5 4.5-4.5-2.015-4.5-4.5m-57 0a2.5 2.5 0 0 1 2.5-2.5h48a2.5 2.5 0 0 1 0 5h-48a2.5 2.5 0 0 1-2.5-2.5" fill="#2564EB" fill-rule="evenodd" transform="translate(-961 -530)"/>
  <path d="m1095.69 697.799-20.32-31.864a2.02 2.02 0 0 0-1.71-.935c-.7 0-1.35.353-1.72.935l-5.94 9.375 12.74 20.27a5.96 5.96 0 0 1 .62 5.417h14.4c1.18.058 2.18-.835 2.24-1.995.02-.423-.09-.842-.31-1.203m-22.08.202-31.65-51.204a2.05 2.05 0 0 0-1.7-.796h-.52c-.67-.022-1.3.274-1.7.796l-31.65 51.204a2.04 2.04 0 0 0-.16 2.127c.35.619 1.05.958 1.76.853h64.02c.71.105 1.41-.234 1.76-.853.35-.683.29-1.503-.16-2.127m-28.31-27.215-5.04 4.456-5.03-4.456-8.33 5.006 13.1-21.11 12.75 20.56ZM1026 648.5c0 2.485-2.01 4.5-4.5 4.5s-4.5-2.015-4.5-4.5 2.01-4.5 4.5-4.5 4.5 2.015 4.5 4.5" fill="#ABABAB" fill-rule="evenodd" transform="translate(-961 -530)"/>
  <path d="M1131 593.631a5.63 5.63 0 0 1 5.63-5.631h111.74a5.63 5.63 0 0 1 5.63 5.631v111.738a5.63 5.63 0 0 1-5.63 5.631h-111.74a5.63 5.63 0 0 1-5.63-5.631Z" fill="#D9D9D9" fill-rule="evenodd" transform="translate(-961 -530)"/>
  <path d="M1160 602c0-2.761 2.24-5 5-5h56a5.001 5.001 0 0 1 0 10h-56c-2.76 0-5-2.239-5-5m-19 12.5a2.5 2.5 0 0 1 2.5-2.5h99a2.5 2.5 0 0 1 0 5h-99a2.5 2.5 0 0 1-2.5-2.5" fill="#404040" fill-rule="evenodd" transform="translate(-961 -530)"/>
  <path d="M1216 625.5c0-2.485 2.24-4.5 5-4.5s5 2.015 5 4.5-2.24 4.5-5 4.5-5-2.015-5-4.5m-56 0a2.5 2.5 0 0 1 2.5-2.5h48a2.5 2.5 0 0 1 0 5h-48a2.5 2.5 0 0 1-2.5-2.5" fill="#2564EB" fill-rule="evenodd" transform="translate(-961 -530)"/>
  <path d="m1237.69 697.799-20.32-31.864a2.02 2.02 0 0 0-1.71-.935c-.7 0-1.35.353-1.72.935l-5.94 9.375 12.74 20.27a5.96 5.96 0 0 1 .62 5.417h14.4c1.18.058 2.18-.835 2.24-1.995.02-.423-.09-.842-.31-1.203m-22.08.202-31.65-51.204a2.05 2.05 0 0 0-1.7-.796h-.52c-.67-.022-1.3.274-1.7.796l-31.65 51.204a2.04 2.04 0 0 0-.16 2.127c.35.619 1.05.958 1.76.853h64.02c.71.105 1.41-.234 1.76-.853.35-.683.29-1.503-.16-2.127m-28.31-27.215-5.04 4.456-5.03-4.456-8.33 5.006 13.1-21.11 12.75 20.56ZM1167 648.5c0 2.485-1.79 4.5-4 4.5s-4-2.015-4-4.5 1.79-4.5 4-4.5 4 2.015 4 4.5" fill="#ABABAB" fill-rule="evenodd" transform="translate(-961 -530)"/>
</svg>
