<svg width="322" height="191" xmlns="http://www.w3.org/2000/svg" xmlns:xlink="http://www.w3.org/1999/xlink" overflow="hidden"><g transform="translate(-961 -548)"><rect x="961" y="549" width="322" height="189" fill="#FFFFFF"/><path d="M990 577.5C990 572.253 994.253 568 999.5 568L1074.5 568C1079.75 568 1084 572.253 1084 577.5L1084 577.5C1084 582.747 1079.75 587 1074.5 587L999.5 587C994.253 587 990 582.747 990 577.5Z" fill="#404040" fill-rule="evenodd"/><path d="M1235 572.5C1235 570.015 1237.01 568 1239.5 568L1249.5 568C1251.99 568 1254 570.015 1254 572.5L1254 572.5C1254 574.985 1251.99 577 1249.5 577L1239.5 577C1237.01 577 1235 574.985 1235 572.5Z" fill="#BFBFBF" fill-rule="evenodd"/><path d="M1150 572.5C1150 570.015 1152.01 568 1154.5 568L1221.5 568C1223.99 568 1226 570.015 1226 572.5L1226 572.5C1226 574.985 1223.99 577 1221.5 577L1154.5 577C1152.01 577 1150 574.985 1150 572.5Z" fill="#BFBFBF" fill-rule="evenodd"/><path d="M1254 668.497 1254 712.503C1254 716.091 1251.09 719 1247.5 719L1122 719 1122 662 1247.5 662C1251.09 662 1254 664.909 1254 668.497Z" fill="#D9D9D9" fill-rule="evenodd"/><path d="M990 712.503 990 668.497C990 664.909 992.909 662 996.497 662L1122 662 1122 719 996.497 719C992.909 719 990 716.091 990 712.503Z" fill="#ABABAB" fill-rule="evenodd"/><path d="M1085.79 707.866 1072.24 686.623C1072 686.234 1071.57 685.997 1071.11 686 1070.64 686 1070.21 686.235 1069.96 686.623L1066 692.873 1074.49 706.386C1075.21 707.455 1075.36 708.798 1074.91 709.998L1084.5 709.998C1085.29 710.037 1085.96 709.441 1086 708.668 1086.01 708.386 1085.94 708.107 1085.79 707.866Z" fill="#FFFFFF" fill-rule="evenodd"/><path d="M1070.75 707.982 1049.8 673.536C1049.53 673.185 1049.11 672.986 1048.67 673.001L1048.5 673.001 1048.33 673.001C1047.89 672.986 1047.47 673.185 1047.2 673.536L1026.25 707.982C1025.96 708.402 1025.92 708.954 1026.15 709.413 1026.38 709.83 1026.85 710.058 1027.31 709.987L1069.69 709.987C1070.15 710.058 1070.62 709.83 1070.85 709.413 1071.08 708.954 1071.04 708.402 1070.75 707.982ZM1052.01 689.674 1048.67 692.672 1045.34 689.674 1039.83 693.042 1048.5 678.841 1056.94 692.672Z" fill="#FFFFFF" fill-rule="evenodd"/><path d="M1039 675C1039 676.657 1037.66 678 1036 678 1034.34 678 1033 676.657 1033 675 1033 673.343 1034.34 672 1036 672 1037.66 672 1039 673.343 1039 675Z" fill="#FFFFFF" fill-rule="evenodd"/><path d="M1131 676.5C1131 674.015 1133.01 672 1135.5 672L1230.5 672C1232.99 672 1235 674.015 1235 676.5L1235 676.5C1235 678.985 1232.99 681 1230.5 681L1135.5 681C1133.01 681 1131 678.985 1131 676.5Z" fill="#404040" fill-rule="evenodd"/><path d="M1131 690.5C1131 688.015 1133.01 686 1135.5 686L1240.5 686C1242.99 686 1245 688.015 1245 690.5L1245 690.5C1245 692.985 1242.99 695 1240.5 695L1135.5 695C1133.01 695 1131 692.985 1131 690.5Z" fill="#FFFFFF" fill-rule="evenodd"/><path d="M1131 705C1131 702.239 1133.24 700 1136 700L1188 700C1190.76 700 1193 702.239 1193 705L1193 705C1193 707.761 1190.76 710 1188 710L1136 710C1133.24 710 1131 707.761 1131 705Z" fill="#FFFFFF" fill-rule="evenodd"/><path d="M1254 602.497 1254 646.503C1254 650.091 1251.09 653 1247.5 653L1122 653 1122 596 1247.5 596C1251.09 596 1254 598.909 1254 602.497Z" fill="#BFBFBF" fill-rule="evenodd"/><path d="M990 646.503 990 602.497C990 598.909 992.909 596 996.497 596L1122 596 1122 653 996.497 653C992.909 653 990 650.091 990 646.503Z" fill="#D9D9D9" fill-rule="evenodd"/><path d="M1217.79 640.866 1204.24 619.623C1204 619.234 1203.57 618.997 1203.11 619 1202.64 619 1202.21 619.235 1201.96 619.623L1198 625.873 1206.49 639.386C1207.21 640.455 1207.36 641.798 1206.91 642.998L1216.5 642.998C1217.29 643.037 1217.96 642.441 1218 641.668 1218.01 641.386 1217.94 641.107 1217.79 640.866Z" fill="#FFFFFF" fill-rule="evenodd"/><path d="M1203.74 640.982 1182.33 606.536C1182.05 606.185 1181.63 605.986 1181.18 606.001L1181 606.001 1180.82 606.001C1180.37 605.986 1179.95 606.185 1179.67 606.536L1158.26 640.982C1157.96 641.402 1157.92 641.954 1158.15 642.413 1158.39 642.83 1158.86 643.058 1159.34 642.987L1202.66 642.987C1203.14 643.058 1203.61 642.83 1203.85 642.413 1204.08 641.954 1204.04 641.402 1203.74 640.982ZM1184.58 622.674 1181.18 625.672 1177.77 622.674 1172.14 626.042 1181 611.841 1189.62 625.672Z" fill="#FFFFFF" fill-rule="evenodd"/><path d="M1171 609C1171 610.657 1169.66 612 1168 612 1166.34 612 1165 610.657 1165 609 1165 607.343 1166.34 606 1168 606 1169.66 606 1171 607.343 1171 609Z" fill="#FFFFFF" fill-rule="evenodd"/><path d="M999 610.5C999 608.015 1001.01 606 1003.5 606L1098.5 606C1100.99 606 1103 608.015 1103 610.5L1103 610.5C1103 612.985 1100.99 615 1098.5 615L1003.5 615C1001.01 615 999 612.985 999 610.5Z" fill="#404040" fill-rule="evenodd"/><path d="M999 624.5C999 622.015 1001.01 620 1003.5 620L1107.5 620C1109.99 620 1112 622.015 1112 624.5L1112 624.5C1112 626.985 1109.99 629 1107.5 629L1003.5 629C1001.01 629 999 626.985 999 624.5Z" fill="#FFFFFF" fill-rule="evenodd"/><path d="M999 638.5C999 636.015 1001.01 634 1003.5 634L1055.5 634C1057.99 634 1060 636.015 1060 638.5L1060 638.5C1060 640.985 1057.99 643 1055.5 643L1003.5 643C1001.01 643 999 640.985 999 638.5Z" fill="#FFFFFF" fill-rule="evenodd"/></g></svg>