<svg width="322" height="191" xmlns="http://www.w3.org/2000/svg"
    xmlns:xlink="http://www.w3.org/1999/xlink" overflow="hidden">
    <g transform="translate(-961 -529)">
        <rect x="961" y="530" width="322" height="189" fill="#FFFFFF" />
        <path
            d="M990 567.5C990 562.253 994.253 558 999.5 558L1055.5 558C1060.75 558 1065 562.253 1065 567.5L1065 567.5C1065 572.747 1060.75 577 1055.5 577L999.5 577C994.253 577 990 572.747 990 567.5Z"
            fill="#404040" fill-rule="evenodd" />
        <path
            d="M990 610.5C990 608.015 992.015 606 994.5 606L1004.5 606C1006.99 606 1009 608.015 1009 610.5L1009 610.5C1009 612.985 1006.99 615 1004.5 615L994.5 615C992.015 615 990 612.985 990 610.5Z"
            fill="#BFBFBF" fill-rule="evenodd" />
        <path
            d="M990 591.5C990 589.015 992.015 587 994.5 587L1060.5 587C1062.99 587 1065 589.015 1065 591.5L1065 591.5C1065 593.985 1062.99 596 1060.5 596L994.5 596C992.015 596 990 593.985 990 591.5Z"
            fill="#BFBFBF" fill-rule="evenodd" />
        <path
            d="M1084 562.47C1084 560.001 1086 558 1088.47 558L1155.53 558C1158 558 1160 560.001 1160 562.47L1160 686.53C1160 688.999 1158 691 1155.53 691L1088.47 691C1086 691 1084 688.999 1084 686.53Z"
            fill="#BFBFBF" fill-rule="evenodd" />
        <path
            d="M1179 561.94C1179 559.764 1180.76 558 1182.94 558L1250.06 558C1252.24 558 1254 559.764 1254 561.94L1254 621.06C1254 623.236 1252.24 625 1250.06 625L1182.94 625C1180.76 625 1179 623.236 1179 621.06Z"
            fill="#BFBFBF" fill-rule="evenodd" />
        <path
            d="M1179 645.823C1179 644.264 1180.26 643 1181.82 643L1251.18 643C1252.74 643 1254 644.264 1254 645.823L1254 688.177C1254 689.736 1252.74 691 1251.18 691L1181.82 691C1180.26 691 1179 689.736 1179 688.177Z"
            fill="#BFBFBF" fill-rule="evenodd" />
    </g>
</svg>