<svg width="323" height="191" xmlns="http://www.w3.org/2000/svg" overflow="hidden">
  <path fill="#FFF" d="M959 531h321v189H959z" transform="translate(-958 -530)"/>
  <path d="M987 559.5a9.5 9.5 0 0 1 9.5-9.5h28c5.25 0 9.5 4.253 9.5 9.5s-4.25 9.5-9.5 9.5h-28a9.5 9.5 0 0 1-9.5-9.5" fill="#404040" fill-rule="evenodd" transform="translate(-958 -530)"/>
  <path d="M987 580.609a2.61 2.61 0 0 1 2.609-2.609h70.781a2.61 2.61 0 0 1 2.61 2.609v51.782a2.61 2.61 0 0 1-2.61 2.609h-70.781a2.61 2.61 0 0 1-2.609-2.609Z" fill="#D9D9D9" fill-rule="evenodd" transform="translate(-958 -530)"/>
  <path d="M992 611.5a4.5 4.5 0 0 1 4.5-4.5h57c2.49 0 4.5 2.015 4.5 4.5s-2.01 4.5-4.5 4.5h-57a4.5 4.5 0 0 1-4.5-4.5" fill="#404040" fill-rule="evenodd" transform="translate(-958 -530)"/>
  <path d="M992 625.5a4.5 4.5 0 0 1 4.5-4.5h57c2.49 0 4.5 2.015 4.5 4.5s-2.01 4.5-4.5 4.5h-57a4.5 4.5 0 0 1-4.5-4.5" fill="#BFBFBF" fill-rule="evenodd" transform="translate(-958 -530)"/>
  <path d="M992 592.5a9.5 9.5 0 0 1 9.5-9.5c5.25 0 9.5 4.253 9.5 9.5s-4.25 9.5-9.5 9.5a9.5 9.5 0 0 1-9.5-9.5" fill="#2564EB" fill-rule="evenodd" transform="translate(-958 -530)"/>
  <path d="M987 646.609a2.61 2.61 0 0 1 2.609-2.609h70.781a2.61 2.61 0 0 1 2.61 2.609v51.782a2.61 2.61 0 0 1-2.61 2.609h-70.781a2.61 2.61 0 0 1-2.609-2.609Z" fill="#D9D9D9" fill-rule="evenodd" transform="translate(-958 -530)"/>
  <path d="M992 677.5a4.5 4.5 0 0 1 4.5-4.5h57c2.49 0 4.5 2.015 4.5 4.5s-2.01 4.5-4.5 4.5h-57a4.5 4.5 0 0 1-4.5-4.5" fill="#404040" fill-rule="evenodd" transform="translate(-958 -530)"/>
  <path d="M992 691.5a4.5 4.5 0 0 1 4.5-4.5h57c2.49 0 4.5 2.015 4.5 4.5s-2.01 4.5-4.5 4.5h-57a4.5 4.5 0 0 1-4.5-4.5" fill="#BFBFBF" fill-rule="evenodd" transform="translate(-958 -530)"/>
  <path d="M992 658.5a9.5 9.5 0 0 1 9.5-9.5c5.25 0 9.5 4.253 9.5 9.5s-4.25 9.5-9.5 9.5a9.5 9.5 0 0 1-9.5-9.5" fill="#2564EB" fill-rule="evenodd" transform="translate(-958 -530)"/>
  <path d="M1082 580.609a2.61 2.61 0 0 1 2.61-2.609h69.78a2.61 2.61 0 0 1 2.61 2.609v51.782a2.61 2.61 0 0 1-2.61 2.609h-69.78a2.61 2.61 0 0 1-2.61-2.609Z" fill="#D9D9D9" fill-rule="evenodd" transform="translate(-958 -530)"/>
  <path d="M1086 611.5c0-2.485 2.01-4.5 4.5-4.5h57c2.49 0 4.5 2.015 4.5 4.5s-2.01 4.5-4.5 4.5h-57c-2.49 0-4.5-2.015-4.5-4.5" fill="#404040" fill-rule="evenodd" transform="translate(-958 -530)"/>
  <path d="M1086 625.5c0-2.485 2.01-4.5 4.5-4.5h57c2.49 0 4.5 2.015 4.5 4.5s-2.01 4.5-4.5 4.5h-57c-2.49 0-4.5-2.015-4.5-4.5" fill="#BFBFBF" fill-rule="evenodd" transform="translate(-958 -530)"/>
  <path d="M1086 592.5c0-5.247 4.25-9.5 9.5-9.5s9.5 4.253 9.5 9.5-4.25 9.5-9.5 9.5-9.5-4.253-9.5-9.5" fill="#2564EB" fill-rule="evenodd" transform="translate(-958 -530)"/>
  <path d="M1082 646.609a2.61 2.61 0 0 1 2.61-2.609h69.78a2.61 2.61 0 0 1 2.61 2.609v51.782a2.61 2.61 0 0 1-2.61 2.609h-69.78a2.61 2.61 0 0 1-2.61-2.609Z" fill="#D9D9D9" fill-rule="evenodd" transform="translate(-958 -530)"/>
  <path d="M1086 677.5c0-2.485 2.01-4.5 4.5-4.5h57c2.49 0 4.5 2.015 4.5 4.5s-2.01 4.5-4.5 4.5h-57c-2.49 0-4.5-2.015-4.5-4.5" fill="#404040" fill-rule="evenodd" transform="translate(-958 -530)"/>
  <path d="M1086 691.5c0-2.485 2.01-4.5 4.5-4.5h57c2.49 0 4.5 2.015 4.5 4.5s-2.01 4.5-4.5 4.5h-57c-2.49 0-4.5-2.015-4.5-4.5" fill="#BFBFBF" fill-rule="evenodd" transform="translate(-958 -530)"/>
  <path d="M1086 658.5c0-5.247 4.25-9.5 9.5-9.5s9.5 4.253 9.5 9.5-4.25 9.5-9.5 9.5-9.5-4.253-9.5-9.5" fill="#2564EB" fill-rule="evenodd" transform="translate(-958 -530)"/>
  <path d="M1176 580.609a2.61 2.61 0 0 1 2.61-2.609h70.78a2.61 2.61 0 0 1 2.61 2.609v51.782a2.61 2.61 0 0 1-2.61 2.609h-70.78a2.61 2.61 0 0 1-2.61-2.609Z" fill="#D9D9D9" fill-rule="evenodd" transform="translate(-958 -530)"/>
  <path d="M1181 611.5c0-2.485 2.01-4.5 4.5-4.5h57c2.49 0 4.5 2.015 4.5 4.5s-2.01 4.5-4.5 4.5h-57c-2.49 0-4.5-2.015-4.5-4.5" fill="#404040" fill-rule="evenodd" transform="translate(-958 -530)"/>
  <path d="M1181 625.5c0-2.485 2.01-4.5 4.5-4.5h57c2.49 0 4.5 2.015 4.5 4.5s-2.01 4.5-4.5 4.5h-57c-2.49 0-4.5-2.015-4.5-4.5" fill="#BFBFBF" fill-rule="evenodd" transform="translate(-958 -530)"/>
  <path d="M1181 592.5c0-5.247 4.25-9.5 9.5-9.5s9.5 4.253 9.5 9.5-4.25 9.5-9.5 9.5-9.5-4.253-9.5-9.5" fill="#2564EB" fill-rule="evenodd" transform="translate(-958 -530)"/>
  <path d="M1176 646.609a2.61 2.61 0 0 1 2.61-2.609h70.78a2.61 2.61 0 0 1 2.61 2.609v51.782a2.61 2.61 0 0 1-2.61 2.609h-70.78a2.61 2.61 0 0 1-2.61-2.609Z" fill="#D9D9D9" fill-rule="evenodd" transform="translate(-958 -530)"/>
  <path d="M1181 677.5c0-2.485 2.01-4.5 4.5-4.5h57c2.49 0 4.5 2.015 4.5 4.5s-2.01 4.5-4.5 4.5h-57c-2.49 0-4.5-2.015-4.5-4.5" fill="#404040" fill-rule="evenodd" transform="translate(-958 -530)"/>
  <path d="M1181 691.5c0-2.485 2.01-4.5 4.5-4.5h57c2.49 0 4.5 2.015 4.5 4.5s-2.01 4.5-4.5 4.5h-57c-2.49 0-4.5-2.015-4.5-4.5" fill="#BFBFBF" fill-rule="evenodd" transform="translate(-958 -530)"/>
  <path d="M1181 658.5c0-5.247 4.25-9.5 9.5-9.5s9.5 4.253 9.5 9.5-4.25 9.5-9.5 9.5-9.5-4.253-9.5-9.5" fill="#2564EB" fill-rule="evenodd" transform="translate(-958 -530)"/>
  <path d="M1044 559.5c0-5.247 4.25-9.5 9.5-9.5h56c5.25 0 9.5 4.253 9.5 9.5s-4.25 9.5-9.5 9.5h-56c-5.25 0-9.5-4.253-9.5-9.5" fill="#404040" fill-rule="evenodd" transform="translate(-958 -530)"/>
</svg>
