<svg width="322" height="191" xmlns="http://www.w3.org/2000/svg" xmlns:xlink="http://www.w3.org/1999/xlink" overflow="hidden">
  <g transform="translate(-961 -529)">
    <rect x="961" y="530" width="322" height="189" fill="#FFFFFF"/>
    <path d="M990 577.5C990 572.253 994.253 568 999.5 568L1074.5 568C1079.75 568 1084 572.253 1084 577.5L1084 577.5C1084 582.747 1079.75 587 1074.5 587L999.5 587C994.253 587 990 582.747 990 577.5Z" fill="#404040" fill-rule="evenodd"/>
    <path d="M1235 572.5C1235 570.015 1237.01 568 1239.5 568L1249.5 568C1251.99 568 1254 570.015 1254 572.5L1254 572.5C1254 574.985 1251.99 577 1249.5 577L1239.5 577C1237.01 577 1235 574.985 1235 572.5Z" fill="#BFBFBF" fill-rule="evenodd"/>
    <path d="M1150 572.5C1150 570.015 1152.01 568 1154.5 568L1221.5 568C1223.99 568 1226 570.015 1226 572.5L1226 572.5C1226 574.985 1223.99 577 1221.5 577L1154.5 577C1152.01 577 1150 574.985 1150 572.5Z" fill="#BFBFBF" fill-rule="evenodd"/>
    <path d="M990 610.411C990 607.975 991.975 606 994.411 606L1060.59 606C1063.03 606 1065 607.975 1065 610.411L1065 676.589C1065 679.025 1063.03 681 1060.59 681L994.411 681C991.975 681 990 679.025 990 676.589Z" fill="#D9D9D9" fill-rule="evenodd"/>
    <path d="M1037 667C1037 664.239 1039.24 662 1042 662L1051 662C1053.76 662 1056 664.239 1056 667L1056 667C1056 669.761 1053.76 672 1051 672L1042 672C1039.24 672 1037 669.761 1037 667Z" fill="#FFFFFF" fill-rule="evenodd"/>
    <path d="M999 667C999 664.239 1001.24 662 1004 662L1022 662C1024.76 662 1027 664.239 1027 667L1027 667C1027 669.761 1024.76 672 1022 672L1004 672C1001.24 672 999 669.761 999 667Z" fill="#FFFFFF" fill-rule="evenodd"/>
    <path d="M999 624.5C999 619.253 1003.25 615 1008.5 615L1008.5 615C1013.75 615 1018 619.253 1018 624.5L1018 624.5C1018 629.747 1013.75 634 1008.5 634L1008.5 634C1003.25 634 999 629.747 999 624.5Z" fill="#FFFFFF" fill-rule="evenodd"/>
    <path d="M999 648C999 645.239 1001.24 643 1004 643L1051 643C1053.76 643 1056 645.239 1056 648L1056 648C1056 650.761 1053.76 653 1051 653L1004 653C1001.24 653 999 650.761 999 648Z" fill="#404040" fill-rule="evenodd"/>
    <path d="M1084 610.411C1084 607.975 1085.97 606 1088.41 606L1155.59 606C1158.03 606 1160 607.975 1160 610.411L1160 676.589C1160 679.025 1158.03 681 1155.59 681L1088.41 681C1085.97 681 1084 679.025 1084 676.589Z" fill="#D9D9D9" fill-rule="evenodd"/>
    <path d="M1131 667C1131 664.239 1133.24 662 1136 662L1145 662C1147.76 662 1150 664.239 1150 667L1150 667C1150 669.761 1147.76 672 1145 672L1136 672C1133.24 672 1131 669.761 1131 667Z" fill="#FFFFFF" fill-rule="evenodd"/>
    <path d="M1094 667C1094 664.239 1096.24 662 1099 662L1117 662C1119.76 662 1122 664.239 1122 667L1122 667C1122 669.761 1119.76 672 1117 672L1099 672C1096.24 672 1094 669.761 1094 667Z" fill="#FFFFFF" fill-rule="evenodd"/>
    <path d="M1094 624C1094 619.029 1098.03 615 1103 615L1103 615C1107.97 615 1112 619.029 1112 624L1112 625C1112 629.971 1107.97 634 1103 634L1103 634C1098.03 634 1094 629.971 1094 625Z" fill="#FFFFFF" fill-rule="evenodd"/>
    <path d="M1094 648C1094 645.239 1096.24 643 1099 643L1145 643C1147.76 643 1150 645.239 1150 648L1150 648C1150 650.761 1147.76 653 1145 653L1099 653C1096.24 653 1094 650.761 1094 648Z" fill="#404040" fill-rule="evenodd"/>
    <path d="M1179 610.411C1179 607.975 1180.97 606 1183.41 606L1249.59 606C1252.03 606 1254 607.975 1254 610.411L1254 676.589C1254 679.025 1252.03 681 1249.59 681L1183.41 681C1180.97 681 1179 679.025 1179 676.589Z" fill="#D9D9D9" fill-rule="evenodd"/>
    <path d="M1226 667C1226 664.239 1228.24 662 1231 662L1240 662C1242.76 662 1245 664.239 1245 667L1245 667C1245 669.761 1242.76 672 1240 672L1231 672C1228.24 672 1226 669.761 1226 667Z" fill="#FFFFFF" fill-rule="evenodd"/>
    <path d="M1188 667C1188 664.239 1190.24 662 1193 662L1211 662C1213.76 662 1216 664.239 1216 667L1216 667C1216 669.761 1213.76 672 1211 672L1193 672C1190.24 672 1188 669.761 1188 667Z" fill="#FFFFFF" fill-rule="evenodd"/>
    <path d="M1188 624.5C1188 619.253 1192.25 615 1197.5 615L1197.5 615C1202.75 615 1207 619.253 1207 624.5L1207 624.5C1207 629.747 1202.75 634 1197.5 634L1197.5 634C1192.25 634 1188 629.747 1188 624.5Z" fill="#FFFFFF" fill-rule="evenodd"/>
    <path d="M1188 648C1188 645.239 1190.24 643 1193 643L1240 643C1242.76 643 1245 645.239 1245 648L1245 648C1245 650.761 1242.76 653 1240 653L1193 653C1190.24 653 1188 650.761 1188 648Z" fill="#404040" fill-rule="evenodd"/>
  </g>
</svg>
