<svg width="322" height="191" xmlns="http://www.w3.org/2000/svg" xmlns:xlink="http://www.w3.org/1999/xlink" overflow="hidden"><g transform="translate(-961 -548)"><rect x="961" y="549" width="322" height="189" fill="#FFFFFF"/><path d="M990 586.5C990 581.253 994.253 577 999.5 577L1084.5 577C1089.75 577 1094 581.253 1094 586.5L1094 586.5C1094 591.747 1089.75 596 1084.5 596L999.5 596C994.253 596 990 591.747 990 586.5Z" fill="#404040" fill-rule="evenodd"/><path d="M990 610.5C990 608.015 992.015 606 994.5 606L1107.5 606C1109.99 606 1112 608.015 1112 610.5L1112 610.5C1112 612.985 1109.99 615 1107.5 615L994.5 615C992.015 615 990 612.985 990 610.5Z" fill="#ABABAB" fill-rule="evenodd"/><path d="M990 629.5C990 627.015 992.015 625 994.5 625L1041.5 625C1043.99 625 1046 627.015 1046 629.5L1046 629.5C1046 631.985 1043.99 634 1041.5 634L994.5 634C992.015 634 990 631.985 990 629.5Z" fill="#ABABAB" fill-rule="evenodd"/><path d="M1131 589.876C1131 585.526 1134.53 582 1138.88 582L1180.12 582C1184.47 582 1188 585.526 1188 589.876L1188 631.124C1188 635.474 1184.47 639 1180.12 639L1138.88 639C1134.53 639 1131 635.474 1131 631.124Z" fill="#2564EB" fill-rule="evenodd"/><path d="M1197 589.876C1197 585.526 1200.53 582 1204.88 582L1246.12 582C1250.47 582 1254 585.526 1254 589.876L1254 631.124C1254 635.474 1250.47 639 1246.12 639L1204.88 639C1200.53 639 1197 635.474 1197 631.124Z" fill="#2564EB" fill-rule="evenodd"/><path d="M1131 655.876C1131 651.526 1134.53 648 1138.88 648L1180.12 648C1184.47 648 1188 651.526 1188 655.876L1188 697.124C1188 701.474 1184.47 705 1180.12 705L1138.88 705C1134.53 705 1131 701.474 1131 697.124Z" fill="#2564EB" fill-rule="evenodd"/><path d="M1197 655.876C1197 651.526 1200.53 648 1204.88 648L1246.12 648C1250.47 648 1254 651.526 1254 655.876L1254 697.124C1254 701.474 1250.47 705 1246.12 705L1204.88 705C1200.53 705 1197 701.474 1197 697.124Z" fill="#2564EB" fill-rule="evenodd"/></g></svg>