<svg width="323" height="191" xmlns="http://www.w3.org/2000/svg" overflow="hidden">
  <path fill="#FFF" d="M959 531h321v189H959z" transform="translate(-958 -530)"/>
  <path d="M1072 559.5c0-5.247 4.25-9.5 9.5-9.5h76c5.25 0 9.5 4.253 9.5 9.5s-4.25 9.5-9.5 9.5h-76c-5.25 0-9.5-4.253-9.5-9.5" fill="#404040" fill-rule="evenodd" transform="translate(-958 -530)"/>
  <path d="M1119 584.3a6.3 6.3 0 0 1 6.3-6.3h101.4a6.3 6.3 0 0 1 6.3 6.3v44.4a6.3 6.3 0 0 1-6.3 6.3h-101.4a6.3 6.3 0 0 1-6.3-6.3Z" fill="#D9D9D9" fill-rule="evenodd" transform="translate(-958 -530)"/>
  <path d="M1129 597.5c0-5.247 4.25-9.5 9.5-9.5s9.5 4.253 9.5 9.5-4.25 9.5-9.5 9.5-9.5-4.253-9.5-9.5" fill="#2564EB" fill-rule="evenodd" transform="translate(-958 -530)"/>
  <path d="M1129 621c0-2.761 2.24-5 5-5h37a5.001 5.001 0 0 1 0 10h-37c-2.76 0-5-2.239-5-5" fill="#404040" fill-rule="evenodd" transform="translate(-958 -530)"/>
  <path d="M1119 650.3a6.3 6.3 0 0 1 6.3-6.3h101.4a6.3 6.3 0 0 1 6.3 6.3v44.4a6.3 6.3 0 0 1-6.3 6.3h-101.4a6.3 6.3 0 0 1-6.3-6.3Z" fill="#D9D9D9" fill-rule="evenodd" transform="translate(-958 -530)"/>
  <path d="M1129 663.5c0-5.247 4.25-9.5 9.5-9.5s9.5 4.253 9.5 9.5-4.25 9.5-9.5 9.5-9.5-4.253-9.5-9.5" fill="#2564EB" fill-rule="evenodd" transform="translate(-958 -530)"/>
  <path d="M1129 687c0-2.761 2.24-5 5-5h37a5.001 5.001 0 0 1 0 10h-37c-2.76 0-5-2.239-5-5" fill="#404040" fill-rule="evenodd" transform="translate(-958 -530)"/>
  <path d="M1025 582.674a4.67 4.67 0 0 1 4.67-4.674h47.66c2.58 0 4.67 2.093 4.67 4.674v104.652a4.67 4.67 0 0 1-4.67 4.674h-47.66a4.67 4.67 0 0 1-4.67-4.674Z" fill="#BFBFBF" fill-rule="evenodd" transform="translate(-958 -530)"/>
  <path d="M1045 587c0-1.657 1.34-3 3-3h11c1.66 0 3 1.343 3 3s-1.34 3-3 3h-11c-1.66 0-3-1.343-3-3" fill="#FFF" fill-rule="evenodd" transform="translate(-958 -530)"/>
  <path d="M1006 592.674a4.67 4.67 0 0 1 4.67-4.674h47.66c2.58 0 4.67 2.093 4.67 4.674v103.652a4.67 4.67 0 0 1-4.67 4.674h-47.66a4.67 4.67 0 0 1-4.67-4.674Z" fill="#D9D9D9" fill-rule="evenodd" transform="translate(-958 -530)"/>
  <path d="M1026 596c0-1.657 1.34-3 3-3h11c1.66 0 3 1.343 3 3s-1.34 3-3 3h-11c-1.66 0-3-1.343-3-3" fill="#FFF" fill-rule="evenodd" transform="translate(-958 -530)"/>
</svg>
