<svg width="322" height="191" xmlns="http://www.w3.org/2000/svg" xmlns:xlink="http://www.w3.org/1999/xlink" overflow="hidden">
  <g transform="translate(-961 -529)">
    <rect x="961" y="530" width="322" height="189" fill="#FFFFFF"/>
    <path d="M990 567.5C990 562.253 994.253 558 999.5 558L1074.5 558C1079.75 558 1084 562.253 1084 567.5L1084 567.5C1084 572.747 1079.75 577 1074.5 577L999.5 577C994.253 577 990 572.747 990 567.5Z" fill="#404040" fill-rule="evenodd"/>
    <path d="M1235 563C1235 560.239 1237.24 558 1240 558L1249 558C1251.76 558 1254 560.239 1254 563L1254 563C1254 565.761 1251.76 568 1249 568L1240 568C1237.24 568 1235 565.761 1235 563Z" fill="#BFBFBF" fill-rule="evenodd"/>
    <path d="M1150 563C1150 560.239 1152.24 558 1155 558L1221 558C1223.76 558 1226 560.239 1226 563L1226 563C1226 565.761 1223.76 568 1221 568L1155 568C1152.24 568 1150 565.761 1150 563Z" fill="#BFBFBF" fill-rule="evenodd"/>
    <path d="M990 600.411C990 597.975 991.975 596 994.411 596L1060.59 596C1063.03 596 1065 597.975 1065 600.411L1065 686.589C1065 689.025 1063.03 691 1060.59 691L994.411 691C991.975 691 990 689.025 990 686.589Z" fill="#BFBFBF" fill-rule="evenodd"/>
    <path d="M999 610.5C999 608.015 1001.01 606 1003.5 606L1004.5 606C1006.99 606 1009 608.015 1009 610.5L1009 610.5C1009 612.985 1006.99 615 1004.5 615L1003.5 615C1001.01 615 999 612.985 999 610.5Z" fill="#FFFFFF" fill-rule="evenodd"/>
    <path d="M1084 600.47C1084 598.001 1086 596 1088.47 596L1155.53 596C1158 596 1160 598.001 1160 600.47L1160 686.53C1160 688.999 1158 691 1155.53 691L1088.47 691C1086 691 1084 688.999 1084 686.53Z" fill="#BFBFBF" fill-rule="evenodd"/>
    <path d="M1094 610.5C1094 608.015 1096.01 606 1098.5 606L1098.5 606C1100.99 606 1103 608.015 1103 610.5L1103 610.5C1103 612.985 1100.99 615 1098.5 615L1098.5 615C1096.01 615 1094 612.985 1094 610.5Z" fill="#FFFFFF" fill-rule="evenodd"/>
    <path d="M1179 600.411C1179 597.975 1180.97 596 1183.41 596L1249.59 596C1252.03 596 1254 597.975 1254 600.411L1254 686.589C1254 689.025 1252.03 691 1249.59 691L1183.41 691C1180.97 691 1179 689.025 1179 686.589Z" fill="#BFBFBF" fill-rule="evenodd"/>
    <path d="M1188 610.5C1188 608.015 1190.01 606 1192.5 606L1192.5 606C1194.99 606 1197 608.015 1197 610.5L1197 610.5C1197 612.985 1194.99 615 1192.5 615L1192.5 615C1190.01 615 1188 612.985 1188 610.5Z" fill="#FFFFFF" fill-rule="evenodd"/>
    <path d="M1188 629.5C1188 627.015 1190.01 625 1192.5 625L1240.5 625C1242.99 625 1245 627.015 1245 629.5L1245 629.5C1245 631.985 1242.99 634 1240.5 634L1192.5 634C1190.01 634 1188 631.985 1188 629.5Z" fill="#FFFFFF" fill-rule="evenodd"/>
    <path d="M1094 629.5C1094 627.015 1096.01 625 1098.5 625L1145.5 625C1147.99 625 1150 627.015 1150 629.5L1150 629.5C1150 631.985 1147.99 634 1145.5 634L1098.5 634C1096.01 634 1094 631.985 1094 629.5Z" fill="#FFFFFF" fill-rule="evenodd"/>
    <path d="M999 629.5C999 627.015 1001.01 625 1003.5 625L1051.5 625C1053.99 625 1056 627.015 1056 629.5L1056 629.5C1056 631.985 1053.99 634 1051.5 634L1003.5 634C1001.01 634 999 631.985 999 629.5Z" fill="#FFFFFF" fill-rule="evenodd"/>
  </g>
</svg>
