<svg width="322" height="191" xmlns="http://www.w3.org/2000/svg" xmlns:xlink="http://www.w3.org/1999/xlink" overflow="hidden">
  <g transform="translate(-961 -529)">
    <rect x="961" y="530" width="322" height="189" fill="#FFFFFF"/>
    <path d="M1018 567.5C1018 562.253 1022.25 558 1027.5 558L1084.5 558C1089.75 558 1094 562.253 1094 567.5L1094 567.5C1094 572.747 1089.75 577 1084.5 577L1027.5 577C1022.25 577 1018 572.747 1018 567.5Z" fill="#404040" fill-rule="evenodd"/>
    <path d="M1018 610.5C1018 608.015 1020.01 606 1022.5 606L1107.5 606C1109.99 606 1112 608.015 1112 610.5L1112 610.5C1112 612.985 1109.99 615 1107.5 615L1022.5 615C1020.01 615 1018 612.985 1018 610.5Z" fill="#BFBFBF" fill-rule="evenodd"/>
    <path d="M1018 591.5C1018 589.015 1020.01 587 1022.5 587L1221.5 587C1223.99 587 1226 589.015 1226 591.5L1226 591.5C1226 593.985 1223.99 596 1221.5 596L1022.5 596C1020.01 596 1018 593.985 1018 591.5Z" fill="#BFBFBF" fill-rule="evenodd"/>
    <path d="M1023.27 643 1220.73 643C1223.64 643 1226 645.358 1226 648.267L1226 719 1018 719 1018 648.267C1018 645.358 1020.36 643 1023.27 643Z" fill="#D9D9D9" fill-rule="evenodd"/>
    <path d="M1122 610.5C1122 608.015 1124.01 606 1126.5 606L1221.5 606C1223.99 606 1226 608.015 1226 610.5L1226 610.5C1226 612.985 1223.99 615 1221.5 615L1126.5 615C1124.01 615 1122 612.985 1122 610.5Z" fill="#BFBFBF" fill-rule="evenodd"/>
    <path d="M1018 629.5C1018 627.015 1020.01 625 1022.5 625L1192.5 625C1194.99 625 1197 627.015 1197 629.5L1197 629.5C1197 631.985 1194.99 634 1192.5 634L1022.5 634C1020.01 634 1018 631.985 1018 629.5Z" fill="#BFBFBF" fill-rule="evenodd"/>
    <path d="M1207 629.5C1207 627.015 1209.01 625 1211.5 625L1221.5 625C1223.99 625 1226 627.015 1226 629.5L1226 629.5C1226 631.985 1223.99 634 1221.5 634L1211.5 634C1209.01 634 1207 631.985 1207 629.5Z" fill="#BFBFBF" fill-rule="evenodd"/>
  </g>
</svg>
