<svg width="322" height="191" xmlns="http://www.w3.org/2000/svg" overflow="hidden">
  <path fill="#FFF" d="M961 530h322v189H961z" transform="translate(-961 -529)"/>
  <path d="M1018 558.5c0-5.247 4.25-9.5 9.5-9.5h113c5.25 0 9.5 4.253 9.5 9.5s-4.25 9.5-9.5 9.5h-113c-5.25 0-9.5-4.253-9.5-9.5" fill="#404040" fill-rule="evenodd" transform="translate(-961 -529)"/>
  <path d="M1103 582c0-2.761 2.24-5 5-5h9a5.001 5.001 0 0 1 0 10h-9c-2.76 0-5-2.239-5-5m-85 0c0-2.761 2.24-5 5-5h66a5.001 5.001 0 0 1 0 10h-66c-2.76 0-5-2.239-5-5m-28 28.411a4.41 4.41 0 0 1 4.411-4.411h66.179c2.44 0 4.41 1.975 4.41 4.411v85.178a4.41 4.41 0 0 1-4.41 4.411h-66.179a4.41 4.41 0 0 1-4.411-4.411Z" fill="#BFBFBF" fill-rule="evenodd" transform="translate(-961 -529)"/>
  <path d="M1046 686a5.001 5.001 0 0 1 10 0 5.001 5.001 0 0 1-10 0m-47 0c0-2.761 2.24-5 5-5h28a5.001 5.001 0 0 1 0 10h-28c-2.76 0-5-2.239-5-5" fill="#FFF" fill-rule="evenodd" transform="translate(-961 -529)"/>
  <path d="M1160 558.5c0-5.247 4.25-9.5 9.5-9.5h47c5.25 0 9.5 4.253 9.5 9.5s-4.25 9.5-9.5 9.5h-47c-5.25 0-9.5-4.253-9.5-9.5" fill="#404040" fill-rule="evenodd" transform="translate(-961 -529)"/>
  <path d="M1040 629.438c0 6.903-5.6 12.5-12.5 12.5s-12.5-5.597-12.5-12.5c0-6.904 5.6-12.5 12.5-12.5s12.5 5.596 12.5 12.5m12.5 40.624v-12.5c0-1.874-.94-3.75-2.5-5-3.44-2.812-7.81-4.687-12.19-5.937-3.12-.937-6.56-1.563-10.31-1.563-3.44 0-6.88.626-10.31 1.563-4.38 1.25-8.75 3.437-12.19 5.937-1.56 1.25-2.5 3.126-2.5 5v12.5z" transform="translate(-961 -529)" fill="#FFF"/>
  <path d="M1084 610.47c0-2.469 2-4.47 4.47-4.47h67.06c2.47 0 4.47 2.001 4.47 4.47v85.06c0 2.469-2 4.47-4.47 4.47h-67.06a4.47 4.47 0 0 1-4.47-4.47Z" fill="#BFBFBF" fill-rule="evenodd" transform="translate(-961 -529)"/>
  <path d="M1141 685.5c0-2.485 2.01-4.5 4.5-4.5s4.5 2.015 4.5 4.5v1c0 2.485-2.01 4.5-4.5 4.5s-4.5-2.015-4.5-4.5Zm-47 .5c0-2.761 2.24-5 5-5h27a5.001 5.001 0 0 1 0 10h-27c-2.76 0-5-2.239-5-5" fill="#FFF" fill-rule="evenodd" transform="translate(-961 -529)"/>
  <path d="M1134.667 629.438c0 6.903-5.672 12.5-12.667 12.5-6.996 0-12.667-5.597-12.667-12.5 0-6.904 5.671-12.5 12.667-12.5s12.667 5.596 12.667 12.5m12.666 40.625v-12.5c0-1.875-.95-3.75-2.533-5-3.484-2.813-7.917-4.688-12.35-5.938-3.167-.937-6.65-1.562-10.45-1.562-3.483 0-6.967.625-10.45 1.562-4.433 1.25-8.867 3.438-12.35 5.938-1.583 1.25-2.533 3.125-2.533 5v12.5z" transform="translate(-961 -529)" fill="#FFF"/>
  <path d="M1179 610.411a4.41 4.41 0 0 1 4.41-4.411h66.18c2.44 0 4.41 1.975 4.41 4.411v85.178a4.41 4.41 0 0 1-4.41 4.411h-66.18a4.41 4.41 0 0 1-4.41-4.411Z" fill="#BFBFBF" fill-rule="evenodd" transform="translate(-961 -529)"/>
  <path d="M1235 686a5.001 5.001 0 0 1 10 0 5.001 5.001 0 0 1-10 0m-47 0c0-2.761 2.24-5 5-5h28a5.001 5.001 0 0 1 0 10h-28c-2.76 0-5-2.239-5-5" fill="#FFF" fill-rule="evenodd" transform="translate(-961 -529)"/>
  <path d="M1229 629.438c0 6.903-5.6 12.5-12.5 12.5s-12.5-5.597-12.5-12.5c0-6.904 5.6-12.5 12.5-12.5s12.5 5.596 12.5 12.5m12.5 40.624v-12.5c0-1.874-.94-3.75-2.5-5-3.44-2.812-7.81-4.687-12.19-5.937-3.12-.937-6.56-1.563-10.31-1.563-3.44 0-6.88.626-10.31 1.563-4.38 1.25-8.75 3.437-12.19 5.937-1.56 1.25-2.5 3.126-2.5 5v12.5z" transform="translate(-961 -529)" fill="#FFF"/>
</svg>
