<svg width="322" height="191" xmlns="http://www.w3.org/2000/svg" xmlns:xlink="http://www.w3.org/1999/xlink" overflow="hidden"><g transform="translate(-961 -548)"><rect x="961" y="549" width="322" height="189" fill="#FFFFFF"/><path d="M990 618.662C990 616.64 991.64 615 993.662 615L1250.34 615C1252.36 615 1254 616.64 1254 618.662L1254 691.338C1254 693.36 1252.36 695 1250.34 695L993.662 695C991.64 695 990 693.36 990 691.338Z" fill="#D9D9D9" fill-rule="evenodd"/><path d="M1009 634.5C1009 632.015 1011.01 630 1013.5 630L1079.5 630C1081.99 630 1084 632.015 1084 634.5L1084 634.5C1084 636.985 1081.99 639 1079.5 639L1013.5 639C1011.01 639 1009 636.985 1009 634.5Z" fill="#404040" fill-rule="evenodd"/><path d="M1117 709.5C1117 707.015 1119.24 705 1122 705 1124.76 705 1127 707.015 1127 709.5 1127 711.985 1124.76 714 1122 714 1119.24 714 1117 711.985 1117 709.5Z" fill="#ABABAB" fill-rule="evenodd"/><path d="M1150 601C1150 598.239 1152.24 596 1155 596L1164 596C1166.76 596 1169 598.239 1169 601L1169 601C1169 603.761 1166.76 606 1164 606L1155 606C1152.24 606 1150 603.761 1150 601Z" fill="#BFBFBF" fill-rule="evenodd"/><path d="M1075 601C1075 598.239 1077.24 596 1080 596L1136 596C1138.76 596 1141 598.239 1141 601L1141 601C1141 603.761 1138.76 606 1136 606L1080 606C1077.24 606 1075 603.761 1075 601Z" fill="#BFBFBF" fill-rule="evenodd"/><path d="M1018 577.5C1018 572.253 1022.25 568 1027.5 568L1140.5 568C1145.75 568 1150 572.253 1150 577.5L1150 577.5C1150 582.747 1145.75 587 1140.5 587L1027.5 587C1022.25 587 1018 582.747 1018 577.5Z" fill="#404040" fill-rule="evenodd"/><path d="M1160 577.5C1160 572.253 1164.25 568 1169.5 568L1216.5 568C1221.75 568 1226 572.253 1226 577.5L1226 577.5C1226 582.747 1221.75 587 1216.5 587L1169.5 587C1164.25 587 1160 582.747 1160 577.5Z" fill="#404040" fill-rule="evenodd"/><path d="M1131 709.5C1131 707.015 1133.24 705 1136 705 1138.76 705 1141 707.015 1141 709.5 1141 711.985 1138.76 714 1136 714 1133.24 714 1131 711.985 1131 709.5Z" fill="#ABABAB" fill-rule="evenodd"/><path d="M1103 709.5C1103 707.015 1105.01 705 1107.5 705 1109.99 705 1112 707.015 1112 709.5 1112 711.985 1109.99 714 1107.5 714 1105.01 714 1103 711.985 1103 709.5Z" fill="#2564EB" fill-rule="evenodd"/><path d="M1009 676C1009 671.029 1013.03 667 1018 667L1018 667C1022.97 667 1027 671.029 1027 676L1027 677C1027 681.971 1022.97 686 1018 686L1018 686C1013.03 686 1009 681.971 1009 677Z" fill="#A6A6A6" fill-rule="evenodd"/><path d="M1037 676.5C1037 674.015 1039.01 672 1041.5 672L1089.5 672C1091.99 672 1094 674.015 1094 676.5L1094 676.5C1094 678.985 1091.99 681 1089.5 681L1041.5 681C1039.01 681 1037 678.985 1037 676.5Z" fill="#A6A6A6" fill-rule="evenodd"/><path d="M1094 634C1094 631.239 1096.24 629 1099 629L1126 629C1128.76 629 1131 631.239 1131 634L1131 634C1131 636.761 1128.76 639 1126 639L1099 639C1096.24 639 1094 636.761 1094 634Z" fill="#404040" fill-rule="evenodd"/><path d="M1141 634C1141 631.239 1143.24 629 1146 629L1230 629C1232.76 629 1235 631.239 1235 634L1235 634C1235 636.761 1232.76 639 1230 639L1146 639C1143.24 639 1141 636.761 1141 634Z" fill="#404040" fill-rule="evenodd"/><path d="M1009 653C1009 650.239 1011.24 648 1014 648L1041 648C1043.76 648 1046 650.239 1046 653L1046 653C1046 655.761 1043.76 658 1041 658L1014 658C1011.24 658 1009 655.761 1009 653Z" fill="#404040" fill-rule="evenodd"/><path d="M1056 653C1056 650.239 1058.24 648 1061 648L1117 648C1119.76 648 1122 650.239 1122 653L1122 653C1122 655.761 1119.76 658 1117 658L1061 658C1058.24 658 1056 655.761 1056 653Z" fill="#404040" fill-rule="evenodd"/><path d="M1131 653C1131 650.239 1133.24 648 1136 648L1164 648C1166.76 648 1169 650.239 1169 653L1169 653C1169 655.761 1166.76 658 1164 658L1136 658C1133.24 658 1131 655.761 1131 653Z" fill="#404040" fill-rule="evenodd"/></g></svg>