<svg width="322" height="191" xmlns="http://www.w3.org/2000/svg" overflow="hidden">
  <path fill="#FFF" d="M961 530h322v189H961z" transform="translate(-961 -529)"/>
  <path d="M1018 558.5c0-5.247 4.25-9.5 9.5-9.5h113c5.25 0 9.5 4.253 9.5 9.5s-4.25 9.5-9.5 9.5h-113c-5.25 0-9.5-4.253-9.5-9.5" fill="#404040" fill-rule="evenodd" transform="translate(-961 -529)"/>
  <path d="M1103 582c0-2.761 2.24-5 5-5h9a5.001 5.001 0 0 1 0 10h-9c-2.76 0-5-2.239-5-5m-85 0c0-2.761 2.24-5 5-5h66a5.001 5.001 0 0 1 0 10h-66c-2.76 0-5-2.239-5-5" fill="#BFBFBF" fill-rule="evenodd" transform="translate(-961 -529)"/>
  <path d="M990 610.411a4.41 4.41 0 0 1 4.411-4.411h66.179c2.44 0 4.41 1.975 4.41 4.411v85.178a4.41 4.41 0 0 1-4.41 4.411h-66.179a4.41 4.41 0 0 1-4.411-4.411Z" fill="#D9D9D9" fill-rule="evenodd" transform="translate(-961 -529)"/>
  <path d="M1046 686a5.001 5.001 0 0 1 10 0 5.001 5.001 0 0 1-10 0m-47 0c0-2.761 2.24-5 5-5h28a5.001 5.001 0 0 1 0 10h-28c-2.76 0-5-2.239-5-5" fill="#FFF" fill-rule="evenodd" transform="translate(-961 -529)"/>
  <path d="M1160 558.5c0-5.247 4.25-9.5 9.5-9.5h47c5.25 0 9.5 4.253 9.5 9.5s-4.25 9.5-9.5 9.5h-47c-5.25 0-9.5-4.253-9.5-9.5" fill="#404040" fill-rule="evenodd" transform="translate(-961 -529)"/>
  <path d="M999 667c0-2.761 2.24-5 5-5h47a5.001 5.001 0 0 1 0 10h-47c-2.76 0-5-2.239-5-5m19-19c0-2.761 2.24-5 5-5h28a5.001 5.001 0 0 1 0 10h-28c-2.76 0-5-2.239-5-5m-19 0a5.001 5.001 0 0 1 10 0 5.001 5.001 0 0 1-10 0" fill="#FFF" fill-rule="evenodd" transform="translate(-961 -529)"/>
  <path d="M999 620c0-2.761 2.24-5 5-5h28a5.001 5.001 0 0 1 0 10h-28c-2.76 0-5-2.239-5-5" fill="#404040" fill-rule="evenodd" transform="translate(-961 -529)"/>
  <path d="M1084 610.47c0-2.469 2-4.47 4.47-4.47h67.06c2.47 0 4.47 2.001 4.47 4.47v85.06c0 2.469-2 4.47-4.47 4.47h-67.06a4.47 4.47 0 0 1-4.47-4.47Z" fill="#D9D9D9" fill-rule="evenodd" transform="translate(-961 -529)"/>
  <path d="M1141 685.5c0-2.485 2.01-4.5 4.5-4.5s4.5 2.015 4.5 4.5v1c0 2.485-2.01 4.5-4.5 4.5s-4.5-2.015-4.5-4.5Zm-47 .5c0-2.761 2.24-5 5-5h27a5.001 5.001 0 0 1 0 10h-27c-2.76 0-5-2.239-5-5m0-19c0-2.761 2.24-5 5-5h46a5.001 5.001 0 0 1 0 10h-46c-2.76 0-5-2.239-5-5m18-19c0-2.761 2.24-5 5-5h28a5.001 5.001 0 0 1 0 10h-28c-2.76 0-5-2.239-5-5m-18-.5c0-2.485 2.01-4.5 4.5-4.5s4.5 2.015 4.5 4.5v1c0 2.485-2.01 4.5-4.5 4.5s-4.5-2.015-4.5-4.5Z" fill="#FFF" fill-rule="evenodd" transform="translate(-961 -529)"/>
  <path d="M1094 620c0-2.761 2.24-5 5-5h27a5.001 5.001 0 0 1 0 10h-27c-2.76 0-5-2.239-5-5" fill="#404040" fill-rule="evenodd" transform="translate(-961 -529)"/>
  <path d="M1179 610.411a4.41 4.41 0 0 1 4.41-4.411h66.18c2.44 0 4.41 1.975 4.41 4.411v85.178a4.41 4.41 0 0 1-4.41 4.411h-66.18a4.41 4.41 0 0 1-4.41-4.411Z" fill="#D9D9D9" fill-rule="evenodd" transform="translate(-961 -529)"/>
  <path d="M1235 686a5.001 5.001 0 0 1 10 0 5.001 5.001 0 0 1-10 0m-47 0c0-2.761 2.24-5 5-5h28a5.001 5.001 0 0 1 0 10h-28c-2.76 0-5-2.239-5-5m0-19c0-2.761 2.24-5 5-5h47a5.001 5.001 0 0 1 0 10h-47c-2.76 0-5-2.239-5-5m19-19c0-2.761 2.24-5 5-5h28a5.001 5.001 0 0 1 0 10h-28c-2.76 0-5-2.239-5-5m-19-.5c0-2.485 2.01-4.5 4.5-4.5s4.5 2.015 4.5 4.5v1c0 2.485-2.01 4.5-4.5 4.5s-4.5-2.015-4.5-4.5Z" fill="#FFF" fill-rule="evenodd" transform="translate(-961 -529)"/>
  <path d="M1188 620c0-2.761 2.24-5 5-5h28a5.001 5.001 0 0 1 0 10h-28c-2.76 0-5-2.239-5-5" fill="#404040" fill-rule="evenodd" transform="translate(-961 -529)"/>
</svg>
