<svg width="322" height="191" xmlns="http://www.w3.org/2000/svg" xmlns:xlink="http://www.w3.org/1999/xlink" overflow="hidden"><g transform="translate(-961 -548)"><rect x="961" y="549" width="322" height="189" fill="#FFFFFF"/><path d="M990 577.5C990 572.253 994.253 568 999.5 568L1074.5 568C1079.75 568 1084 572.253 1084 577.5L1084 577.5C1084 582.747 1079.75 587 1074.5 587L999.5 587C994.253 587 990 582.747 990 577.5Z" fill="#404040" fill-rule="evenodd"/><path d="M1235 572.5C1235 570.015 1237.01 568 1239.5 568L1249.5 568C1251.99 568 1254 570.015 1254 572.5L1254 572.5C1254 574.985 1251.99 577 1249.5 577L1239.5 577C1237.01 577 1235 574.985 1235 572.5Z" fill="#BFBFBF" fill-rule="evenodd"/><path d="M1150 572.5C1150 570.015 1152.01 568 1154.5 568L1221.5 568C1223.99 568 1226 570.015 1226 572.5L1226 572.5C1226 574.985 1223.99 577 1221.5 577L1154.5 577C1152.01 577 1150 574.985 1150 572.5Z" fill="#BFBFBF" fill-rule="evenodd"/><path d="M990 610.411C990 607.975 991.975 606 994.411 606L1060.59 606C1063.03 606 1065 607.975 1065 610.411L1065 676.589C1065 679.025 1063.03 681 1060.59 681L994.411 681C991.975 681 990 679.025 990 676.589Z" fill="#D9D9D9" fill-rule="evenodd"/><path d="M1027 667C1027 664.239 1029.24 662 1032 662L1041 662C1043.76 662 1046 664.239 1046 667L1046 667C1046 669.761 1043.76 672 1041 672L1032 672C1029.24 672 1027 669.761 1027 667Z" fill="#FFFFFF" fill-rule="evenodd"/><path d="M999 667.5C999 662.253 1003.25 658 1008.5 658L1008.5 658C1013.75 658 1018 662.253 1018 667.5L1018 667.5C1018 672.747 1013.75 677 1008.5 677L1008.5 677C1003.25 677 999 672.747 999 667.5Z" fill="#FFFFFF" fill-rule="evenodd"/><path d="M999 648C999 645.239 1001.24 643 1004 643L1051 643C1053.76 643 1056 645.239 1056 648L1056 648C1056 650.761 1053.76 653 1051 653L1004 653C1001.24 653 999 650.761 999 648Z" fill="#404040" fill-rule="evenodd"/><path d="M999 622.257 1005.27 620.823 1008.5 615 1011.73 620.823 1018 622.257 1013.73 627.291 1014.37 634 1008.5 631.288 1002.63 634 1003.27 627.291Z" fill="#2564EB" fill-rule="evenodd"/><path d="M1018 622.257 1024.27 620.823 1027.5 615 1030.73 620.823 1037 622.257 1032.73 627.291 1033.37 634 1027.5 631.288 1021.63 634 1022.27 627.291Z" fill="#2564EB" fill-rule="evenodd"/><path d="M1037 622.257 1043.27 620.823 1046.5 615 1049.73 620.823 1056 622.257 1051.73 627.291 1052.37 634 1046.5 631.288 1040.63 634 1041.27 627.291Z" fill="#2564EB" fill-rule="evenodd"/><path d="M1084 610.411C1084 607.975 1085.97 606 1088.41 606L1155.59 606C1158.03 606 1160 607.975 1160 610.411L1160 676.589C1160 679.025 1158.03 681 1155.59 681L1088.41 681C1085.97 681 1084 679.025 1084 676.589Z" fill="#D9D9D9" fill-rule="evenodd"/><path d="M1122 667C1122 664.239 1124.24 662 1127 662L1136 662C1138.76 662 1141 664.239 1141 667L1141 667C1141 669.761 1138.76 672 1136 672L1127 672C1124.24 672 1122 669.761 1122 667Z" fill="#FFFFFF" fill-rule="evenodd"/><path d="M1094 667C1094 662.029 1098.03 658 1103 658L1103 658C1107.97 658 1112 662.029 1112 667L1112 668C1112 672.971 1107.97 677 1103 677L1103 677C1098.03 677 1094 672.971 1094 668Z" fill="#FFFFFF" fill-rule="evenodd"/><path d="M1094 648C1094 645.239 1096.24 643 1099 643L1145 643C1147.76 643 1150 645.239 1150 648L1150 648C1150 650.761 1147.76 653 1145 653L1099 653C1096.24 653 1094 650.761 1094 648Z" fill="#404040" fill-rule="evenodd"/><path d="M1094 622.257 1099.94 620.823 1103 615 1106.06 620.823 1112 622.257 1107.96 627.291 1108.56 634 1103 631.288 1097.44 634 1098.04 627.291Z" fill="#2564EB" fill-rule="evenodd"/><path d="M1112 622.257 1118.27 620.823 1121.5 615 1124.73 620.823 1131 622.257 1126.73 627.291 1127.37 634 1121.5 631.288 1115.63 634 1116.27 627.291Z" fill="#2564EB" fill-rule="evenodd"/><path d="M1131 622.257 1137.27 620.823 1140.5 615 1143.73 620.823 1150 622.257 1145.73 627.291 1146.37 634 1140.5 631.288 1134.63 634 1135.27 627.291Z" fill="#2564EB" fill-rule="evenodd"/><path d="M1179 610.411C1179 607.975 1180.97 606 1183.41 606L1249.59 606C1252.03 606 1254 607.975 1254 610.411L1254 676.589C1254 679.025 1252.03 681 1249.59 681L1183.41 681C1180.97 681 1179 679.025 1179 676.589Z" fill="#D9D9D9" fill-rule="evenodd"/><path d="M1216 667C1216 664.239 1218.24 662 1221 662L1230 662C1232.76 662 1235 664.239 1235 667L1235 667C1235 669.761 1232.76 672 1230 672L1221 672C1218.24 672 1216 669.761 1216 667Z" fill="#FFFFFF" fill-rule="evenodd"/><path d="M1188 667.5C1188 662.253 1192.25 658 1197.5 658L1197.5 658C1202.75 658 1207 662.253 1207 667.5L1207 667.5C1207 672.747 1202.75 677 1197.5 677L1197.5 677C1192.25 677 1188 672.747 1188 667.5Z" fill="#FFFFFF" fill-rule="evenodd"/><path d="M1188 648C1188 645.239 1190.24 643 1193 643L1240 643C1242.76 643 1245 645.239 1245 648L1245 648C1245 650.761 1242.76 653 1240 653L1193 653C1190.24 653 1188 650.761 1188 648Z" fill="#404040" fill-rule="evenodd"/><path d="M1188 622.257 1194.27 620.823 1197.5 615 1200.73 620.823 1207 622.257 1202.73 627.291 1203.37 634 1197.5 631.288 1191.63 634 1192.27 627.291Z" fill="#2564EB" fill-rule="evenodd"/><path d="M1207 622.257 1213.27 620.823 1216.5 615 1219.73 620.823 1226 622.257 1221.73 627.291 1222.37 634 1216.5 631.288 1210.63 634 1211.27 627.291Z" fill="#2564EB" fill-rule="evenodd"/><path d="M1226 622.257 1232.27 620.823 1235.5 615 1238.73 620.823 1245 622.257 1240.73 627.291 1241.37 634 1235.5 631.288 1229.63 634 1230.27 627.291Z" fill="#2564EB" fill-rule="evenodd"/><path d="M990 694.965C990 692.775 991.775 691 993.965 691L1250.04 691C1252.22 691 1254 692.775 1254 694.965L1254 715.035C1254 717.225 1252.22 719 1250.04 719L993.965 719C991.775 719 990 717.225 990 715.035Z" fill="#D9D9D9" fill-rule="evenodd"/></g></svg>