<svg width="322" height="191" xmlns="http://www.w3.org/2000/svg" overflow="hidden">
  <path fill="#FFF" d="M961 530h322v189H961z" transform="translate(-961 -529)"/>
  <path d="M1075 572.5c0-2.485 2.01-4.5 4.5-4.5h10c2.49 0 4.5 2.015 4.5 4.5s-2.01 4.5-4.5 4.5h-10c-2.49 0-4.5-2.015-4.5-4.5m-85 0a4.5 4.5 0 0 1 4.5-4.5h66c2.49 0 4.5 2.015 4.5 4.5s-2.01 4.5-4.5 4.5h-66a4.5 4.5 0 0 1-4.5-4.5" fill="#BFBFBF" fill-rule="evenodd" transform="translate(-961 -529)"/>
  <path d="M990 591.411a4.41 4.41 0 0 1 4.411-4.411h66.179c2.44 0 4.41 1.975 4.41 4.411v85.178a4.41 4.41 0 0 1-4.41 4.411h-66.179a4.41 4.41 0 0 1-4.411-4.411Z" fill="#D9D9D9" fill-rule="evenodd" transform="translate(-961 -529)"/>
  <path d="M1046 667a5.001 5.001 0 0 1 10 0 5.001 5.001 0 0 1-10 0m-47 0c0-2.761 2.24-5 5-5h28a5.001 5.001 0 0 1 0 10h-28c-2.76 0-5-2.239-5-5m0-19c0-2.761 2.24-5 5-5h47a5.001 5.001 0 0 1 0 10h-47c-2.76 0-5-2.239-5-5m19-18.5c0-2.485 2.01-4.5 4.5-4.5h29c2.49 0 4.5 2.015 4.5 4.5s-2.01 4.5-4.5 4.5h-29c-2.49 0-4.5-2.015-4.5-4.5m-19 0c0-2.485 2.01-4.5 4.5-4.5h1c2.49 0 4.5 2.015 4.5 4.5s-2.01 4.5-4.5 4.5h-1c-2.49 0-4.5-2.015-4.5-4.5" fill="#FFF" fill-rule="evenodd" transform="translate(-961 -529)"/>
  <path d="M999 601c0-2.761 2.24-5 5-5h28a5.001 5.001 0 0 1 0 10h-28c-2.76 0-5-2.239-5-5" fill="#404040" fill-rule="evenodd" transform="translate(-961 -529)"/>
  <path d="M1084 591.47c0-2.469 2-4.47 4.47-4.47h67.06c2.47 0 4.47 2.001 4.47 4.47v85.06c0 2.469-2 4.47-4.47 4.47h-67.06a4.47 4.47 0 0 1-4.47-4.47Z" fill="#D9D9D9" fill-rule="evenodd" transform="translate(-961 -529)"/>
  <path d="M1141 666.5c0-2.485 2.01-4.5 4.5-4.5s4.5 2.015 4.5 4.5v1c0 2.485-2.01 4.5-4.5 4.5s-4.5-2.015-4.5-4.5Zm-47 .5c0-2.761 2.24-5 5-5h27a5.001 5.001 0 0 1 0 10h-27c-2.76 0-5-2.239-5-5m0-19c0-2.761 2.24-5 5-5h46a5.001 5.001 0 0 1 0 10h-46c-2.76 0-5-2.239-5-5m18-18.5c0-2.485 2.01-4.5 4.5-4.5h29c2.49 0 4.5 2.015 4.5 4.5s-2.01 4.5-4.5 4.5h-29c-2.49 0-4.5-2.015-4.5-4.5m-18 0c0-2.485 2.01-4.5 4.5-4.5s4.5 2.015 4.5 4.5-2.01 4.5-4.5 4.5-4.5-2.015-4.5-4.5" fill="#FFF" fill-rule="evenodd" transform="translate(-961 -529)"/>
  <path d="M1094 601c0-2.761 2.24-5 5-5h27a5.001 5.001 0 0 1 0 10h-27c-2.76 0-5-2.239-5-5" fill="#404040" fill-rule="evenodd" transform="translate(-961 -529)"/>
  <path d="M1179 591.411a4.41 4.41 0 0 1 4.41-4.411h66.18c2.44 0 4.41 1.975 4.41 4.411v85.178a4.41 4.41 0 0 1-4.41 4.411h-66.18a4.41 4.41 0 0 1-4.41-4.411Z" fill="#D9D9D9" fill-rule="evenodd" transform="translate(-961 -529)"/>
  <path d="M1235 667a5.001 5.001 0 0 1 10 0 5.001 5.001 0 0 1-10 0m-47 0c0-2.761 2.24-5 5-5h28a5.001 5.001 0 0 1 0 10h-28c-2.76 0-5-2.239-5-5m0-19c0-2.761 2.24-5 5-5h47a5.001 5.001 0 0 1 0 10h-47c-2.76 0-5-2.239-5-5m19-18.5c0-2.485 2.01-4.5 4.5-4.5h29c2.49 0 4.5 2.015 4.5 4.5s-2.01 4.5-4.5 4.5h-29c-2.49 0-4.5-2.015-4.5-4.5m-19 0c0-2.485 2.01-4.5 4.5-4.5s4.5 2.015 4.5 4.5-2.01 4.5-4.5 4.5-4.5-2.015-4.5-4.5" fill="#FFF" fill-rule="evenodd" transform="translate(-961 -529)"/>
  <path d="M1188 601c0-2.761 2.24-5 5-5h28a5.001 5.001 0 0 1 0 10h-28c-2.76 0-5-2.239-5-5" fill="#404040" fill-rule="evenodd" transform="translate(-961 -529)"/>
</svg>
