<svg width="322" height="191" xmlns="http://www.w3.org/2000/svg" overflow="hidden">
  <path fill="#FFF" d="M961 530h322v189H961z" transform="translate(-961 -529)"/>
  <path d="M997 560a2 2 0 0 1 2-2c1.1 0 2 .895 2 2v129a2 2 0 1 1-4 0Z" fill="#404040" fill-rule="evenodd" transform="translate(-961 -529)"/>
  <path d="M990 657.5a9.5 9.5 0 0 1 9.5-9.5c5.25 0 9.5 4.253 9.5 9.5s-4.25 9.5-9.5 9.5a9.5 9.5 0 0 1-9.5-9.5m0-68a9.5 9.5 0 0 1 9.5-9.5c5.25 0 9.5 4.253 9.5 9.5s-4.25 9.5-9.5 9.5a9.5 9.5 0 0 1-9.5-9.5" fill="#404040" fill-rule="evenodd" transform="translate(-961 -529)"/>
  <path d="m1002.969 654.481-5.334 4.538-2.562-2.363-.886.76 3.407 3.15.896-.75 5.322-4.547Zm0-68-5.334 4.538-2.562-2.363-.886.76 3.407 3.15.896-.75 5.322-4.547Z" fill="#FFF" transform="translate(-961 -529)"/>
  <path d="M1027 639.741a5.74 5.74 0 0 1 5.74-5.741h215.52a5.74 5.74 0 0 1 5.74 5.741v35.518a5.74 5.74 0 0 1-5.74 5.741h-215.52a5.74 5.74 0 0 1-5.74-5.741Z" fill="#D9D9D9" fill-rule="evenodd" transform="translate(-961 -529)"/>
  <path d="M1037 648c0-2.761 2.24-5 5-5h28a5.001 5.001 0 0 1 0 10h-28c-2.76 0-5-2.239-5-5m0 19c0-2.761 2.24-5 5-5h198a5 5 0 0 1 0 10h-198c-2.76 0-5-2.239-5-5" fill="#404040" fill-rule="evenodd" transform="translate(-961 -529)"/>
  <path d="M1027 573.741a5.74 5.74 0 0 1 5.74-5.741h215.52a5.74 5.74 0 0 1 5.74 5.741v35.518a5.74 5.74 0 0 1-5.74 5.741h-215.52a5.74 5.74 0 0 1-5.74-5.741Z" fill="#D9D9D9" fill-rule="evenodd" transform="translate(-961 -529)"/>
  <path d="M1037 582c0-2.761 2.24-5 5-5h28a5.001 5.001 0 0 1 0 10h-28c-2.76 0-5-2.239-5-5m0 19c0-2.761 2.24-5 5-5h198a5 5 0 0 1 0 10h-198c-2.76 0-5-2.239-5-5" fill="#404040" fill-rule="evenodd" transform="translate(-961 -529)"/>
</svg>
