<svg width="322" height="191" xmlns="http://www.w3.org/2000/svg" xmlns:xlink="http://www.w3.org/1999/xlink" overflow="hidden">
  <g transform="translate(-961 -529)">
    <rect x="961" y="530" width="322" height="189" fill="#FFFFFF"/>
    <path d="M1075 558.5C1075 553.253 1079.25 549 1084.5 549L1159.5 549C1164.75 549 1169 553.253 1169 558.5L1169 558.5C1169 563.747 1164.75 568 1159.5 568L1084.5 568C1079.25 568 1075 563.747 1075 558.5Z" fill="#404040" fill-rule="evenodd"/>
    <path d="M1150 582C1150 579.239 1152.24 577 1155 577L1174 577C1176.76 577 1179 579.239 1179 582L1179 582C1179 584.761 1176.76 587 1174 587L1155 587C1152.24 587 1150 584.761 1150 582Z" fill="#BFBFBF" fill-rule="evenodd"/>
    <path d="M1065 582C1065 579.239 1067.24 577 1070 577L1136 577C1138.76 577 1141 579.239 1141 582L1141 582C1141 584.761 1138.76 587 1136 587L1070 587C1067.24 587 1065 584.761 1065 582Z" fill="#BFBFBF" fill-rule="evenodd"/>
    <path d="M1018 602.116C1018 598.738 1020.74 596 1024.12 596L1219.88 596C1223.26 596 1226 598.738 1226 602.116L1226 693.884C1226 697.262 1223.26 700 1219.88 700L1024.12 700C1020.74 700 1018 697.262 1018 693.884Z" fill="#BFBFBF" fill-rule="evenodd"/>
    <g>
      <g>
        <g>
          <path d="M11.2583 6.41667 44.7417 28 11.2583 49.5833Z" fill="#FFFFFF" transform="matrix(1 0 0 1.01786 1094 620)"/>
        </g>
      </g>
    </g>
  </g>
</svg>
